<svg width="151" height="156" viewBox="0 0 151 156" fill="none" xmlns="http://www.w3.org/2000/svg">
<path fill-rule="evenodd" clip-rule="evenodd" d="M77.9024 0.285645H72.3429V5.84514H66.7834V11.4046V16.9641H72.3429V22.5236H66.7834V28.0831H61.2239V22.5236V16.9641H55.6644H50.1049V11.4046H44.5454V5.84514H38.9859H33.4264V11.4046H27.8669V16.9641H33.4264V22.5236H38.9859V28.0831H44.5454V33.6426V39.2021H50.1049H55.6644H61.2239V44.7616H66.7834V50.3211V55.8806H61.2239V61.4401H55.6644V66.9996V72.5591V78.1186V83.6781V89.2376V94.7971V100.357H50.1049V105.916H44.5454V111.476V117.035H50.1049V122.595H44.5454H38.9859V117.035H33.4264V111.476H27.8669V105.916H22.3074V111.476H27.8669V117.035H33.4264V122.595H27.8669V128.154H33.4264V133.714H38.9859V128.154H44.5454H50.1049V122.595H55.6644H61.2239V128.154H55.6644V133.714H50.1049V139.273H55.6644V144.833H61.2239V139.273H66.7834V133.714H61.2239V128.154H66.7834V122.595H72.3429V128.154V133.714V139.273V144.833H66.7834V150.392H72.3429H77.9325V144.833L77.9024 139.273V133.714V128.154V122.595H83.4619V128.154H89.0214V133.714H83.4619V139.273H89.0214V144.833H94.5809V139.273H100.14V133.714H94.5809V128.154H89.0214V122.595H94.5809H100.14V128.154H105.7H111.259V133.714H116.819V128.154H122.378V122.595H127.938V117.035V111.476V105.916H122.378H116.819V111.476H111.259V117.035V122.595H105.7H100.14V117.035H105.7V111.476V105.916H100.14V100.357H94.5809V94.7971V89.2376V83.6781V78.1186V72.5591V66.9996V61.4401H89.0214V55.8806H83.4619V50.3211V44.7616H89.0214V39.2021H94.5809H100.14H105.7V33.6426V28.0831H111.259V22.5236H116.819V16.9641H122.378V11.4046H116.819V5.84514H111.259H105.7V11.4046H100.14V16.9641H94.5809H89.0214V22.5236V28.0831H83.4619V22.5236H77.9024V16.9641H83.4619V11.4046V5.84514H77.9024V0.285645ZM77.9024 22.5236V28.0831H83.4619V33.6426V39.2021H77.9024V44.7616H72.3429V39.2021H66.7834V33.6426V28.0831H72.3429V22.5236H77.9024ZM105.7 16.9641H111.259V11.4046H105.7V16.9641ZM105.7 16.9641H100.14V22.5236V28.0831H105.7V22.5236V16.9641ZM44.5454 16.9641V11.4046H38.9859V16.9641H44.5454ZM44.5454 16.9641V22.5236V28.0831H50.1049V22.5236V16.9641H44.5454ZM94.5809 117.035H89.0214V111.476H94.5809V117.035ZM83.4619 111.476V105.916H89.0214V111.476H83.4619ZM83.4619 111.476V117.035H77.9024V111.476H83.4619ZM61.2239 111.476V117.035H55.6644V111.476H61.2239ZM66.7834 111.476H61.2239V105.916H66.7834V111.476ZM66.7834 111.476H72.3429V117.035H66.7834V111.476ZM61.2239 94.7971H66.7834V100.357H72.3429L72.3429 94.7971H77.9024V100.378H72.3429L72.3429 105.916H77.9024V100.357H83.4619H83.4919V94.8182L89.0214 94.7971V89.2376V83.6781V78.1186V72.5591V66.9996H83.4619V61.4401H77.9024V55.8806H72.3429V61.4401H66.7834V66.9996H61.2239V72.5591V78.1186V83.6781V89.2376V94.7971ZM5.62883 17.76H11.1883V23.3195H16.7478V28.879H22.3073V34.4385H27.8668V39.998H33.4263V45.5575H38.9858V51.117H44.5453V56.6765V62.236H38.9858V67.7955H44.5453H50.1048V73.355V78.9145H44.5453V84.474V90.0335V95.593H38.9858V90.0335H33.4263V95.593V101.152H27.8668V95.593V90.0335H22.3073V84.474H16.7478H11.1883V78.9145H16.7478V73.355H11.1883V67.7955H5.62883V62.236H11.1883H16.7478V56.6765H11.1883H5.62883V51.117H11.1883V45.5575H16.7478V39.998H11.1883V34.4385V28.879H5.62883V23.3195H0.0693359V17.76H5.62883ZM11.1883 39.998V45.5575H5.62883V39.998H11.1883ZM11.1883 73.355V78.9145H5.62883V73.355H11.1883ZM139.057 17.76H144.616H150.176V23.3195H144.616V28.879H139.057V34.4385V39.998H133.497V45.5575H139.057V51.117H144.616V56.6765H139.057H133.497V62.236H139.057H144.616V67.7955H139.057V73.355H133.497V78.9145H139.057V84.474H133.497H127.938V90.0335H122.378V95.593V101.152H116.819V95.593V90.0335H111.259V95.593H105.7V90.0335V84.474V78.9145H100.14V73.355V67.7955H105.7H111.259V62.236H105.7V56.6765V51.117H111.259V45.5575H116.819V39.998H122.378V34.4385H127.938V28.879H133.497V23.3195H139.057V17.76ZM139.057 78.9145H144.616V73.355H139.057V78.9145ZM139.057 45.5575V39.998H144.616V45.5575H139.057ZM72.3429 89.2376V94.7971H77.9024V89.2376V83.6781H72.3429V89.2376ZM72.3429 155.973V150.392H77.9325L77.9024 155.973H72.3429ZM77.9325 150.392V144.833H83.492V150.392H77.9325ZM72.3429 66.9996V72.5591L66.7834 72.5591V78.1186H72.3429L72.3429 83.6781H77.9024L77.9024 78.1186H83.4619V72.5591L77.9024 72.5591V66.9996H72.3429ZM77.9024 72.5591L77.9024 78.1186H72.3429L72.3429 72.5591H77.9024ZM50.1027 50.3255V55.885V61.4445H55.6622V55.885V50.3255H50.1027ZM94.5974 50.3255V55.885H100.157V50.3255V44.7661H94.5974V50.3255Z" fill="#1E1E1E"/>
</svg>
