<svg width="69" height="78" viewBox="0 0 69 78" fill="none" xmlns="http://www.w3.org/2000/svg">
<path d="M23.8299 77.6852C23.7037 77.6933 23.5772 77.6728 23.4599 77.6252C23.2579 77.5192 23.0982 77.3475 23.0073 77.1383C22.9163 76.9291 22.8996 76.6952 22.9599 76.4752L25.9599 54.8052C25.9599 54.5652 25.9599 54.4552 25.8999 54.4352L13.3399 47.5552C13.206 47.4695 13.0944 47.3532 13.0144 47.2158C12.9344 47.0784 12.8883 46.9239 12.8799 46.7652C12.8776 46.4098 12.9577 46.0587 13.1138 45.7395C13.27 45.4202 13.498 45.1415 13.7799 44.9252L31.1299 31.9952C31.3773 31.7992 31.5616 31.535 31.6599 31.2352L33.5199 25.8052C33.5539 25.7116 33.6232 25.6351 33.7129 25.5921C33.8027 25.5491 33.9057 25.543 33.9999 25.5752C34.0935 25.6091 34.17 25.6784 34.213 25.7682C34.256 25.8579 34.2621 25.961 34.2299 26.0552L32.3699 31.4852C32.2173 31.9227 31.9433 32.3077 31.5799 32.5952L14.2299 45.5252C14.049 45.6654 13.9014 45.8439 13.7976 46.0479C13.6939 46.2519 13.6366 46.4764 13.6299 46.7052C13.6299 46.8052 13.6299 46.8752 13.6999 46.8952L26.2599 53.7752C26.4469 53.8893 26.5913 54.0617 26.6708 54.2659C26.7503 54.47 26.7605 54.6946 26.6999 54.9052L23.6999 76.5752C23.6999 76.7952 23.6999 76.9252 23.7599 76.9452C23.8199 76.9652 24.0399 76.9452 24.2999 76.6152L39.8299 58.2252C39.963 58.0534 40.1304 57.9113 40.3216 57.8079C40.5127 57.7046 40.7233 57.6424 40.9399 57.6252L56.4599 58.0852C56.5899 58.0852 56.7799 57.9652 56.9499 57.7752C57.2049 57.5051 57.3447 57.1465 57.3399 56.7752L54.3399 38.5352C54.2905 38.0836 54.3963 37.6286 54.6399 37.2452L67.2599 15.8052C67.5399 15.3352 67.4999 14.9752 67.4199 14.8852C67.3399 14.7952 67.2799 14.8852 67.2499 14.8852L49.8899 21.9952C49.6969 22.0961 49.4722 22.1182 49.2632 22.0566C49.0543 21.995 48.8774 21.8547 48.7699 21.6652L41.0099 7.98517C40.7199 7.98517 40.2999 8.28517 40.1199 8.82517L36.1899 20.2852C36.1742 20.3311 36.1495 20.3735 36.1174 20.41C36.0852 20.4464 36.0462 20.4762 36.0026 20.4975C35.9589 20.5189 35.9115 20.5314 35.863 20.5345C35.8145 20.5375 35.7659 20.5309 35.7199 20.5152C35.6245 20.4832 35.5457 20.4148 35.5007 20.3248C35.4557 20.2348 35.4483 20.1307 35.4799 20.0352L39.4599 8.62517C39.5576 8.28619 39.7431 7.97905 39.9978 7.73494C40.2524 7.49082 40.5671 7.3184 40.9099 7.23517C41.0701 7.21641 41.2322 7.24647 41.3749 7.32142C41.5177 7.39636 41.6344 7.5127 41.7099 7.65517L49.4599 21.3052C49.4599 21.3052 49.4599 21.3752 49.6499 21.3052L66.9999 14.1952C67.1658 14.1193 67.351 14.0969 67.5302 14.1309C67.7093 14.165 67.8735 14.2538 67.9999 14.3852C68.1654 14.6579 68.2462 14.9736 68.2319 15.2923C68.2177 15.611 68.1091 15.9183 67.9199 16.1752L55.3599 37.5552C55.211 37.7905 55.1409 38.0673 55.1599 38.3452L58.1599 56.5852C58.1891 56.8873 58.1544 57.1921 58.0579 57.4798C57.9614 57.7676 57.8054 58.0318 57.5999 58.2552C57.3284 58.5776 56.9399 58.7791 56.5199 58.8152L40.9899 58.3552C40.8799 58.3552 40.6799 58.4552 40.4799 58.6952L24.9599 77.0752C24.829 77.2547 24.6595 77.4026 24.464 77.5082C24.2685 77.6137 24.0518 77.6742 23.8299 77.6852Z" fill="#1E1E1E"/>
<path d="M39.1203 57.1852C39.0323 57.1839 38.9475 57.1521 38.8803 57.0952C38.845 57.0607 38.8169 57.0195 38.7977 56.974C38.7785 56.9285 38.7686 56.8796 38.7686 56.8302C38.7686 56.7808 38.7785 56.7319 38.7977 56.6864C38.8169 56.6409 38.845 56.5997 38.8803 56.5652C39.3089 56.0454 39.8229 55.6023 40.4003 55.2552C40.8936 54.9596 41.4554 54.7976 42.0303 54.7852L54.1903 55.1552C54.2768 55.1179 54.3525 55.0595 54.4103 54.9852C54.5468 54.8353 54.6187 54.6377 54.6103 54.4352C54.5983 54.3377 54.6236 54.2392 54.6811 54.1594C54.7385 54.0797 54.824 54.0246 54.9203 54.0052C54.969 53.9967 55.0189 53.9979 55.067 54.009C55.1152 54.02 55.1607 54.0406 55.2007 54.0695C55.2408 54.0984 55.2747 54.135 55.3004 54.1772C55.3261 54.2194 55.3431 54.2663 55.3503 54.3152C55.3741 54.5284 55.3515 54.7442 55.2842 54.9478C55.2169 55.1515 55.1064 55.3382 54.9603 55.4952C54.8657 55.6185 54.7448 55.7192 54.6064 55.7901C54.4681 55.861 54.3157 55.9003 54.1603 55.9052L42.0003 55.5352C41.5683 55.5497 41.1476 55.6772 40.7803 55.9052C40.275 56.2103 39.8252 56.5992 39.4503 57.0552C39.4095 57.1014 39.3583 57.1373 39.301 57.1599C39.2436 57.1825 39.1817 57.1912 39.1203 57.1852ZM48.5103 24.9152C48.1607 24.923 47.8157 24.8337 47.5138 24.6572C47.2119 24.4806 46.9649 24.2238 46.8003 23.9152L44.1703 19.2752C44.1455 19.2327 44.1294 19.1856 44.123 19.1367C44.1166 19.0879 44.1201 19.0383 44.1331 18.9908C44.1461 18.9433 44.1685 18.8988 44.199 18.8601C44.2294 18.8214 44.2673 18.7891 44.3103 18.7652C44.3984 18.7172 44.5016 18.705 44.5984 18.731C44.6952 18.7571 44.7783 18.8195 44.8303 18.9052L47.4603 23.5552C47.5515 23.7043 47.6712 23.834 47.8126 23.9369C47.9539 24.0397 48.1142 24.1137 48.2841 24.1546C48.4541 24.1954 48.6304 24.2024 48.8031 24.175C48.9758 24.1477 49.1413 24.0866 49.2903 23.9952L54.1903 21.9952C54.2834 21.9615 54.3858 21.9644 54.4768 22.0034C54.5678 22.0424 54.6406 22.1145 54.6803 22.2052C54.7166 22.2981 54.715 22.4015 54.6757 22.4932C54.6364 22.5849 54.5626 22.6574 54.4703 22.6952L49.5803 24.6952C49.2422 24.8401 48.8782 24.915 48.5103 24.9152ZM66.0503 15.3952C65.9981 15.4102 65.9426 15.4102 65.8903 15.3952C65.8074 15.3561 65.7431 15.286 65.7113 15.2C65.6795 15.1139 65.6828 15.0189 65.7203 14.9352L66.0303 15.0852L65.7503 14.8952C65.8035 14.8162 65.8844 14.76 65.977 14.7378C66.0696 14.7156 66.1671 14.7289 66.2503 14.7752C66.332 14.8234 66.3921 14.9011 66.4182 14.9923C66.4442 15.0834 66.4342 15.1811 66.3903 15.2652L66.1203 15.0852L66.3903 15.2652C66.3455 15.3089 66.2922 15.3429 66.2337 15.3653C66.1753 15.3876 66.1129 15.3978 66.0503 15.3952Z" fill="#1E1E1E"/>
<path d="M10.71 70.4051C10.6543 70.42 10.5957 70.42 10.54 70.4051C10.3494 70.2939 10.201 70.1228 10.1178 69.9184C10.0346 69.714 10.0213 69.4878 10.08 69.2751L12.46 51.6251C12.4648 51.5758 12.4797 51.528 12.5038 51.4847C12.528 51.4414 12.5608 51.4035 12.6002 51.3734C12.6396 51.3434 12.6848 51.3218 12.733 51.3101C12.7811 51.2983 12.8312 51.2966 12.88 51.3051C12.9288 51.3113 12.9759 51.3271 13.0185 51.3516C13.0611 51.3761 13.0984 51.4089 13.1281 51.448C13.1579 51.4871 13.1796 51.5317 13.192 51.5793C13.2043 51.6269 13.2071 51.6765 13.2 51.7251L10.79 69.3751C10.79 69.6051 10.79 69.7251 10.79 69.7451C10.8345 69.7663 10.8741 69.7963 10.9065 69.8333C10.9388 69.8704 10.9633 69.9136 10.9783 69.9605C10.9933 70.0074 10.9985 70.0568 10.9936 70.1057C10.9888 70.1547 10.9739 70.2021 10.95 70.2451C10.9237 70.2873 10.8887 70.3234 10.8473 70.351C10.8059 70.3786 10.7591 70.397 10.71 70.4051Z" fill="#1E1E1E"/>
<path d="M13.1701 47.2452C13.1068 47.2442 13.0448 47.227 12.9901 47.1952L0.460057 40.3152C0.326104 40.2296 0.214495 40.1132 0.134495 39.9758C0.0544953 39.8384 0.00840442 39.684 4.97882e-05 39.5252C-0.00228853 39.1698 0.077768 38.8187 0.233921 38.4995C0.390074 38.1802 0.618085 37.9015 0.900059 37.6852L18.25 24.7552C18.4949 24.5612 18.6789 24.3008 18.7801 24.0052L26.5401 1.3652C26.6268 1.09118 26.7669 0.837021 26.9522 0.617348C27.1376 0.397674 27.3645 0.216823 27.6201 0.0851974C27.7389 0.0290927 27.8686 0 28 0C28.1315 0 28.2612 0.0290927 28.3801 0.0851974C28.4275 0.10157 28.471 0.127687 28.5078 0.161873C28.5446 0.196059 28.5738 0.237562 28.5935 0.283707C28.6133 0.329851 28.6232 0.379617 28.6226 0.429817C28.622 0.480017 28.6109 0.529537 28.5901 0.575195C28.5715 0.620866 28.544 0.662366 28.5091 0.69725C28.4743 0.732135 28.4328 0.759703 28.3871 0.778336C28.3415 0.796968 28.2926 0.806287 28.2433 0.805748C28.194 0.805209 28.1453 0.794826 28.1001 0.7752C28.0448 0.757582 27.9854 0.757582 27.9301 0.7752C27.6022 0.955469 27.3581 1.25703 27.25 1.6152L19.4601 24.2452C19.3075 24.6827 19.0334 25.0677 18.6701 25.3552L1.32006 38.2852C1.14015 38.4263 0.993244 38.605 0.889607 38.8089C0.78597 39.0127 0.7281 39.2367 0.720051 39.4652C0.720051 39.5652 0.720058 39.6352 0.790058 39.6552L13.3501 46.5352C13.4223 46.5764 13.479 46.6401 13.5115 46.7166C13.544 46.7931 13.5506 46.8781 13.5301 46.9587C13.5097 47.0392 13.4634 47.1109 13.3984 47.1626C13.3334 47.2144 13.2532 47.2434 13.1701 47.2452Z" fill="#1E1E1E"/>
<path d="M46.0402 11.0452C45.9532 11.0434 45.8694 11.0118 45.8029 10.9557C45.7364 10.8995 45.6912 10.8223 45.6748 10.7368C45.6584 10.6513 45.6718 10.5628 45.7128 10.4861C45.7539 10.4093 45.82 10.349 45.9002 10.3152L54.0602 6.97516C54.1782 6.92249 54.306 6.89526 54.4352 6.89526C54.5644 6.89526 54.6922 6.92249 54.8102 6.97516C54.9014 7.01664 54.9725 7.09244 55.008 7.18607C55.0436 7.27971 55.0408 7.3836 55.0002 7.47516C54.9587 7.56633 54.8829 7.63745 54.7893 7.67303C54.6956 7.70861 54.5917 7.70578 54.5002 7.66516C54.5002 7.66516 54.4402 7.66516 54.3502 7.66516L46.1802 11.0152C46.1364 11.0356 46.0885 11.0459 46.0402 11.0452Z" fill="#1E1E1E"/>
<path d="M41.17 8.01536C41.1075 8.03024 41.0424 8.03024 40.98 8.01536L27.98 0.75536C27.8938 0.706295 27.8306 0.624998 27.8044 0.529354C27.7781 0.433711 27.7909 0.331561 27.84 0.245366C27.8891 0.15917 27.9703 0.0959919 28.066 0.0697369C28.1616 0.0434818 28.2638 0.0563011 28.35 0.105366L41.3 7.35537C41.343 7.37927 41.3809 7.41153 41.4114 7.45027C41.4418 7.489 41.4642 7.53342 41.4772 7.58092C41.4903 7.62842 41.4937 7.67806 41.4873 7.7269C41.4809 7.77575 41.4648 7.82282 41.44 7.86536C41.4094 7.90935 41.3692 7.94576 41.3224 7.97176C41.2756 7.99777 41.2235 8.01268 41.17 8.01536Z" fill="#1E1E1E"/>
<path d="M67.5501 14.9052C67.4908 14.9186 67.4293 14.9186 67.3701 14.9052L54.4601 7.62524C54.4159 7.60239 54.3771 7.57067 54.3458 7.53206C54.3145 7.49344 54.2916 7.44878 54.2785 7.40088C54.2653 7.35297 54.2622 7.30286 54.2694 7.2537C54.2765 7.20455 54.2938 7.1574 54.3201 7.11524C54.344 7.07217 54.3762 7.03431 54.415 7.00387C54.4537 6.97344 54.4981 6.95104 54.5456 6.938C54.5931 6.92496 54.6428 6.92154 54.6916 6.92794C54.7404 6.93433 54.7875 6.95041 54.8301 6.97524L67.7201 14.2052C67.7964 14.2435 67.8572 14.307 67.8921 14.385C67.9269 14.4629 67.9338 14.5505 67.9114 14.633C67.889 14.7154 67.8388 14.7875 67.7693 14.8372C67.6998 14.8868 67.6153 14.9108 67.5301 14.9052H67.5501Z" fill="#1E1E1E"/>
<path d="M23.62 77.6253C23.5576 77.6401 23.4925 77.6401 23.43 77.6253L10.53 70.4053C10.4573 70.3504 10.4067 70.2712 10.3875 70.1821C10.3682 70.093 10.3817 70 10.4253 69.92C10.469 69.84 10.5399 69.7783 10.6252 69.7462C10.7105 69.7142 10.8045 69.7138 10.89 69.7453L23.8 76.9753C23.8753 77.0133 23.9353 77.0759 23.9701 77.1527C24.005 77.2296 24.0125 77.316 23.9915 77.3977C23.9705 77.4793 23.9222 77.5514 23.8546 77.6019C23.7871 77.6524 23.7043 77.6783 23.62 77.6753V77.6253Z" fill="#1E1E1E"/>
<path d="M27.7704 29.3554C27.7117 29.3732 27.6491 29.3732 27.5904 29.3554L18.9204 24.4954C18.8342 24.4463 18.771 24.365 18.7448 24.2694C18.7185 24.1737 18.7313 24.0716 18.7804 23.9854C18.8295 23.8992 18.9108 23.836 19.0064 23.8097C19.1021 23.7835 19.2042 23.7963 19.2904 23.8454L27.9604 28.6254C28.0368 28.6636 28.0975 28.7271 28.1324 28.8051C28.1673 28.883 28.1741 28.9707 28.1517 29.0531C28.1294 29.1355 28.0792 29.2076 28.0097 29.2573C27.9402 29.3069 27.8556 29.3309 27.7704 29.3254V29.3554Z" fill="#1E1E1E"/>
</svg>
