<svg width="76" height="56" viewBox="0 0 76 56" fill="none" xmlns="http://www.w3.org/2000/svg">
<path d="M44.0559 43.47H31.8459C30.8459 43.47 30.1059 42.98 30.1059 42.32V39.6C30.1059 39.49 29.8659 39.29 29.4259 39.22C27.1962 38.8625 24.9967 38.3377 22.8459 37.65C22.4104 37.5113 21.9385 37.5435 21.5259 37.74L18.2059 39.66C17.85 39.8425 17.4558 39.9377 17.0559 39.9377C16.6559 39.9377 16.2617 39.8425 15.9059 39.66L7.24586 34.66C7.08711 34.5743 6.95449 34.4473 6.86206 34.2924C6.76963 34.1374 6.72083 33.9604 6.72083 33.78C6.72083 33.5996 6.76963 33.4226 6.86206 33.2676C6.95449 33.1127 7.08711 32.9857 7.24586 32.9L10.5859 30.98C10.7159 30.9 10.7759 30.82 10.7859 30.77C10.7754 30.7158 10.7473 30.6666 10.7059 30.63C9.58389 29.5101 8.63965 28.2252 7.90585 26.82C7.78094 26.6833 7.62462 26.5791 7.45038 26.5163C7.27614 26.4536 7.08924 26.4343 6.90585 26.46H2.23586C1.23586 26.46 0.505859 25.96 0.505859 25.3V18.22C0.505859 17.56 1.25586 17.06 2.23586 17.06H6.94585C7.12924 17.0857 7.31614 17.0664 7.49038 17.0037C7.66462 16.9409 7.82095 16.8367 7.94585 16.7C8.64912 15.2754 9.56642 13.9669 10.6659 12.82C10.6659 12.82 10.7459 12.73 10.7359 12.68C10.7259 12.63 10.6759 12.55 10.5359 12.47L7.21586 10.55C7.04497 10.4733 6.89905 10.3501 6.79474 10.1945C6.69043 10.039 6.63191 9.85723 6.62585 9.67001C6.63935 9.48474 6.70084 9.30615 6.80429 9.15186C6.90774 8.99756 7.04959 8.87285 7.21586 8.79001L15.8759 3.79001C16.23 3.60757 16.6225 3.51239 17.0209 3.51239C17.4192 3.51239 17.8118 3.60757 18.1659 3.79001L21.4959 5.71002C21.7023 5.81714 21.928 5.88202 22.1598 5.90091C22.3916 5.9198 22.6248 5.89229 22.8459 5.82001C24.9934 5.13281 27.1896 4.60799 29.4159 4.25C29.8559 4.18 30.0959 3.98 30.0959 3.87V1.14999C30.0959 0.489994 30.8459 0 31.8359 0H44.0859C45.0859 0 45.8159 0.489994 45.8159 1.14999V3.82001C45.8159 3.91001 46.0259 4.12001 46.5059 4.20001C48.729 4.55693 50.922 5.08177 53.0659 5.77002C53.5046 5.9093 53.9799 5.87711 54.3959 5.67999L57.7159 3.76001C58.07 3.57757 58.4625 3.48239 58.8609 3.48239C59.2592 3.48239 59.6518 3.57757 60.0059 3.76001L68.6759 8.76001C68.8346 8.84569 68.9672 8.97273 69.0596 9.12766C69.1521 9.28258 69.2009 9.45962 69.2009 9.64001C69.2009 9.82041 69.1521 9.99745 69.0596 10.1524C68.9672 10.3073 68.8346 10.4343 68.6759 10.52L65.3459 12.44C65.2159 12.52 65.1559 12.6 65.1459 12.65C65.1359 12.7 65.1459 12.76 65.2259 12.79C66.3378 13.928 67.2686 15.2298 67.9859 16.65C68.1108 16.7867 68.2671 16.8909 68.4413 16.9537C68.6156 17.0164 68.8025 17.0357 68.9859 17.01H73.6859C74.2144 16.9828 74.7322 17.1662 75.1259 17.52C75.2154 17.6033 75.2872 17.7038 75.337 17.8155C75.3869 17.9272 75.4137 18.0477 75.4159 18.17V25.25C75.4159 25.91 74.6758 26.41 73.6859 26.41H68.9859C68.8025 26.3843 68.6156 26.4036 68.4413 26.4663C68.2671 26.5291 68.1108 26.6333 67.9859 26.77C67.2686 28.1902 66.3378 29.492 65.2259 30.63C65.2035 30.6465 65.1849 30.6675 65.1711 30.6916C65.1574 30.7157 65.1488 30.7424 65.1459 30.77C65.1459 30.82 65.2159 30.9 65.3559 30.98L68.6759 32.9C68.8449 32.9781 68.9887 33.1019 69.0912 33.2574C69.1937 33.4129 69.2507 33.5939 69.2559 33.78C69.2453 33.9648 69.1861 34.1435 69.0843 34.2981C68.9824 34.4526 68.8415 34.5775 68.6759 34.66L60.0059 39.66C59.6518 39.8424 59.2592 39.9376 58.8609 39.9376C58.4625 39.9376 58.07 39.8424 57.7159 39.66L54.3859 37.74C53.9735 37.5425 53.5012 37.5103 53.0659 37.65C50.922 38.3382 48.729 38.8631 46.5059 39.22C46.0659 39.29 45.8159 39.49 45.8159 39.6V42.32C45.7859 42.98 45.0459 43.47 44.0559 43.47ZM22.2559 36.82C22.5238 36.8192 22.7902 36.8597 23.0459 36.94C25.1594 37.6077 27.3184 38.1224 29.5059 38.48C30.2959 38.61 30.8159 39.06 30.8159 39.6V42.32C30.8159 42.46 31.1959 42.72 31.8159 42.72H44.0659C44.6759 42.72 45.0659 42.46 45.0659 42.32V39.6C45.0659 39.06 45.5959 38.6 46.3759 38.48C48.5636 38.1235 50.7226 37.6088 52.8359 36.94C53.1515 36.836 53.4846 36.7957 53.8159 36.8215C54.1472 36.8472 54.4701 36.9385 54.7659 37.09L58.0959 39.01C58.3353 39.1282 58.5988 39.1897 58.8659 39.1897C59.1329 39.1897 59.3964 39.1282 59.6359 39.01L68.2959 34.01C68.4559 33.92 68.5059 33.83 68.5059 33.78C68.5059 33.73 68.5059 33.64 68.2959 33.55L64.9759 31.63C64.8265 31.5614 64.6964 31.4571 64.597 31.3263C64.4976 31.1955 64.4319 31.0422 64.4059 30.88C64.3874 30.7386 64.4033 30.5949 64.452 30.4609C64.5007 30.3269 64.5809 30.2065 64.6859 30.11C65.7427 29.0264 66.6294 27.789 67.3159 26.44C67.4909 26.174 67.7352 25.9608 68.0224 25.8233C68.3096 25.6859 68.6289 25.6294 68.9459 25.66H73.6459C74.2559 25.66 74.6459 25.39 74.6459 25.25V18.17C74.644 18.146 74.6367 18.1228 74.6246 18.102C74.6124 18.0812 74.5958 18.0635 74.5759 18.05C74.3194 17.8432 73.9948 17.7397 73.6659 17.76H68.9659C68.6489 17.7906 68.3296 17.7341 68.0424 17.5967C67.7552 17.4592 67.5109 17.246 67.3359 16.98C66.6494 15.631 65.7627 14.3936 64.7059 13.31C64.6009 13.2135 64.5207 13.0931 64.472 12.9591C64.4233 12.8251 64.4074 12.6814 64.4259 12.54C64.4519 12.3778 64.5176 12.2245 64.617 12.0937C64.7164 11.9629 64.8465 11.8586 64.9958 11.79L68.3259 9.87C68.4759 9.77999 68.5359 9.69001 68.5359 9.64001C68.5359 9.59001 68.4759 9.5 68.3159 9.41L59.6559 4.41C59.4164 4.29183 59.1529 4.23035 58.8859 4.23035C58.6188 4.23035 58.3553 4.29183 58.1159 4.41L54.7859 6.33002C54.1872 6.63176 53.4939 6.68564 52.8559 6.48001C50.7426 5.81117 48.5836 5.29647 46.3959 4.94C45.6159 4.81 45.0859 4.36001 45.0859 3.82001V1.10001C45.0859 0.960006 44.7159 0.700012 44.0859 0.700012H31.8459C31.2359 0.700012 30.8459 0.960006 30.8459 1.10001V3.82001C30.8459 4.36001 30.3259 4.82 29.5359 4.94C27.3486 5.29875 25.1897 5.8134 23.0759 6.48001C22.762 6.5843 22.4304 6.62476 22.1007 6.599C21.771 6.57324 21.4497 6.48178 21.1559 6.33002L17.8459 4.41C17.6064 4.29183 17.3429 4.23035 17.0759 4.23035C16.8088 4.23035 16.5453 4.29183 16.3059 4.41L7.63586 9.41C7.48586 9.5 7.42586 9.59001 7.42586 9.64001C7.42586 9.69001 7.48586 9.77999 7.63586 9.87L10.9159 11.82C11.0605 11.895 11.1866 12.0012 11.2852 12.1309C11.3838 12.2606 11.4523 12.4106 11.4859 12.57C11.5018 12.7113 11.4849 12.8543 11.4363 12.9879C11.3877 13.1215 11.3088 13.242 11.2059 13.34C10.1463 14.4213 9.25926 15.6591 8.57586 17.01C8.40005 17.2752 8.15562 17.4878 7.8686 17.6252C7.58157 17.7625 7.26268 17.8195 6.94585 17.79H2.23586C1.63586 17.79 1.23586 18.06 1.23586 18.2V25.28C1.23586 25.42 1.61586 25.69 2.23586 25.69H6.94585C7.26268 25.6605 7.58157 25.7175 7.8686 25.8549C8.15562 25.9922 8.40005 26.2048 8.57586 26.47C9.25926 27.8209 10.1463 29.0587 11.2059 30.14C11.3101 30.237 11.3899 30.3574 11.4386 30.4913C11.4872 30.6252 11.5034 30.7687 11.4859 30.91C11.4544 31.0702 11.3866 31.2211 11.2878 31.3511C11.189 31.4811 11.0618 31.5868 10.9159 31.66L7.58585 33.58C7.43585 33.67 7.37585 33.76 7.37585 33.81C7.37585 33.86 7.43585 33.95 7.58585 34.04L16.2559 39.04C16.4953 39.1582 16.7588 39.2197 17.0259 39.2197C17.2929 39.2197 17.5564 39.1582 17.7959 39.04L21.1259 37.12C21.4704 36.9243 21.8596 36.821 22.2559 36.82Z" fill="#1E1E1E"/>
<path d="M73.6143 38.3701H68.9143C68.8253 38.3555 68.7444 38.3098 68.6861 38.2411C68.6277 38.1724 68.5957 38.0852 68.5957 37.9951C68.5957 37.9049 68.6277 37.8177 68.6861 37.7491C68.7444 37.6804 68.8253 37.6346 68.9143 37.6201H73.6143C74.2243 37.6201 74.6143 37.3601 74.6143 37.2101V25.2101C74.6143 25.1093 74.6543 25.0126 74.7256 24.9414C74.7968 24.8701 74.8935 24.8301 74.9943 24.8301C75.0437 24.8301 75.0927 24.8399 75.1382 24.8592C75.1838 24.8784 75.225 24.9065 75.2595 24.942C75.294 24.9774 75.321 25.0193 75.339 25.0654C75.357 25.1115 75.3656 25.1607 75.3643 25.2101V37.2101C75.3443 37.8701 74.6043 38.3701 73.6143 38.3701Z" fill="#1E1E1E"/>
<path d="M44.0543 55.4402H31.8443C30.8443 55.4402 30.1043 54.9402 30.1043 54.2802V51.5702C30.1043 51.4602 29.8643 51.2602 29.4243 51.1902C27.1966 50.8231 24.9978 50.2984 22.8443 49.6202C22.4088 49.4815 21.9369 49.5137 21.5243 49.7102L18.2043 51.6302C17.8484 51.8127 17.4542 51.9079 17.0543 51.9079C16.6544 51.9079 16.2602 51.8127 15.9043 51.6302L7.2443 46.6302C7.07489 46.5543 6.92996 46.4327 6.82576 46.279C6.72156 46.1254 6.66219 45.9457 6.6543 45.7602C6.65426 45.6611 6.69292 45.5659 6.76204 45.495C6.83115 45.424 6.92526 45.3828 7.0243 45.3802C7.12163 45.3827 7.21428 45.4225 7.28313 45.4914C7.35197 45.5602 7.39177 45.6529 7.3943 45.7502C7.3943 45.8002 7.4543 45.8902 7.6043 45.9802L16.2743 50.9802C16.515 51.0941 16.778 51.1532 17.0443 51.1532C17.3106 51.1532 17.5736 51.0941 17.8143 50.9802L21.1443 49.0602C21.7382 48.7557 22.4282 48.6982 23.0643 48.9002C25.1766 49.5749 27.3358 50.0929 29.5243 50.4502C30.3143 50.5702 30.8343 51.0302 30.8343 51.5702V54.2802C30.8343 54.4202 31.2143 54.6902 31.8343 54.6902H44.0843C44.6943 54.6902 45.0843 54.4202 45.0843 54.2802V51.5702C45.0843 51.0302 45.6143 50.5702 46.3943 50.4502C48.5832 50.0952 50.7426 49.5771 52.8543 48.9002C53.493 48.6999 54.1843 48.7536 54.7843 49.0502L58.1143 50.9802C58.3538 51.0984 58.6172 51.1599 58.8843 51.1599C59.1514 51.1599 59.4148 51.0984 59.6543 50.9802L68.3143 45.9802C68.4543 45.9002 68.5443 45.8102 68.5243 45.7402C68.5067 45.6422 68.5282 45.5412 68.5843 45.4589C68.6404 45.3766 68.7266 45.3196 68.8243 45.3002C68.9223 45.2826 69.0233 45.3041 69.1056 45.3602C69.1879 45.4164 69.2449 45.5025 69.2643 45.6002C69.2839 45.8053 69.2396 46.0115 69.1376 46.1904C69.0356 46.3694 68.8808 46.5126 68.6943 46.6002L60.0243 51.6002C59.6702 51.7827 59.2776 51.8778 58.8793 51.8778C58.481 51.8778 58.0884 51.7827 57.7343 51.6002L54.4043 49.6702C53.9917 49.4719 53.5178 49.4432 53.0843 49.5902C50.9378 50.2691 48.7456 50.7938 46.5243 51.1602C46.0843 51.2302 45.8343 51.4302 45.8343 51.5402V54.2502C45.7843 54.9402 45.0443 55.4402 44.0543 55.4402Z" fill="#1E1E1E"/>
<path d="M6.94499 38.37H2.235C1.235 38.37 0.505 37.87 0.505 37.21V25.21C0.496091 25.1556 0.499113 25.1 0.513858 25.0469C0.528603 24.9938 0.554715 24.9446 0.590388 24.9026C0.626062 24.8606 0.670439 24.8268 0.720447 24.8037C0.770455 24.7805 0.8249 24.7686 0.88 24.7686C0.9351 24.7686 0.989538 24.7805 1.03955 24.8037C1.08955 24.8268 1.13393 24.8606 1.1696 24.9026C1.20528 24.9446 1.23139 24.9938 1.24613 25.0469C1.26088 25.1 1.26391 25.1556 1.255 25.21V37.21C1.255 37.36 1.635 37.62 2.255 37.62H6.94499C7.03394 37.6346 7.11481 37.6803 7.17317 37.749C7.23152 37.8177 7.26355 37.9049 7.26355 37.995C7.26355 38.0851 7.23152 38.1723 7.17317 38.241C7.11481 38.3097 7.03394 38.3554 6.94499 38.37Z" fill="#1E1E1E"/>
<path d="M52.8457 30.6799C52.7801 30.6804 52.7156 30.663 52.6592 30.6295C52.6028 30.596 52.5567 30.5478 52.5257 30.4899C52.4991 30.4484 52.4812 30.4018 52.4734 30.3531C52.4655 30.3043 52.4677 30.2545 52.4799 30.2067C52.4921 30.1589 52.514 30.114 52.5442 30.075C52.5745 30.036 52.6124 30.0037 52.6557 29.9799C56.5157 27.7499 58.6557 24.8199 58.6557 21.7099C58.6557 18.5999 56.5357 15.7099 52.6557 13.4399C52.6124 13.4162 52.5745 13.3838 52.5442 13.3448C52.514 13.3058 52.4921 13.261 52.4799 13.2132C52.4677 13.1654 52.4655 13.1155 52.4734 13.0668C52.4812 13.0181 52.4991 12.9715 52.5257 12.9299C52.5496 12.8868 52.5819 12.849 52.6206 12.8186C52.6593 12.7881 52.7038 12.7657 52.7513 12.7527C52.7988 12.7397 52.8484 12.7362 52.8972 12.7426C52.9461 12.749 52.9932 12.7651 53.0357 12.7899C57.1257 15.1599 59.3857 18.3199 59.3857 21.7099C59.3857 25.0999 57.1257 28.2599 53.0357 30.6299C52.9768 30.6604 52.9119 30.6775 52.8457 30.6799Z" fill="#1E1E1E"/>
<path d="M16.8942 21.5899C16.8447 21.5874 16.7962 21.575 16.7516 21.5534C16.707 21.5317 16.6672 21.5014 16.6345 21.4641C16.6019 21.4268 16.5771 21.3833 16.5615 21.3362C16.546 21.2891 16.5401 21.2393 16.5442 21.1899C16.7742 17.9999 19.0242 15.0199 22.8842 12.7899C22.9268 12.7651 22.9739 12.749 23.0227 12.7426C23.0715 12.7362 23.1212 12.7397 23.1687 12.7527C23.2162 12.7657 23.2606 12.7881 23.2993 12.8186C23.3381 12.849 23.3703 12.8868 23.3942 12.9299C23.4191 12.9725 23.4351 13.0196 23.4415 13.0684C23.4479 13.1173 23.4445 13.1669 23.4315 13.2144C23.4184 13.2619 23.396 13.3063 23.3656 13.345C23.3352 13.3838 23.2973 13.416 23.2542 13.4399C19.6142 15.5399 17.5042 18.3099 17.2542 21.2399C17.2492 21.3329 17.2094 21.4205 17.1427 21.4853C17.076 21.5502 16.9873 21.5875 16.8942 21.5899Z" fill="#1E1E1E"/>
<path d="M37.9253 31.5001C33.8407 31.5803 29.8033 30.6166 26.1953 28.7001C22.9953 26.8501 21.1953 24.3701 21.1953 21.7001C21.1953 19.0301 22.9553 16.5601 26.1953 14.7001C32.6653 10.9701 43.1953 10.9701 49.6553 14.7001C52.8653 16.5501 54.6553 19.0301 54.6553 21.7001C54.6553 24.3701 52.8953 26.8401 49.6553 28.7001C46.0483 30.6191 42.0102 31.583 37.9253 31.5001ZM37.9253 12.6601C33.9728 12.5808 30.0657 13.5137 26.5753 15.3701C23.5753 17.0801 21.9853 19.3701 21.9853 21.7101C21.9853 24.0501 23.6153 26.3401 26.5753 28.0501C32.8353 31.6601 43.0253 31.6601 49.2853 28.0501C52.2853 26.3401 53.8753 24.0501 53.8753 21.7101C53.8753 19.3701 52.2453 17.0801 49.2853 15.3701C45.7918 13.5124 41.8812 12.5795 37.9253 12.6601Z" fill="#1E1E1E"/>
<path d="M23.8447 26.82C23.7944 26.8222 23.7443 26.8135 23.6977 26.7945C23.6511 26.7755 23.6091 26.7467 23.5747 26.71C23.5393 26.6756 23.5112 26.6343 23.492 26.5888C23.4728 26.5433 23.4629 26.4944 23.4629 26.445C23.4629 26.3956 23.4728 26.3467 23.492 26.3012C23.5112 26.2557 23.5393 26.2145 23.5747 26.18C24.3738 25.4 25.2714 24.7276 26.2447 24.18C32.7147 20.44 43.2447 20.44 49.7047 24.18C50.6815 24.7268 51.5825 25.3992 52.3847 26.18C52.4514 26.2521 52.4885 26.3468 52.4885 26.445C52.4885 26.5433 52.4514 26.6379 52.3847 26.71C52.3502 26.7454 52.309 26.7735 52.2635 26.7927C52.218 26.8119 52.1691 26.8218 52.1197 26.8218C52.0703 26.8218 52.0214 26.8119 51.9759 26.7927C51.9304 26.7735 51.8891 26.7454 51.8547 26.71C51.0989 25.9777 50.2519 25.3458 49.3347 24.83C43.0747 21.21 32.8847 21.21 26.6247 24.83C25.7032 25.3433 24.8555 25.9791 24.1047 26.72C24.0343 26.7859 23.9411 26.8218 23.8447 26.82Z" fill="#1E1E1E"/>
<path d="M7.005 15.72C6.90422 15.72 6.80756 15.68 6.7363 15.6087C6.66503 15.5374 6.625 15.4408 6.625 15.34V9.63C6.625 9.52922 6.66503 9.43256 6.7363 9.3613C6.80756 9.29003 6.90422 9.25 7.005 9.25C7.05445 9.24998 7.10339 9.25987 7.14894 9.27908C7.1945 9.2983 7.23574 9.32645 7.27023 9.36188C7.30472 9.3973 7.33177 9.4393 7.34976 9.48535C7.36776 9.5314 7.37634 9.58058 7.375 9.63V15.34C7.37634 15.3894 7.36776 15.4386 7.34976 15.4847C7.33177 15.5307 7.30472 15.5727 7.27023 15.6081C7.23574 15.6435 7.1945 15.6717 7.14894 15.6909C7.10339 15.7101 7.05445 15.72 7.005 15.72Z" fill="#1E1E1E"/>
<path d="M68.8459 15.7202C68.7452 15.7202 68.6485 15.6801 68.5772 15.6089C68.506 15.5376 68.4659 15.4409 68.4659 15.3401V9.63016C68.457 9.57578 68.4601 9.52013 68.4748 9.46704C68.4895 9.41395 68.5157 9.36469 68.5513 9.32269C68.587 9.2807 68.6314 9.24698 68.6814 9.22385C68.7314 9.20071 68.7858 9.18872 68.8409 9.18872C68.896 9.18872 68.9505 9.20071 69.0005 9.22385C69.0505 9.24698 69.0949 9.2807 69.1305 9.32269C69.1662 9.36469 69.1923 9.41395 69.2071 9.46704C69.2218 9.52013 69.2248 9.57578 69.2159 9.63016V15.3401C69.216 15.4392 69.1773 15.5344 69.1082 15.6054C69.0391 15.6764 68.945 15.7175 68.8459 15.7202Z" fill="#1E1E1E"/>
<path d="M45.4143 51.9401C45.3152 51.9402 45.22 51.9015 45.1491 51.8324C45.0781 51.7633 45.0369 51.6692 45.0343 51.5701V42.3201C45.0254 42.2658 45.0284 42.2101 45.0432 42.157C45.0579 42.1039 45.084 42.0547 45.1197 42.0127C45.1554 41.9707 45.1997 41.937 45.2497 41.9138C45.2998 41.8907 45.3542 41.8787 45.4093 41.8787C45.4644 41.8787 45.5188 41.8907 45.5688 41.9138C45.6189 41.937 45.6632 41.9707 45.6989 42.0127C45.7346 42.0547 45.7607 42.1039 45.7754 42.157C45.7902 42.2101 45.7932 42.2658 45.7843 42.3201V51.5701C45.7818 51.6675 45.742 51.7601 45.6731 51.829C45.6043 51.8978 45.5116 51.9376 45.4143 51.9401Z" fill="#1E1E1E"/>
<path d="M30.4445 51.9402C30.3454 51.9402 30.2502 51.9016 30.1792 51.8325C30.1082 51.7633 30.0671 51.6692 30.0645 51.5702V42.3202C30.0645 42.2194 30.1045 42.1228 30.1758 42.0515C30.247 41.9802 30.3437 41.9402 30.4445 41.9402C30.4939 41.9402 30.5428 41.9501 30.5884 41.9693C30.6339 41.9885 30.6752 42.0166 30.7097 42.0521C30.7442 42.0875 30.7712 42.1295 30.7892 42.1755C30.8072 42.2216 30.8158 42.2708 30.8145 42.3202V51.5702C30.8145 51.6188 30.8049 51.6669 30.7863 51.7118C30.7677 51.7567 30.7404 51.7975 30.7061 51.8318C30.6717 51.8662 30.6309 51.8935 30.586 51.912C30.5412 51.9306 30.493 51.9402 30.4445 51.9402Z" fill="#1E1E1E"/>
<path d="M17.9855 48.72C17.8864 48.72 17.7912 48.6813 17.7202 48.6122C17.6493 48.5431 17.6081 48.449 17.6055 48.35V39.35C17.6055 39.2492 17.6455 39.1525 17.7168 39.0813C17.788 39.01 17.8847 38.97 17.9855 38.97C18.0349 38.97 18.0839 38.9798 18.1294 38.9991C18.175 39.0183 18.2162 39.0464 18.2507 39.0818C18.2852 39.1173 18.3122 39.1593 18.3302 39.2053C18.3482 39.2514 18.3568 39.3006 18.3555 39.35V48.35C18.3555 48.4481 18.3165 48.5422 18.2471 48.6116C18.1777 48.681 18.0836 48.72 17.9855 48.72Z" fill="#1E1E1E"/>
<path d="M7.0049 46.1502C6.90677 46.1502 6.81266 46.1112 6.74327 46.0418C6.67388 45.9724 6.6349 45.8783 6.6349 45.7802V33.7802C6.63356 33.7307 6.64214 33.6815 6.66014 33.6355C6.67813 33.5894 6.70518 33.5475 6.73967 33.5121C6.77416 33.4766 6.8154 33.4485 6.86096 33.4293C6.90651 33.41 6.95546 33.4001 7.0049 33.4001C7.10569 33.4001 7.20234 33.4402 7.2736 33.5114C7.34487 33.5827 7.3849 33.6794 7.3849 33.7802V45.7802C7.38229 45.8792 7.34111 45.9733 7.27012 46.0424C7.19914 46.1115 7.10398 46.1502 7.0049 46.1502Z" fill="#1E1E1E"/>
<path d="M68.8459 46.03C68.7965 46.0313 68.7473 46.0227 68.7013 46.0047C68.6552 45.9867 68.6133 45.9597 68.5778 45.9252C68.5424 45.8907 68.5143 45.8494 68.495 45.8039C68.4758 45.7583 68.4659 45.7094 68.4659 45.66V33.6599C68.457 33.6056 68.4601 33.5499 68.4748 33.4968C68.4895 33.4437 68.5157 33.3945 68.5513 33.3525C68.587 33.3105 68.6314 33.2768 68.6814 33.2536C68.7314 33.2305 68.7858 33.2185 68.8409 33.2185C68.896 33.2185 68.9505 33.2305 69.0005 33.2536C69.0505 33.2768 69.0949 33.3105 69.1305 33.3525C69.1662 33.3945 69.1923 33.4437 69.2071 33.4968C69.2218 33.5499 69.2248 33.6056 69.2159 33.6599V45.66C69.2159 45.7086 69.2064 45.7566 69.1878 45.8015C69.1692 45.8464 69.1419 45.8872 69.1076 45.9216C69.0732 45.9559 69.0324 45.9832 68.9875 46.0018C68.9426 46.0204 68.8945 46.03 68.8459 46.03Z" fill="#1E1E1E"/>
<path d="M52.9249 49.6301C52.8755 49.6315 52.8263 49.6229 52.7803 49.6049C52.7342 49.5869 52.6922 49.5598 52.6568 49.5253C52.6214 49.4908 52.5932 49.4496 52.574 49.4041C52.5548 49.3585 52.5449 49.3096 52.5449 49.2601V40.0001C52.5449 39.8993 52.585 39.8027 52.6562 39.7314C52.7275 39.6602 52.8241 39.6201 52.9249 39.6201C52.9744 39.6201 53.0233 39.63 53.0689 39.6492C53.1144 39.6684 53.1557 39.6966 53.1902 39.732C53.2246 39.7674 53.2517 39.8094 53.2697 39.8555C53.2877 39.9015 53.2963 39.9507 53.2949 40.0001V49.2601C53.2963 49.3091 53.2877 49.3578 53.2696 49.4033C53.2515 49.4488 53.2243 49.4902 53.1896 49.5248C53.155 49.5595 53.1137 49.5867 53.0681 49.6048C53.0226 49.6229 52.9739 49.6315 52.9249 49.6301Z" fill="#1E1E1E"/>
</svg>
