<svg width="77" height="78" viewBox="0 0 77 78" fill="none" xmlns="http://www.w3.org/2000/svg">
<path d="M49.5392 69.2533C42.5392 69.2533 35.5992 67.7233 30.2992 64.6533C25.8492 62.0833 23.1192 58.8133 22.3992 55.1733C22.39 55.1254 22.3904 55.0761 22.4002 55.0283C22.4101 54.9805 22.4292 54.9351 22.4566 54.8947C22.484 54.8544 22.5191 54.8197 22.5599 54.7929C22.6006 54.7661 22.6463 54.7475 22.6942 54.7383C22.7422 54.7291 22.7914 54.7295 22.8392 54.7393C22.887 54.7492 22.9324 54.7684 22.9728 54.7957C23.0132 54.8231 23.0478 54.8582 23.0747 54.899C23.1015 54.9398 23.12 54.9854 23.1292 55.0333C23.8092 58.4433 26.4192 61.5433 30.6692 64.0333C41.0792 70.0333 57.9992 70.0333 68.4092 64.0333C73.0092 61.3833 75.7292 57.8733 76.0792 54.1633C76.3792 50.9233 74.8092 47.6533 71.6592 44.9633C71.5925 44.8912 71.5554 44.7966 71.5554 44.6983C71.5554 44.6001 71.5925 44.5054 71.6592 44.4333C71.6937 44.3979 71.7349 44.3698 71.7804 44.3506C71.8259 44.3314 71.8748 44.3215 71.9242 44.3215C71.9736 44.3215 72.0225 44.3314 72.068 44.3506C72.1136 44.3698 72.1548 44.3979 72.1892 44.4333C75.5292 47.2933 77.1892 50.7833 76.8592 54.2733C76.4892 58.2733 73.6392 61.9433 68.8592 64.7233C63.4792 67.6933 56.5092 69.2533 49.5392 69.2533Z" fill="#1E1E1E"/>
<path d="M49.5407 77.1234C42.5407 77.1234 35.6007 75.5934 30.3007 72.5334C25.0007 69.4734 22.2207 65.5334 22.2207 61.2034V54.9334C22.2207 54.8353 22.2597 54.7411 22.3291 54.6718C22.3985 54.6024 22.4926 54.5634 22.5907 54.5634C22.6898 54.5634 22.7849 54.602 22.8559 54.6711C22.9269 54.7403 22.9681 54.8343 22.9707 54.9334V61.2534C22.9707 65.2534 25.7007 69.0634 30.6707 71.9334C41.0807 77.9334 58.0007 77.9334 68.4107 71.9334C73.4107 69.0634 76.1107 65.2734 76.1107 61.2534V53.4334C76.1018 53.379 76.1048 53.3234 76.1196 53.2703C76.1343 53.2172 76.1604 53.1679 76.1961 53.1259C76.2318 53.0839 76.2761 53.0502 76.3261 53.0271C76.3762 53.0039 76.4306 52.9919 76.4857 52.9919C76.5408 52.9919 76.5952 53.0039 76.6453 53.0271C76.6953 53.0502 76.7396 53.0839 76.7753 53.1259C76.811 53.1679 76.8371 53.2172 76.8518 53.2703C76.8666 53.3234 76.8696 53.379 76.8607 53.4334V61.2534C76.8607 65.5434 73.9907 69.5734 68.7807 72.5834C63.5707 75.5934 56.5107 77.1234 49.5407 77.1234Z" fill="#1E1E1E"/>
<path d="M49.63 66.6034C49.5292 66.6034 49.4326 66.5634 49.3613 66.4921C49.29 66.4209 49.25 66.3242 49.25 66.2234C49.25 66.174 49.2599 66.125 49.2791 66.0795C49.2983 66.0339 49.3265 65.9927 49.3619 65.9582C49.3973 65.9237 49.4393 65.8967 49.4853 65.8787C49.5314 65.8607 49.5806 65.8521 49.63 65.8534C55.044 65.951 60.3932 64.6636 65.17 62.1134C65.2126 62.0886 65.2596 62.0725 65.3085 62.0661C65.3573 62.0597 65.4069 62.0631 65.4544 62.0762C65.5019 62.0892 65.5464 62.1116 65.5851 62.1421C65.6238 62.1725 65.6561 62.2104 65.68 62.2534C65.7048 62.296 65.7209 62.3431 65.7273 62.3919C65.7337 62.4407 65.7303 62.4904 65.7172 62.5379C65.7042 62.5854 65.6818 62.6298 65.6514 62.6685C65.6209 62.7073 65.5831 62.7395 65.54 62.7634C60.6506 65.3785 55.1739 66.7003 49.63 66.6034Z" fill="#1E1E1E"/>
<path d="M44.9906 54.2533C37.9206 54.2533 30.9906 52.6633 25.7206 49.6433C20.4506 46.6233 17.6406 42.6433 17.6406 38.3233C17.6406 34.0033 20.5106 30.0033 25.7206 26.9933C36.3306 20.8733 53.5906 20.8733 64.2006 26.9933C69.4106 29.9933 72.2806 33.9933 72.2806 38.3233C72.2806 42.6533 69.4106 46.6333 64.2006 49.6433C63.4606 50.0733 62.6706 50.4833 61.8506 50.8633C61.7588 50.9013 61.6559 50.9029 61.5629 50.8676C61.47 50.8322 61.394 50.7628 61.3506 50.6733C61.3098 50.5845 61.3058 50.483 61.3395 50.3912C61.3732 50.2994 61.4419 50.2246 61.5306 50.1833C62.3306 49.8133 63.1006 49.4133 63.8306 48.9933C68.8306 46.1333 71.5306 42.3333 71.5306 38.3233C71.5306 34.3133 68.8006 30.5133 63.8306 27.6433C53.4306 21.6433 36.5006 21.6433 26.0906 27.6433C21.0906 30.5133 18.3906 34.3033 18.3906 38.3233C18.3906 42.3433 21.1206 46.1333 26.0906 48.9933C34.0906 53.6233 46.3606 54.8233 56.5806 51.9933C56.6761 51.9668 56.7782 51.9793 56.8645 52.028C56.9507 52.0768 57.0141 52.1579 57.0406 52.2533C57.0671 52.3488 57.0546 52.4509 57.0059 52.5372C56.9571 52.6234 56.8761 52.6868 56.7806 52.7133C52.9381 53.7564 48.9721 54.2745 44.9906 54.2533Z" fill="#1E1E1E"/>
<path d="M44.9598 62.1733C37.9598 62.1733 31.0198 60.6433 25.7198 57.5833C20.4198 54.5233 17.6398 50.5833 17.6398 46.2533V38.3633C17.6309 38.3089 17.6339 38.2533 17.6486 38.2002C17.6634 38.1471 17.6895 38.0979 17.7252 38.0559C17.7608 38.0139 17.8052 37.9801 17.8552 37.957C17.9052 37.9339 17.9597 37.9219 18.0148 37.9219C18.0699 37.9219 18.1243 37.9339 18.1743 37.957C18.2243 37.9801 18.2687 38.0139 18.3044 38.0559C18.3401 38.0979 18.3662 38.1471 18.3809 38.2002C18.3957 38.2533 18.3987 38.3089 18.3898 38.3633V46.2533C18.3898 50.2533 21.1198 54.0633 26.0898 56.9333C36.4998 62.9333 53.4198 62.9333 63.8298 56.9333C68.8298 54.0633 71.5298 50.2733 71.5298 46.2533V38.4333C71.5298 38.3325 71.5698 38.2359 71.6411 38.1646C71.7123 38.0933 71.809 38.0533 71.9098 38.0533C71.9592 38.0533 72.0082 38.0632 72.0537 38.0824C72.0993 38.1016 72.1405 38.1298 72.175 38.1652C72.2095 38.2006 72.2365 38.2426 72.2545 38.2887C72.2725 38.3347 72.2811 38.3839 72.2798 38.4333V46.2533C72.2798 50.5533 69.4098 54.5733 64.1998 57.5833C58.9898 60.5933 51.9298 62.1733 44.9598 62.1733Z" fill="#1E1E1E"/>
<path d="M54.0605 45.5035C53.9943 45.5011 53.9294 45.484 53.8705 45.4536L50.2905 43.3835C50.2043 43.3345 50.1412 43.2532 50.1149 43.1575C50.0886 43.0619 50.1015 42.9597 50.1505 42.8735C50.1996 42.7873 50.2809 42.7242 50.3765 42.6979C50.4722 42.6717 50.5743 42.6845 50.6605 42.7336L54.2505 44.8035C54.2936 44.8274 54.3315 44.8597 54.3619 44.8984C54.3923 44.9372 54.4147 44.9816 54.4278 45.0291C54.4408 45.0766 54.4442 45.1262 54.4378 45.1751C54.4314 45.2239 54.4154 45.271 54.3905 45.3135C54.3563 45.3708 54.3081 45.4183 54.2503 45.4515C54.1925 45.4848 54.1272 45.5027 54.0605 45.5035Z" fill="#1E1E1E"/>
<path d="M56.6802 43.9934C56.614 43.991 56.5491 43.9739 56.4902 43.9434L52.9102 41.8734C52.8245 41.8214 52.7621 41.7383 52.7361 41.6415C52.71 41.5446 52.7222 41.4415 52.7702 41.3534C52.822 41.2701 52.904 41.2101 52.9991 41.1858C53.0941 41.1616 53.1949 41.1751 53.2802 41.2234L56.8702 43.2934C56.9133 43.3174 56.9512 43.3496 56.9816 43.3884C57.012 43.4271 57.0344 43.4715 57.0475 43.519C57.0605 43.5665 57.0639 43.6161 57.0575 43.665C57.0511 43.7138 57.0351 43.7609 57.0102 43.8034C56.976 43.8607 56.9278 43.9082 56.87 43.9415C56.8122 43.9747 56.7469 43.9926 56.6802 43.9934Z" fill="#1E1E1E"/>
<path d="M39.1297 40.9434C37.8764 40.965 36.638 40.6691 35.5297 40.0833C35.0588 39.9105 34.6522 39.5973 34.365 39.1859C34.0778 38.7746 33.9238 38.285 33.9238 37.7834C33.9238 37.2817 34.0778 36.7921 34.365 36.3808C34.6522 35.9694 35.0588 35.6562 35.5297 35.4834L40.3597 32.7034C41.475 32.1361 42.7085 31.8403 43.9597 31.8403C45.211 31.8403 46.4445 32.1361 47.5597 32.7034C47.6024 32.7277 47.6399 32.7601 47.67 32.7989C47.7002 32.8377 47.7224 32.882 47.7354 32.9294C47.7484 32.9767 47.7519 33.0262 47.7458 33.0749C47.7397 33.1236 47.724 33.1707 47.6997 33.2133C47.6754 33.256 47.643 33.2935 47.6042 33.3236C47.5654 33.3538 47.5211 33.376 47.4737 33.389C47.4264 33.402 47.3769 33.4055 47.3282 33.3994C47.2795 33.3933 47.2324 33.3777 47.1897 33.3534C46.1905 32.8457 45.0855 32.5811 43.9647 32.5811C42.8439 32.5811 41.739 32.8457 40.7397 33.3534L35.9097 36.1334C35.5534 36.2382 35.2406 36.4556 35.0182 36.7531C34.7957 37.0505 34.6754 37.4119 34.6754 37.7834C34.6754 38.1548 34.7957 38.5162 35.0182 38.8137C35.2406 39.1111 35.5534 39.3285 35.9097 39.4333C36.9097 39.9387 38.0144 40.202 39.1347 40.202C40.2551 40.202 41.3598 39.9387 42.3597 39.4333L44.7697 38.0334C44.8578 37.9854 44.9609 37.9731 45.0578 37.9992C45.1546 38.0253 45.2377 38.0877 45.2897 38.1734C45.3146 38.2159 45.3306 38.263 45.337 38.3118C45.3434 38.3607 45.34 38.4103 45.327 38.4578C45.3139 38.5053 45.2915 38.5497 45.2611 38.5884C45.2307 38.6272 45.1928 38.6594 45.1497 38.6833L42.7297 40.0833C41.6224 40.6716 40.3833 40.9676 39.1297 40.9434Z" fill="#1E1E1E"/>
<path d="M45.9594 44.8833C44.706 44.9062 43.4672 44.6103 42.3594 44.0233C42.2737 43.9712 42.2114 43.8882 42.1853 43.7914C42.1592 43.6945 42.1714 43.5913 42.2194 43.5033C42.2712 43.42 42.3532 43.36 42.4483 43.3357C42.5433 43.3115 42.6441 43.3249 42.7294 43.3733C43.7301 43.8763 44.8345 44.1383 45.9544 44.1383C47.0744 44.1383 48.1788 43.8763 49.1794 43.3733L54.0094 40.5833C54.3618 40.4757 54.6703 40.2578 54.8895 39.9616C55.1088 39.6655 55.2271 39.3067 55.2271 38.9383C55.2271 38.5698 55.1088 38.2111 54.8895 37.915C54.6703 37.6188 54.3618 37.4009 54.0094 37.2933C53.0102 36.7856 51.9052 36.521 50.7844 36.521C49.6636 36.521 48.5587 36.7856 47.5594 37.2933L45.1494 38.6833C45.1069 38.7081 45.0598 38.7242 45.011 38.7306C44.9621 38.737 44.9125 38.7336 44.865 38.7205C44.8175 38.7075 44.7731 38.6851 44.7343 38.6547C44.6956 38.6242 44.6633 38.5864 44.6394 38.5433C44.6142 38.5014 44.5975 38.4548 44.5904 38.4064C44.5833 38.3579 44.5859 38.3086 44.5979 38.2611C44.61 38.2137 44.6314 38.1691 44.6609 38.13C44.6903 38.0909 44.7272 38.058 44.7694 38.0333L47.1894 36.6433C48.3047 36.076 49.5382 35.7803 50.7894 35.7803C52.0407 35.7803 53.2742 36.076 54.3894 36.6433C54.8571 36.8181 55.2602 37.1315 55.5448 37.5416C55.8293 37.9518 55.9818 38.4391 55.9818 38.9383C55.9818 39.4375 55.8293 39.9248 55.5448 40.335C55.2602 40.7451 54.8571 41.0586 54.3894 41.2333L49.5594 44.0233C48.4517 44.6103 47.2129 44.9062 45.9594 44.8833Z" fill="#1E1E1E"/>
<path d="M36.8201 35.5534C36.7571 35.5508 36.6955 35.5337 36.6401 35.5034L33.0501 33.4334C32.9651 33.3832 32.903 33.3019 32.8768 33.2067C32.8507 33.1116 32.8626 33.01 32.9101 32.9234C32.9622 32.8377 33.0452 32.7753 33.1421 32.7493C33.2389 32.7232 33.3421 32.7354 33.4301 32.7834L37.0101 34.8534C37.0532 34.8773 37.0911 34.9096 37.1215 34.9483C37.1519 34.9871 37.1743 35.0315 37.1874 35.079C37.2004 35.1265 37.2038 35.1761 37.1974 35.2249C37.191 35.2738 37.175 35.3208 37.1501 35.3634C37.1159 35.4206 37.0677 35.4682 37.0099 35.5014C36.9521 35.5347 36.8868 35.5526 36.8201 35.5534Z" fill="#1E1E1E"/>
<path d="M39.4393 34.0435C39.3763 34.0409 39.3147 34.0237 39.2593 33.9934L35.6693 31.9235C35.626 31.8985 35.588 31.8653 35.5575 31.8256C35.527 31.786 35.5046 31.7407 35.4916 31.6924C35.4786 31.6442 35.4752 31.5938 35.4817 31.5442C35.4882 31.4946 35.5044 31.4468 35.5293 31.4034C35.5543 31.3601 35.5875 31.3221 35.6271 31.2916C35.6668 31.2611 35.712 31.2387 35.7603 31.2257C35.8086 31.2127 35.859 31.2094 35.9086 31.2158C35.9581 31.2223 36.006 31.2385 36.0493 31.2635L39.6293 33.3334C39.7022 33.3751 39.7593 33.4396 39.7916 33.5171C39.8239 33.5946 39.8297 33.6806 39.808 33.7617C39.7863 33.8428 39.7383 33.9144 39.6716 33.9654C39.6049 34.0163 39.5232 34.0438 39.4393 34.0435Z" fill="#1E1E1E"/>
<path d="M23.6199 42.6134C23.5516 42.6148 23.4843 42.5968 23.4258 42.5613C23.3674 42.5259 23.3202 42.4746 23.2899 42.4134C22.5991 41.1962 22.2293 39.8233 22.2153 38.4237C22.2013 37.0242 22.5435 35.6442 23.2099 34.4134C23.2566 34.3275 23.3347 34.263 23.4278 34.2332C23.5209 34.2034 23.622 34.2106 23.7099 34.2534C23.7546 34.2756 23.7944 34.3065 23.8269 34.3445C23.8594 34.3824 23.8838 34.4266 23.8988 34.4742C23.9137 34.5219 23.9189 34.5721 23.9139 34.6218C23.9089 34.6715 23.894 34.7197 23.8699 34.7634C23.2601 35.879 22.9472 37.1326 22.9613 38.4038C22.9753 39.6751 23.3157 40.9215 23.9499 42.0234C23.9961 42.1096 24.0062 42.2107 23.9781 42.3044C23.95 42.3981 23.8859 42.4768 23.7999 42.5234C23.7483 42.5679 23.6864 42.5988 23.6199 42.6134Z" fill="#1E1E1E"/>
<path d="M44.96 51.6435C39.3872 51.7526 33.8793 50.4341 28.96 47.8134C28.9169 47.7895 28.879 47.7573 28.8486 47.7185C28.8182 47.6798 28.7958 47.6354 28.7827 47.5879C28.7697 47.5404 28.7663 47.4908 28.7727 47.4419C28.7791 47.3931 28.7951 47.346 28.82 47.3034C28.8439 47.2604 28.8761 47.2225 28.9149 47.1921C28.9536 47.1616 28.998 47.1393 29.0455 47.1262C29.093 47.1132 29.1427 47.1098 29.1915 47.1161C29.2404 47.1225 29.2874 47.1386 29.33 47.1634C37.95 52.1634 51.97 52.1634 60.59 47.1634C62.8152 45.9864 64.6758 44.2226 65.97 42.0634C68.37 37.6434 66.31 32.8534 60.59 29.5534C51.97 24.5534 37.95 24.5534 29.33 29.5534C29.2874 29.5783 29.2404 29.5944 29.1915 29.6008C29.1427 29.6072 29.093 29.6037 29.0455 29.5907C28.998 29.5777 28.9536 29.5552 28.9149 29.5248C28.8761 29.4944 28.8439 29.4565 28.82 29.4134C28.7951 29.3709 28.7791 29.3238 28.7727 29.275C28.7663 29.2261 28.7697 29.1765 28.7827 29.129C28.7958 29.0815 28.8182 29.0371 28.8486 28.9983C28.879 28.9596 28.9169 28.9273 28.96 28.9034C37.78 23.8134 52.14 23.8134 60.96 28.9034C67.06 32.4334 69.24 37.6134 66.62 42.4134C65.2604 44.6954 63.3033 46.5626 60.96 47.8134C56.0396 50.4312 50.5324 51.7495 44.96 51.6435Z" fill="#1E1E1E"/>
<path d="M18.3495 54.1436C16.0342 54.1903 13.7761 53.4222 11.9695 51.9736C9.04946 49.5936 7.43945 45.4036 7.43945 40.1636C7.43945 27.9136 16.0795 12.9635 26.6895 6.83354C31.8995 3.83354 36.8095 3.35355 40.5395 5.50355C44.2695 7.65355 46.2995 12.1436 46.2995 18.1636C46.2932 19.7376 46.1662 21.3089 45.9195 22.8635C45.9 22.9599 45.8449 23.0453 45.7652 23.1028C45.6855 23.1603 45.587 23.1856 45.4895 23.1736C45.4406 23.1663 45.3937 23.1493 45.3515 23.1236C45.3093 23.0979 45.2726 23.064 45.2437 23.0239C45.2149 22.9839 45.1943 22.9384 45.1832 22.8902C45.1722 22.8421 45.1709 22.7922 45.1795 22.7435C45.4228 21.229 45.5465 19.6976 45.5495 18.1636C45.5495 12.4236 43.6395 8.16356 40.1595 6.16356C36.6795 4.16356 32.0295 4.63354 27.0595 7.49354C16.6595 13.4935 8.18945 28.1636 8.18945 40.1736C8.18945 45.1736 9.69945 49.1735 12.4395 51.4035C13.6394 52.3227 15.0335 52.9555 16.5153 53.2536C17.9971 53.5516 19.5275 53.5072 20.9895 53.1235C21.0374 53.1133 21.0869 53.1128 21.1351 53.1219C21.1833 53.131 21.2292 53.1495 21.2701 53.1765C21.3111 53.2035 21.3462 53.2383 21.3736 53.279C21.4009 53.3197 21.4199 53.3655 21.4295 53.4136C21.4411 53.4616 21.4428 53.5115 21.4343 53.5602C21.4258 53.6089 21.4074 53.6554 21.3802 53.6967C21.353 53.7379 21.3176 53.7732 21.2762 53.8002C21.2347 53.8272 21.1882 53.8453 21.1395 53.8536C20.2219 54.0456 19.2869 54.1428 18.3495 54.1436Z" fill="#1E1E1E"/>
<path d="M13.58 52.9533C13.5208 52.9674 13.4592 52.9674 13.4 52.9533L5.78 48.6933C2.05 46.5433 0 42.0433 0 36.0233C0 28.2833 3.41 19.2533 9.1 11.8833C9.12952 11.843 9.16689 11.8091 9.20986 11.7836C9.25284 11.7582 9.30053 11.7417 9.35005 11.7351C9.39958 11.7286 9.44991 11.7321 9.49802 11.7456C9.54614 11.759 9.59103 11.782 9.63 11.8133C9.70698 11.8761 9.75709 11.9659 9.7701 12.0644C9.7831 12.1629 9.75803 12.2627 9.7 12.3433C4.1 19.5833 0.75 28.4433 0.75 36.0233C0.75 41.7633 2.67 46.0233 6.15 48.0233L13.77 52.2533C13.8131 52.2772 13.8509 52.3095 13.8814 52.3482C13.9118 52.3869 13.9342 52.4314 13.9472 52.4789C13.9603 52.5264 13.9637 52.576 13.9573 52.6249C13.9509 52.6737 13.9348 52.7208 13.91 52.7633C13.8758 52.8205 13.8275 52.868 13.7698 52.9013C13.712 52.9346 13.6467 52.9525 13.58 52.9533Z" fill="#1E1E1E"/>
<path d="M13.4401 7.92337C13.3395 7.92198 13.2431 7.88268 13.1702 7.81336C13.1011 7.74241 13.0625 7.64735 13.0625 7.54837C13.0625 7.44939 13.1011 7.3543 13.1702 7.28336C15.0005 5.50224 17.0385 3.94774 19.2402 2.65335C24.2402 -0.226648 28.9901 -0.786645 32.6601 1.09335C32.7036 1.11556 32.7422 1.14613 32.7738 1.18332C32.8054 1.22051 32.8293 1.26359 32.8442 1.31006C32.8591 1.35653 32.8646 1.40548 32.8605 1.4541C32.8563 1.50272 32.8426 1.55005 32.8202 1.59335C32.799 1.63778 32.769 1.67741 32.732 1.70978C32.6949 1.74215 32.6516 1.76659 32.6048 1.78159C32.5579 1.79658 32.5085 1.80179 32.4595 1.79694C32.4106 1.79208 32.3631 1.77726 32.3202 1.75336C28.8902 0.00335848 24.3202 0.553346 19.6102 3.30335C17.4642 4.56941 15.4769 6.0868 13.6901 7.82337C13.6571 7.85571 13.6181 7.88118 13.5751 7.89835C13.5322 7.91551 13.4864 7.92403 13.4401 7.92337Z" fill="#1E1E1E"/>
<path d="M21.0909 28.9634C20.9919 28.9634 20.8967 28.9248 20.8257 28.8557C20.7547 28.7866 20.7135 28.6925 20.7109 28.5934C20.7857 27.3407 21.1542 26.1231 21.7865 25.0392C22.4188 23.9552 23.2973 23.0351 24.3509 22.3534L29.1809 19.5634C29.5827 19.2791 30.053 19.1071 30.5434 19.0649C31.0337 19.0227 31.5265 19.112 31.9709 19.3234C32.3797 19.6003 32.7061 19.9825 32.9156 20.4296C33.1251 20.8767 33.2098 21.3721 33.1609 21.8634C33.1583 21.9624 33.1171 22.0566 33.0462 22.1257C32.9752 22.1948 32.88 22.2335 32.7809 22.2334C32.6828 22.2334 32.5887 22.1944 32.5193 22.1251C32.4499 22.0557 32.4109 21.9615 32.4109 21.8634C32.4964 21.4993 32.4609 21.1174 32.3098 20.7753C32.1587 20.4333 31.9002 20.1498 31.5735 19.9678C31.2468 19.7858 30.8698 19.7152 30.4994 19.7668C30.129 19.8183 29.7855 19.9891 29.5209 20.2534L24.6909 23.0434C23.7513 23.656 22.9692 24.4813 22.408 25.4525C21.8469 26.4237 21.5224 27.5134 21.4609 28.6334C21.449 28.7236 21.4051 28.8065 21.3372 28.8671C21.2693 28.9276 21.1819 28.9618 21.0909 28.9634Z" fill="#1E1E1E"/>
<path d="M25.5996 22.4134C25.5023 22.4108 25.4096 22.371 25.3408 22.3022C25.2719 22.2333 25.2321 22.1407 25.2296 22.0434V17.9034C25.2207 17.849 25.2237 17.7933 25.2385 17.7402C25.2532 17.6871 25.2793 17.6379 25.315 17.5959C25.3507 17.5539 25.3951 17.5202 25.4451 17.497C25.4951 17.4739 25.5495 17.4619 25.6046 17.4619C25.6597 17.4619 25.7142 17.4739 25.7642 17.497C25.8142 17.5202 25.8585 17.5539 25.8942 17.5959C25.9299 17.6379 25.956 17.6871 25.9708 17.7402C25.9855 17.7933 25.9885 17.849 25.9796 17.9034V22.0434C25.977 22.1424 25.9358 22.2365 25.8648 22.3056C25.7939 22.3747 25.6987 22.4134 25.5996 22.4134Z" fill="#1E1E1E"/>
<path d="M28.2196 20.9035C28.1206 20.9009 28.0265 20.8597 27.9574 20.7887C27.8882 20.7177 27.8496 20.6226 27.8496 20.5235V16.3835C27.8642 16.2946 27.9099 16.2137 27.9786 16.1553C28.0473 16.097 28.1345 16.0649 28.2246 16.0649C28.3147 16.0649 28.4019 16.097 28.4706 16.1553C28.5393 16.2137 28.585 16.2946 28.5996 16.3835V20.5235C28.5996 20.6243 28.5596 20.7209 28.4883 20.7922C28.417 20.8635 28.3204 20.9035 28.2196 20.9035Z" fill="#1E1E1E"/>
<path d="M12.8802 29.1933H12.7602C12.6666 29.1594 12.5901 29.0901 12.5471 29.0004C12.5041 28.9106 12.498 28.8075 12.5302 28.7133C14.0479 24.5074 16.2882 20.5988 19.1502 17.1634C19.2138 17.0878 19.3049 17.0406 19.4033 17.0321C19.5018 17.0237 19.5996 17.0547 19.6751 17.1183C19.7507 17.182 19.7979 17.2731 19.8064 17.3715C19.8148 17.47 19.7838 17.5678 19.7202 17.6434C16.9199 21.0122 14.7271 24.8427 13.2402 28.9633C13.2101 29.0333 13.1597 29.0927 13.0955 29.1337C13.0313 29.1747 12.9563 29.1955 12.8802 29.1933Z" fill="#1E1E1E"/>
<path d="M16.1607 49.1435C16.105 49.1583 16.0464 49.1583 15.9907 49.1435C12.6407 47.4835 10.7207 43.5534 10.7207 38.3334C10.7353 38.2445 10.781 38.1636 10.8497 38.1053C10.9184 38.0469 11.0056 38.0149 11.0957 38.0149C11.1858 38.0149 11.273 38.0469 11.3417 38.1053C11.4104 38.1636 11.4561 38.2445 11.4707 38.3334C11.4707 43.2534 13.2407 46.9434 16.3207 48.4734C16.365 48.4948 16.4046 48.5247 16.4372 48.5615C16.4698 48.5983 16.4948 48.6412 16.5106 48.6878C16.5264 48.7343 16.5328 48.7836 16.5294 48.8326C16.526 48.8817 16.5128 48.9295 16.4907 48.9734C16.4555 49.0283 16.4065 49.073 16.3486 49.1028C16.2906 49.1327 16.2258 49.1467 16.1607 49.1435Z" fill="#1E1E1E"/>
<path d="M42.7298 20.4135C42.6804 20.4135 42.6314 20.4036 42.5859 20.3844C42.5403 20.3652 42.4991 20.337 42.4646 20.3016C42.4301 20.2662 42.403 20.2242 42.385 20.1781C42.3671 20.1321 42.3585 20.0829 42.3598 20.0335C42.3598 15.2935 40.7798 11.7734 37.9098 10.1134C35.0398 8.45344 31.2098 8.85345 27.0998 11.2235C27.0573 11.2483 27.0102 11.2644 26.9613 11.2708C26.9125 11.2771 26.8629 11.2737 26.8154 11.2607C26.7679 11.2476 26.7234 11.2253 26.6847 11.1948C26.646 11.1644 26.6137 11.1265 26.5898 11.0834C26.5423 10.9969 26.5304 10.8953 26.5565 10.8001C26.5827 10.7049 26.6448 10.6236 26.7298 10.5735C31.0698 8.06346 35.1798 7.67344 38.2898 9.46344C41.3998 11.2534 43.1098 15.0135 43.1098 20.0335C43.1098 20.1342 43.0698 20.2309 42.9985 20.3022C42.9272 20.3734 42.8306 20.4135 42.7298 20.4135Z" fill="#1E1E1E"/>
<path d="M40.6391 6.35346C40.5754 6.3557 40.5126 6.33822 40.4591 6.30344L32.3491 1.79346C32.3064 1.76917 32.269 1.73669 32.2388 1.69791C32.2087 1.65914 32.1865 1.61481 32.1735 1.56745C32.1605 1.52009 32.157 1.47064 32.1631 1.42191C32.1692 1.37319 32.1848 1.32613 32.2091 1.28346C32.2334 1.24078 32.2659 1.2033 32.3047 1.17316C32.3434 1.14303 32.3878 1.12083 32.4351 1.10783C32.4825 1.09483 32.5319 1.09128 32.5807 1.09739C32.6294 1.1035 32.6764 1.11918 32.7191 1.14347L40.7891 5.65345C40.8322 5.67736 40.8701 5.70963 40.9005 5.74836C40.9309 5.78709 40.9533 5.8315 40.9664 5.87901C40.9794 5.92651 40.9828 5.97616 40.9764 6.025C40.97 6.07384 40.954 6.12091 40.9291 6.16346C40.8987 6.21535 40.8567 6.2595 40.8064 6.29246C40.7561 6.32542 40.6988 6.3463 40.6391 6.35346Z" fill="#1E1E1E"/>
</svg>
