<svg width="159" height="160" viewBox="0 0 159 160" fill="none" xmlns="http://www.w3.org/2000/svg">
<path d="M51.5244 84.4104C53.8776 87.5227 56.9867 89.9824 60.5569 91.5564C64.1271 93.1304 68.0401 93.7665 71.9251 93.4045C75.81 93.0425 79.5381 91.6943 82.756 89.4878C85.9739 87.2812 88.575 84.2894 90.3127 80.796C92.0503 77.3025 92.867 73.4232 92.6854 69.5256C92.5037 65.6281 91.3296 61.8415 89.2745 58.5248C87.2193 55.2082 84.3512 52.4714 80.942 50.5738C77.5327 48.6761 73.6954 47.6807 69.7936 47.6816" stroke="#2D8B7D" stroke-width="6" stroke-linecap="round" stroke-linejoin="round"/>
<path d="M71.5551 70.5803C71.5551 70.9287 71.4518 71.2693 71.2583 71.5589C71.0647 71.8486 70.7896 72.0743 70.4678 72.2076C70.1459 72.3409 69.7917 72.3758 69.45 72.3079C69.1083 72.2399 68.7945 72.0722 68.5481 71.8258C68.3018 71.5795 68.134 71.2656 68.0661 70.924C67.9981 70.5823 68.033 70.228 68.1663 69.9062C68.2996 69.5843 68.5254 69.3092 68.8151 69.1157C69.1047 68.9221 69.4453 68.8188 69.7937 68.8188C70.2609 68.8188 70.7089 69.0044 71.0392 69.3348C71.3696 69.6651 71.5551 70.1131 71.5551 70.5803V70.5803Z" stroke="#2D8B7D" stroke-width="6" stroke-linecap="round" stroke-linejoin="round"/>
<path d="M69.7937 27.4126V70.5803L35.707 96.3714" stroke="#2D8B7D" stroke-width="6" stroke-linecap="round" stroke-linejoin="round"/>
<path d="M89.0378 134.565C74.9485 138.797 59.8558 138.258 46.1045 133.031C32.3532 127.803 20.7131 118.181 12.9928 105.658C5.27242 93.1356 1.904 78.4137 3.41081 63.7798C4.91762 49.1459 11.2153 35.4193 21.3254 24.7325C31.4356 14.0458 44.7922 6.99719 59.3201 4.68187C73.8481 2.36654 88.734 4.91412 101.665 11.9288C114.596 18.9434 124.849 30.0323 130.83 43.4729C136.811 56.9135 138.186 71.9531 134.741 86.2553" stroke="#2D8B7D" stroke-width="6" stroke-linecap="round" stroke-linejoin="round"/>
<path d="M3 70.5797H12.0334" stroke="#2D8B7D" stroke-width="6" stroke-linecap="round" stroke-linejoin="round"/>
<path d="M127.553 70.5797H136.598" stroke="#2D8B7D" stroke-width="6" stroke-linecap="round" stroke-linejoin="round"/>
<path d="M69.793 3.78809V12.8215" stroke="#2D8B7D" stroke-width="6" stroke-linecap="round" stroke-linejoin="round"/>
<path d="M69.793 128.34V137.374" stroke="#2D8B7D" stroke-width="6" stroke-linecap="round" stroke-linejoin="round"/>
<path d="M155.069 143.432V148.68C155.07 149.652 154.75 150.597 154.158 151.368C153.566 152.139 152.736 152.692 151.796 152.941V152.941C135.419 157.303 118.186 157.303 101.809 152.941V152.941C100.861 152.701 100.02 152.151 99.4185 151.38C98.8172 150.608 98.49 149.659 98.4883 148.68V143.42" stroke="#2D8B7D" stroke-width="6" stroke-linecap="round" stroke-linejoin="round"/>
<path d="M155.069 127.257V132.53C155.071 133.501 154.75 134.446 154.158 135.217C153.566 135.988 152.736 136.541 151.796 136.791C135.419 141.152 118.186 141.152 101.809 136.791V136.791C100.87 136.541 100.04 135.988 99.4475 135.217C98.8555 134.446 98.5351 133.501 98.5361 132.53V127.257" stroke="#2D8B7D" stroke-width="6" stroke-linecap="round" stroke-linejoin="round"/>
<path d="M155.069 111.07V116.343C155.071 117.314 154.75 118.259 154.158 119.03C153.566 119.801 152.736 120.354 151.796 120.603C135.419 124.965 118.186 124.965 101.809 120.603V120.603C100.87 120.354 100.04 119.801 99.4475 119.03C98.8555 118.259 98.5351 117.314 98.5361 116.343V111.07" stroke="#2D8B7D" stroke-width="6" stroke-linecap="round" stroke-linejoin="round"/>
<path d="M155.069 101.5C155.069 105.928 142.406 109.51 126.79 109.51C111.175 109.51 98.5 105.94 98.5 101.5C98.5 97.0611 111.163 93.4906 126.79 93.4906C142.417 93.4906 155.069 97.073 155.069 101.5Z" stroke="#2D8B7D" stroke-width="6" stroke-linecap="round" stroke-linejoin="round"/>
<path d="M40.9904 70.5809C40.9992 64.3899 42.9986 58.3658 46.6933 53.3981C50.3881 48.4304 55.5822 44.7823 61.509 42.9927V31.9478C55.5978 33.2104 50.0554 35.8136 45.3092 39.5566C40.563 43.2996 36.7396 48.0825 34.1339 53.5366C31.5282 58.9907 30.2097 64.9703 30.28 71.0145C30.3504 77.0586 31.8077 83.0059 34.5396 88.3978L43.3588 81.9947C41.7931 78.3933 40.9869 74.5079 40.9904 70.5809Z" fill="#2F64A3"/>
</svg>
