<svg width="168" height="167" viewBox="0 0 168 167" fill="none" xmlns="http://www.w3.org/2000/svg">
<path d="M79.5417 120.503H44.7628C43.3342 120.503 42.7778 119.074 43.9662 118.467C45.9196 117.573 47.646 116.249 49.0163 114.594C50.3866 112.939 51.3655 110.996 51.8803 108.91C52.4982 105.517 52.6808 102.059 52.4238 98.6191" stroke="#2D8B7D" stroke-width="6" stroke-linecap="round" stroke-linejoin="round"/>
<path d="M75.3957 90.2501C75.3982 90.7763 75.2442 91.2913 74.9534 91.7299C74.6627 92.1684 74.2483 92.5106 73.7627 92.7131C73.277 92.9156 72.7421 92.9693 72.2259 92.8672C71.7097 92.7652 71.2356 92.5121 70.8635 92.1401C70.4915 91.768 70.2384 91.2938 70.1364 90.7776C70.0343 90.2614 70.0879 89.7266 70.2904 89.2409C70.4929 88.7553 70.8352 88.3408 71.2737 88.0501C71.7123 87.7593 72.2272 87.6054 72.7534 87.6079C73.4531 87.6113 74.1235 87.8907 74.6182 88.3855C75.113 88.8803 75.3924 89.5504 75.3957 90.2501Z" fill="#2F64A3"/>
<path d="M84.586 98.6446H9.99676C8.17276 98.6446 6.42345 97.9201 5.13369 96.6303C3.84393 95.3405 3.11914 93.5912 3.11914 91.7672V81.9189H30.0725" stroke="#2D8B7D" stroke-width="6" stroke-linecap="round" stroke-linejoin="round"/>
<path d="M102.867 81.8946H3.06934V10.9463C3.06934 8.97143 3.8538 7.07744 5.25025 5.68099C6.6467 4.28454 8.54061 3.5 10.5155 3.5H134.978C136.953 3.5 138.847 4.28454 140.244 5.68099C141.64 7.07744 142.425 8.97143 142.425 10.9463V42.691" stroke="#2D8B7D" stroke-width="6" stroke-linecap="round" stroke-linejoin="round"/>
<path d="M58.3408 53.259L79.7694 31.8178L89.2131 41.2488L110.642 19.8076" stroke="#2D8B7D" stroke-width="6" stroke-linecap="round" stroke-linejoin="round"/>
<path d="M101.262 19.8076H110.642V29.2008" stroke="#2D8B7D" stroke-width="6" stroke-linecap="round" stroke-linejoin="round"/>
<path d="M147.381 127.759V163.499" stroke="#2D8B7D" stroke-width="6" stroke-linecap="round" stroke-linejoin="round"/>
<path d="M144.566 73.8072C148.86 63.441 143.937 51.5567 133.571 47.2629C123.205 42.969 111.32 47.8917 107.027 58.2579C102.733 68.6241 107.655 80.5082 118.022 84.802C128.388 89.0958 140.272 84.1734 144.566 73.8072Z" stroke="#2D8B7D" stroke-width="6" stroke-linecap="round" stroke-linejoin="round"/>
<path d="M87.1279 163.5V112.173C87.1279 108.669 88.5196 105.308 90.9971 102.831C93.4747 100.353 96.8352 98.9614 100.339 98.9614H151.262C154.764 98.9648 158.121 100.358 160.596 102.835C163.07 105.313 164.46 108.671 164.46 112.173V163.5" stroke="#2D8B7D" stroke-width="6" stroke-linecap="round" stroke-linejoin="round"/>
<path d="M104.207 163.499V127.759" stroke="#2D8B7D" stroke-width="6" stroke-linecap="round" stroke-linejoin="round"/>
<path d="M26.7227 22.3364V63.7271" stroke="#2D8B7D" stroke-width="6" stroke-linecap="round" stroke-linejoin="round"/>
<path d="M26.7227 43.0195H37.8099C40.5538 43.0229 43.184 44.1152 45.1231 46.0566C47.0621 47.998 48.1512 50.6297 48.1512 53.3735V53.3735C48.1512 56.1162 47.0618 58.7466 45.1224 60.686C43.1831 62.6253 40.5526 63.7149 37.8099 63.7149H26.7227" stroke="#2D8B7D" stroke-width="6" stroke-linecap="round" stroke-linejoin="round"/>
<path d="M18.8848 22.3364H26.7229" stroke="#2D8B7D" stroke-width="6" stroke-linecap="round" stroke-linejoin="round"/>
<path d="M26.7227 14.4976V22.3358" stroke="#2D8B7D" stroke-width="6" stroke-linecap="round" stroke-linejoin="round"/>
<path d="M35.5342 14.4976V22.3358" stroke="#2D8B7D" stroke-width="6" stroke-linecap="round" stroke-linejoin="round"/>
<path d="M26.7227 63.7261V71.5643" stroke="#2D8B7D" stroke-width="6" stroke-linecap="round" stroke-linejoin="round"/>
<path d="M35.5342 63.7261V71.5643" stroke="#2D8B7D" stroke-width="6" stroke-linecap="round" stroke-linejoin="round"/>
<path d="M18.8848 63.7261H26.7229" stroke="#2D8B7D" stroke-width="6" stroke-linecap="round" stroke-linejoin="round"/>
<path d="M26.7227 22.3364H37.8099C40.5526 22.3364 43.1831 23.426 45.1224 25.3653C47.0618 27.3047 48.1512 29.9351 48.1512 32.6778V32.6778C48.1529 34.0369 47.8865 35.383 47.3675 36.6391C46.8486 37.8953 46.0872 39.0368 45.1268 39.9984C44.1663 40.96 43.0257 41.7228 41.7702 42.2433C40.5147 42.7638 39.169 43.0318 37.8099 43.0318H26.7227" stroke="#2D8B7D" stroke-width="6" stroke-linecap="round" stroke-linejoin="round"/>
<path d="M156.876 126.901V112.173C156.876 110.681 156.283 109.25 155.228 108.195C154.173 107.14 152.742 106.547 151.25 106.547H100.327C98.8349 106.547 97.4038 107.14 96.3487 108.195C95.2937 109.25 94.7012 110.681 94.7012 112.173V126.901C97.224 124.084 100.312 121.831 103.765 120.288C107.218 118.746 110.957 117.949 114.739 117.95H136.838C140.619 117.949 144.358 118.746 147.811 120.288C151.264 121.831 154.353 124.084 156.876 126.901Z" fill="#2F64A3"/>
</svg>
