<svg width="102" height="102" viewBox="0 0 102 102" fill="none" xmlns="http://www.w3.org/2000/svg">
<g clip-path="url(#clip0)">
<path d="M101.2 45.5531L99.2082 42.1026C98.944 41.645 98.5089 41.3111 97.9986 41.1745C97.488 41.0374 96.9441 41.1093 96.4869 41.3735L76.3636 52.9917H25.636L5.51269 41.3735C5.0551 41.1093 4.51165 41.0378 4.00108 41.1745C3.4907 41.3113 3.05562 41.645 2.79146 42.1026L0.79955 45.5531C-0.848127 48.407 0.132989 52.0693 2.98689 53.7168L23.1104 65.3352V90.8418C23.1104 94.1372 25.7914 96.8182 29.0868 96.8182H72.9135C76.2088 96.8182 78.8898 94.1372 78.8898 90.8418V65.3352L99.0133 53.717C100.392 52.921 101.379 51.6319 101.793 50.087C102.206 48.5419 101.996 46.9317 101.2 45.5531ZM50.1193 92.834L74.9052 68.0481V78.3503L60.4215 92.834H50.1193ZM74.9052 62.4134L44.4846 92.834H34.1824L70.0404 56.9759H74.9052V62.4134ZM32.5317 56.9759L27.0945 62.4132V56.9759H32.5317ZM4.9788 50.2665C4.52181 50.0025 4.19391 49.5726 4.05546 49.0557C3.91701 48.5387 3.98594 48.0022 4.24989 47.5452L5.24595 45.8201L23.1102 56.134V60.7346L4.9788 50.2665ZM27.0945 83.9848L34.2605 76.8188C35.0384 76.0408 35.0384 74.7794 34.2605 74.0013C33.4826 73.2232 32.2212 73.2234 31.443 74.0013L27.0945 78.3499V68.0477L38.1666 56.9757H48.4686L44.1206 61.3237C43.3427 62.1016 43.3427 63.363 44.1206 64.1411C44.5097 64.5302 45.0195 64.7246 45.5293 64.7246C46.0391 64.7246 46.549 64.5302 46.9379 64.1411L54.1031 56.9759H64.4053L28.6081 92.7734C27.7403 92.5583 27.0945 91.7752 27.0945 90.8418V83.9848ZM72.9131 92.834H66.0562L74.9052 83.985V90.8418C74.9052 91.9403 74.0115 92.834 72.9131 92.834ZM97.9442 49.0557C97.8057 49.5726 97.4778 50.0025 97.0208 50.2665L78.8894 60.7346V56.134L96.7537 45.8201L97.7497 47.5454C98.0137 48.0022 98.0826 48.5387 97.9442 49.0557Z" fill="black"/>
<path d="M41.7928 22.0812L41.2147 26.489C41.0593 27.3303 41.175 28.1803 41.5512 28.9522C42.24 30.367 43.6614 31.1912 45.1384 31.1912C45.7226 31.1912 46.3159 31.0621 46.8755 30.7896L50.9523 28.8052L55.1479 30.8041C55.8486 31.1386 56.6301 31.2585 57.4076 31.1509C59.5812 30.8503 61.1049 28.8373 60.8041 26.6607L60.1758 22.1645L63.257 18.9146C63.8662 18.3261 64.2646 17.5749 64.4107 16.7376C64.5935 15.6895 64.3575 14.6331 63.7459 13.7626C63.1343 12.892 62.2201 12.3119 61.1771 12.1298L56.7091 11.3384L54.4903 7.25673C54.4901 7.25633 54.4899 7.25593 54.4897 7.25553C54.1172 6.57144 53.5566 6.01584 52.8686 5.64889C50.934 4.61718 48.5204 5.35127 47.4881 7.28721L45.3549 11.2916L40.874 12.1243C40.0706 12.2533 39.3365 12.6197 38.7489 13.1851C37.9829 13.9217 37.5496 14.9126 37.5291 15.9754C37.5086 17.0382 37.9028 18.045 38.6413 18.8126L41.7928 22.0812ZM41.5741 16.0463L47.0261 15.0331C47.6221 14.9224 48.1353 14.5463 48.4204 14.0112L50.994 9.16676L53.667 14.0841C53.9564 14.6166 54.4728 14.9885 55.0698 15.0941L60.4874 16.0503C60.4577 16.078 60.4288 16.1067 60.4009 16.1362L56.6247 20.1194C56.2075 20.5593 56.0135 21.1653 56.0974 21.7657L56.8633 27.2077L51.8 24.7957C51.2526 24.5349 50.6165 24.5375 50.0712 24.8031L45.1334 27.2103C45.1431 27.1629 45.1511 27.1153 45.1575 27.0673L45.8683 21.6482C45.9472 21.0471 45.7479 20.4429 45.3272 20.0065L41.5067 16.0579C41.529 16.0543 41.5516 16.0505 41.5741 16.0463Z" fill="black"/>
<path d="M49.1162 36.5859V45.8197C49.1162 46.9199 50.0081 47.8118 51.1083 47.8118C52.2086 47.8118 53.1004 46.9199 53.1004 45.8197V36.5859C53.1004 35.4856 52.2086 34.5938 51.1083 34.5938C50.0081 34.5938 49.1162 35.4856 49.1162 36.5859Z" fill="black"/>
<path d="M25.0007 30.5598C24.4505 31.5127 24.777 32.731 25.7298 33.2811C29.9658 35.7268 32.7385 41.6316 32.9717 45.9276C33.0295 46.9894 33.9084 47.8117 34.9593 47.8117C34.9957 47.8117 35.0324 47.8108 35.069 47.8088C36.1677 47.7492 37.0097 46.8101 36.9502 45.7115C36.6561 40.2977 33.3919 33.1042 27.7219 29.8307C26.7695 29.2805 25.5509 29.6072 25.0007 30.5598Z" fill="black"/>
<path d="M7.26961 25.9179L11.3977 27.5217L13.0005 31.6472C13.3683 32.5974 14.1241 33.353 15.0745 33.7208C15.503 33.8863 15.9437 33.9648 16.3778 33.9648C17.8322 33.9648 19.2073 33.0833 19.7614 31.6498L21.3652 27.5217L25.4907 25.9189C26.4411 25.5511 27.1967 24.7951 27.5641 23.8451C27.9133 22.9419 27.8898 21.957 27.4979 21.0715C27.1061 20.186 26.3931 19.5061 25.4933 19.1582L21.3652 17.5544L19.762 13.4283C19.3942 12.4781 18.6384 11.7227 17.6882 11.3553C15.8239 10.6346 13.7207 11.5653 13.0015 13.4263L11.3977 17.5544L7.27239 19.1572C6.32196 19.525 5.56615 20.2808 5.1988 21.2312C4.84978 22.1343 4.87329 23.1194 5.26514 24.0047C5.65659 24.8901 6.36977 25.5701 7.26961 25.9179ZM13.6583 20.9503C14.1793 20.7479 14.5914 20.336 14.7938 19.8148L16.3815 15.7284L17.9693 19.8148C18.1717 20.3358 18.5836 20.7479 19.1048 20.9503L23.1912 22.5379L19.1048 24.1256C18.5838 24.328 18.1717 24.7399 17.9693 25.2611L16.3815 29.3475L14.7938 25.2611C14.5914 24.7401 14.1795 24.328 13.6583 24.1256L9.57209 22.5379L13.6583 20.9503Z" fill="black"/>
<path d="M66.93 47.8088C66.9669 47.8108 67.0033 47.8118 67.0398 47.8118C68.0904 47.8118 68.9696 46.9895 69.0273 45.9277C69.2606 41.6319 72.0332 35.7269 76.2693 33.2811C77.2221 32.7311 77.5486 31.5128 76.9984 30.5599C76.4484 29.6069 75.2298 29.2806 74.2771 29.8308C68.6072 33.1043 65.3429 40.2978 65.0489 45.7115C64.9893 46.8102 65.8316 47.7491 66.93 47.8088Z" fill="black"/>
<path d="M76.5071 25.918L80.6351 27.5219L82.2378 31.6467C82.793 33.0828 84.1681 33.9647 85.6232 33.9647C86.0571 33.9647 86.4981 33.8863 86.9264 33.7207C87.8765 33.3534 88.6323 32.5976 88.999 31.6499L90.6029 27.5219L94.7277 25.9192C96.5919 25.1984 97.5225 23.0956 96.8017 21.2308C96.4344 20.2807 95.6786 19.5249 94.7309 19.1582L90.6029 17.5543L89.0004 13.4294C88.2799 11.565 86.1772 10.6349 84.3122 11.355C83.3627 11.722 82.6075 12.4768 82.2394 13.426L80.6355 17.5541L76.5106 19.1566C74.6462 19.8771 73.7157 21.9802 74.4363 23.8446C74.8034 24.7954 75.5592 25.5512 76.5071 25.918ZM82.8958 20.9505C83.4167 20.7481 83.8289 20.3361 84.0313 19.815L85.619 15.7285L87.2065 19.815C87.4089 20.3359 87.8209 20.7481 88.342 20.9505L92.4284 22.538L88.342 24.1257C87.8211 24.3281 87.4089 24.7401 87.2065 25.2612L85.619 29.3476L84.0313 25.2612C83.8289 24.7403 83.4169 24.3281 82.8958 24.1257L78.8093 22.538L82.8958 20.9505Z" fill="black"/>
<path d="M39.192 71.0635C40.2923 71.0635 41.1842 70.1716 41.1842 69.0713C41.1842 67.971 40.2923 67.0791 39.192 67.0791H39.1906C38.0903 67.0791 37.1992 67.971 37.1992 69.0713C37.1992 70.1716 38.0917 71.0635 39.192 71.0635Z" fill="black"/>
</g>
<defs>
<clipPath id="clip0">
<rect width="102" height="102" fill="white"/>
</clipPath>
</defs>
</svg>
