<svg width="1126" height="553" viewBox="0 0 1126 553" fill="none" xmlns="http://www.w3.org/2000/svg">
<path d="M1124.58 1.5H1125.58V0.5H1124.58V1.5ZM1124.58 262.5V263.5H1125.58V262.5H1124.58ZM151.584 262.5V261.5H150.584V262.5H151.584ZM151.584 552.5L157.357 542.5H145.81L151.584 552.5ZM0.583984 2.5H5.67148V0.5H0.583984V2.5ZM15.8465 2.5H26.0215V0.5H15.8465V2.5ZM36.1965 2.5H46.3715V0.5H36.1965V2.5ZM56.5465 2.5H66.7215V0.5H56.5465V2.5ZM76.8965 2.5H87.0715V0.5H76.8965V2.5ZM97.2465 2.5H107.421V0.5H97.2465V2.5ZM117.596 2.5H127.771V0.5H117.596V2.5ZM137.947 2.5H148.122V0.5H137.947V2.5ZM158.297 2.5H168.472V0.5H158.297V2.5ZM178.647 2.5H188.822V0.5H178.647V2.5ZM198.997 2.5H209.172V0.5H198.997V2.5ZM219.347 2.5H229.522V0.5H219.347V2.5ZM239.697 2.5H249.872V0.5H239.697V2.5ZM260.047 2.5H270.222V0.5H260.047V2.5ZM280.397 2.5H290.572V0.5H280.397V2.5ZM300.746 2.5H310.921V0.5H300.746V2.5ZM321.096 2.5H331.271V0.5H321.096V2.5ZM341.446 2.5H351.621V0.5H341.446V2.5ZM361.796 2.5H371.971V0.5H361.796V2.5ZM382.146 2.5H392.321V0.5H382.146V2.5ZM402.496 2.5H407.584V0.5H402.496V2.5ZM407.584 2.5H412.578V0.5H407.584V2.5ZM422.565 2.5H432.553V0.5H422.565V2.5ZM442.54 2.5H452.528V0.5H442.54V2.5ZM462.515 2.5H472.503V0.5H462.515V2.5ZM482.49 2.5H492.478V0.5H482.49V2.5ZM502.465 2.5H512.453V0.5H502.465V2.5ZM522.44 2.5H532.428V0.5H522.44V2.5ZM542.415 2.5H552.403V0.5H542.415V2.5ZM562.39 2.5H572.378V0.5H562.39V2.5ZM582.365 2.5H592.353V0.5H582.365V2.5ZM602.34 2.5H612.328V0.5H602.34V2.5ZM622.315 2.5H632.303V0.5H622.315V2.5ZM642.29 2.5H652.278V0.5H642.29V2.5ZM662.265 2.5H672.253V0.5H662.265V2.5ZM682.24 2.5H692.228V0.5H682.24V2.5ZM702.215 2.5H712.203V0.5H702.215V2.5ZM722.19 2.5H732.178V0.5H722.19V2.5ZM742.165 2.5H752.153V0.5H742.165V2.5ZM762.14 2.5H772.128V0.5H762.14V2.5ZM782.115 2.5H792.103V0.5H782.115V2.5ZM802.09 2.5H807.084V0.5H802.09V2.5ZM807.084 2.5H812.045V0.5H807.084V2.5ZM821.967 2.5H831.889V0.5H821.967V2.5ZM841.811 2.5H851.732V0.5H841.811V2.5ZM861.654 2.5H871.576V0.5H861.654V2.5ZM881.498 2.5H891.42V0.5H881.498V2.5ZM901.342 2.5H911.264V0.5H901.342V2.5ZM921.186 2.5H931.107V0.5H921.186V2.5ZM941.029 2.5H950.951V0.5H941.029V2.5ZM960.873 2.5H970.795V0.5H960.873V2.5ZM980.717 2.5H990.639V0.5H980.717V2.5ZM1000.56 2.5H1010.48V0.5H1000.56V2.5ZM1020.4 2.5H1030.33V0.5H1020.4V2.5ZM1040.25 2.5H1050.17V0.5H1040.25V2.5ZM1060.09 2.5H1070.01V0.5H1060.09V2.5ZM1079.94 2.5H1089.86V0.5H1079.94V2.5ZM1099.78 2.5H1109.7V0.5H1099.78V2.5ZM1119.62 2.5H1124.58V0.5H1119.62V2.5ZM1123.58 1.5V6.51923H1125.58V1.5H1123.58ZM1123.58 16.5577V26.5962H1125.58V16.5577H1123.58ZM1123.58 36.6346V46.6731H1125.58V36.6346H1123.58ZM1123.58 56.7115V66.75H1125.58V56.7115H1123.58ZM1123.58 76.7885V86.8269H1125.58V76.7885H1123.58ZM1123.58 96.8654V106.904H1125.58V96.8654H1123.58ZM1123.58 116.942V126.981H1125.58V116.942H1123.58ZM1123.58 137.019V147.058H1125.58V137.019H1123.58ZM1123.58 157.096V167.135H1125.58V157.096H1123.58ZM1123.58 177.173V187.212H1125.58V177.173H1123.58ZM1123.58 197.25V207.288H1125.58V197.25H1123.58ZM1123.58 217.327V227.365H1125.58V217.327H1123.58ZM1123.58 237.404V247.442H1125.58V237.404H1123.58ZM1123.58 257.481V262.5H1125.58V257.481H1123.58ZM1124.58 261.5H1119.6V263.5H1124.58V261.5ZM1109.65 261.5H1099.69V263.5H1109.65V261.5ZM1089.73 261.5H1079.77V263.5H1089.73V261.5ZM1069.81 261.5H1059.85V263.5H1069.81V261.5ZM1049.9 261.5H1039.94V263.5H1049.9V261.5ZM1029.98 261.5H1020.02V263.5H1029.98V261.5ZM1010.06 261.5H1000.1V263.5H1010.06V261.5ZM990.146 261.5H980.188V263.5H990.146V261.5ZM970.23 261.5H960.271V263.5H970.23V261.5ZM950.313 261.5H940.355V263.5H950.313V261.5ZM930.396 261.5H920.438V263.5H930.396V261.5ZM910.48 261.5H900.521V263.5H910.48V261.5ZM890.563 261.5H880.605V263.5H890.563V261.5ZM870.647 261.5H860.688V263.5H870.647V261.5ZM850.73 261.5H840.772V263.5H850.73V261.5ZM830.813 261.5H820.855V263.5H830.813V261.5ZM810.896 261.5H800.938V263.5H810.896V261.5ZM790.98 261.5H781.021V263.5H790.98V261.5ZM771.063 261.5H761.105V263.5H771.063V261.5ZM751.146 261.5H741.188V263.5H751.146V261.5ZM731.23 261.5H721.271V263.5H731.23V261.5ZM711.313 261.5H701.355V263.5H711.313V261.5ZM691.396 261.5H681.438V263.5H691.396V261.5ZM671.48 261.5H661.521V263.5H671.48V261.5ZM651.563 261.5H641.605V263.5H651.563V261.5ZM631.646 261.5H621.688V263.5H631.646V261.5ZM611.73 261.5H601.771V263.5H611.73V261.5ZM591.813 261.5H581.855V263.5H591.813V261.5ZM571.896 261.5H561.938V263.5H571.896V261.5ZM551.98 261.5H542.021V263.5H551.98V261.5ZM532.063 261.5H522.105V263.5H532.063V261.5ZM512.146 261.5H502.188V263.5H512.146V261.5ZM492.23 261.5H482.272V263.5H492.23V261.5ZM472.313 261.5H462.355V263.5H472.313V261.5ZM452.397 261.5H442.438V263.5H452.397V261.5ZM432.48 261.5H422.522V263.5H432.48V261.5ZM412.563 261.5H407.584V263.5H412.563V261.5ZM407.584 261.5H402.661V263.5H407.584V261.5ZM392.815 261.5H382.969V263.5H392.815V261.5ZM373.122 261.5H363.276V263.5H373.122V261.5ZM353.43 261.5H343.584V263.5H353.43V261.5ZM333.738 261.5H323.892V263.5H333.738V261.5ZM314.046 261.5H304.199V263.5H314.046V261.5ZM294.353 261.5H284.507V263.5H294.353V261.5ZM274.661 261.5H264.815V263.5H274.661V261.5ZM254.969 261.5H245.122V263.5H254.969V261.5ZM235.276 261.5H225.43V263.5H235.276V261.5ZM215.584 261.5H205.738V263.5H215.584V261.5ZM195.892 261.5H186.045V263.5H195.892V261.5ZM176.199 261.5H166.353V263.5H176.199V261.5ZM156.507 261.5H151.584V263.5H156.507V261.5ZM150.584 262.5V267.333H152.584V262.5H150.584ZM150.584 277V286.667H152.584V277H150.584ZM150.584 296.333V306H152.584V296.333H150.584ZM150.584 315.667V325.333H152.584V315.667H150.584ZM150.584 335V344.667H152.584V335H150.584ZM150.584 354.333V364H152.584V354.333H150.584ZM150.584 373.667V383.333H152.584V373.667H150.584ZM150.584 393V402.667H152.584V393H150.584ZM150.584 412.333V422H152.584V412.333H150.584ZM150.584 431.667V441.333H152.584V431.667H150.584ZM150.584 451V460.667H152.584V451H150.584ZM150.584 470.333V480H152.584V470.333H150.584ZM150.584 489.667V499.333H152.584V489.667H150.584ZM150.584 509V518.667H152.584V509H150.584ZM150.584 528.333V538H152.584V528.333H150.584Z" fill="#2D8B7D"/>
</svg>
