<svg width="65" height="70" viewBox="0 0 65 70" fill="none" xmlns="http://www.w3.org/2000/svg">
<path d="M41.8207 1.56478H28.6012C28.3281 1.56478 28.0661 1.67327 27.873 1.86642C27.6798 2.05958 27.5713 2.32157 27.5713 2.59473V8.25947C27.5713 8.84266 27.803 9.40197 28.2153 9.81436C28.6277 10.2267 29.187 10.4584 29.7702 10.4584H29.8011C30.2469 10.4534 30.6811 10.3154 31.0481 10.0622C31.415 9.80902 31.6981 9.45209 31.861 9.03708C32.1416 8.3766 32.6102 7.81325 33.2087 7.41725C33.8071 7.02125 34.5088 6.81009 35.2264 6.81009C35.944 6.81009 36.6457 7.02125 37.2441 7.41725C37.8426 7.81325 38.3113 8.3766 38.5918 9.03708C38.7553 9.45169 39.0385 9.80823 39.4053 10.0613C39.7722 10.3145 40.206 10.4527 40.6517 10.4584H40.6826C41.2649 10.457 41.8229 10.2248 42.2341 9.81253C42.6454 9.4003 42.8764 8.84177 42.8764 8.25947V2.59473C42.8764 2.45728 42.849 2.32121 42.7956 2.19454C42.7422 2.06787 42.6641 1.95317 42.5657 1.85718C42.4673 1.7612 42.3507 1.68587 42.2227 1.63565C42.0948 1.58543 41.9581 1.56134 41.8207 1.56478Z" fill="#2D8B7D"/>
<path d="M58.3568 6.88965H63.1925V51.9295C63.1925 53.3663 62.9094 54.7891 62.3593 56.1165C61.8093 57.4439 61.0032 58.6499 59.9869 59.6657C58.9707 60.6814 57.7643 61.4871 56.4366 62.0364C55.1089 62.5858 53.6861 62.8682 52.2492 62.8676H31.3154" stroke="#1D1D1D" stroke-width="3" stroke-linecap="round" stroke-linejoin="round"/>
<path d="M33.252 58.032H48.4798C49.2843 58.032 50.0558 57.7124 50.6246 57.1436C51.1934 56.5747 51.513 55.8032 51.513 54.9988V51.1879H55.3238C56.1283 51.1879 56.8998 50.8684 57.4686 50.2995C58.0375 49.7307 58.357 48.9592 58.357 48.1547V2.25488H46.3838" stroke="#1D1D1D" stroke-width="3" stroke-linecap="round" stroke-linejoin="round"/>
<path d="M24.0384 2.25488H12.0703V37.0415" stroke="#1D1D1D" stroke-width="3" stroke-linecap="round" stroke-linejoin="round"/>
<path d="M19.4718 30.5323V22.5811L17.0771 24.3474" stroke="#1D1D1D" stroke-width="3" stroke-linecap="round" stroke-linejoin="round"/>
<path d="M18.0498 30.5322H20.7637" stroke="#1D1D1D" stroke-width="3" stroke-linecap="round" stroke-linejoin="round"/>
<path d="M25.5071 30.5327C25.2091 30.5327 24.914 30.4739 24.6388 30.3597C24.3635 30.2455 24.1135 30.0781 23.9031 29.8672C23.6926 29.6562 23.5258 29.4058 23.4122 29.1303C23.2987 28.8548 23.2405 28.5596 23.2412 28.2616V24.6568C23.2412 24.0553 23.4798 23.4785 23.9046 23.0527C24.3294 22.627 24.9057 22.3871 25.5071 22.3857V22.3857C26.1094 22.3857 26.6871 22.625 27.113 23.0509C27.5389 23.4768 27.7782 24.0545 27.7782 24.6568V28.2616C27.7788 28.56 27.7206 28.8557 27.6067 29.1315C27.4928 29.4074 27.3255 29.658 27.1145 29.869C26.9035 30.08 26.6529 30.2473 26.377 30.3612C26.1012 30.4751 25.8055 30.5333 25.5071 30.5327Z" stroke="#1D1D1D" stroke-width="3" stroke-linecap="round" stroke-linejoin="round"/>
<path d="M41.3574 24.9807C41.3573 24.69 41.4155 24.4023 41.5286 24.1345C41.6416 23.8668 41.8072 23.6244 42.0156 23.4218C42.224 23.2191 42.471 23.0604 42.7418 22.9549C43.0126 22.8494 43.3019 22.7993 43.5924 22.8075C44.146 22.8291 44.6712 23.0583 45.0634 23.4495C45.4556 23.8408 45.6861 24.3654 45.709 24.9189C45.7188 25.2676 45.6444 25.6135 45.492 25.9273C45.3396 26.2411 45.1137 26.5135 44.8335 26.7213C43.7114 27.5298 42.7697 28.5627 42.0681 29.7545L41.7591 30.3056H46.2652" stroke="#1D1D1D" stroke-width="3" stroke-linecap="round" stroke-linejoin="round"/>
<path d="M51.1314 30.5323C50.5445 30.5309 49.9821 30.2972 49.5671 29.8822C49.1521 29.4672 48.9184 28.9048 48.917 28.3179V24.7954C48.9184 24.2086 49.1521 23.6461 49.5671 23.2311C49.9821 22.8161 50.5445 22.5824 51.1314 22.5811C51.7187 22.5811 52.2819 22.8143 52.6972 23.2296C53.1125 23.6449 53.3458 24.2082 53.3458 24.7954V28.3179C53.3458 28.9052 53.1125 29.4684 52.6972 29.8837C52.2819 30.299 51.7187 30.5323 51.1314 30.5323V30.5323Z" stroke="#1D1D1D" stroke-width="3" stroke-linecap="round" stroke-linejoin="round"/>
<path d="M32.3867 26.5566H37.8042" stroke="#1D1D1D" stroke-width="3" stroke-linecap="round" stroke-linejoin="round"/>
<path d="M35.0947 23.8477V29.2652" stroke="#1D1D1D" stroke-width="3" stroke-linecap="round" stroke-linejoin="round"/>
<path d="M16.2213 68.4347C24.1763 68.4347 30.6251 61.9859 30.6251 54.0309C30.6251 46.0758 24.1763 39.627 16.2213 39.627C8.26622 39.627 1.81738 46.0758 1.81738 54.0309C1.81738 61.9859 8.26622 68.4347 16.2213 68.4347Z" stroke="#1D1D1D" stroke-width="3" stroke-linecap="round" stroke-linejoin="round"/>
<path d="M16.2206 61.751C17.7048 61.7526 19.158 61.3266 20.4064 60.524C21.6549 59.7213 22.6456 58.576 23.2602 57.225C23.8748 55.8741 24.0871 54.3747 23.8719 52.9062C23.6567 51.4377 23.023 50.0623 22.0465 48.9445C21.0701 47.8268 19.7924 47.014 18.3662 46.6033C16.9399 46.1927 15.4256 46.2016 14.0043 46.629C12.583 47.0565 11.3149 47.8843 10.3517 49.0135C9.38859 50.1427 8.77113 51.5255 8.57324 52.9964" stroke="#1D1D1D" stroke-width="3" stroke-linecap="round" stroke-linejoin="round"/>
<path d="M10.8397 54.376L8.512 56.6985L6.18945 54.376" stroke="#1D1D1D" stroke-width="3" stroke-linecap="round" stroke-linejoin="round"/>
</svg>
