<svg width="69" height="64" viewBox="0 0 69 64" fill="none" xmlns="http://www.w3.org/2000/svg">
<path d="M40.2992 26.0929C40.2992 27.2673 39.9509 28.4153 39.2985 29.3917C38.6461 30.3682 37.7187 31.1292 36.6337 31.5786C35.5488 32.028 34.3549 32.1456 33.2031 31.9165C32.0514 31.6874 30.9934 31.1219 30.163 30.2915C29.3326 29.4611 28.767 28.4031 28.5379 27.2513C28.3088 26.0995 28.4264 24.9056 28.8758 23.8206C29.3252 22.7357 30.0862 21.8084 31.0627 21.1559C32.0391 20.5035 33.1871 20.1553 34.3615 20.1553C35.9362 20.1553 37.4466 20.7808 38.5601 21.8943C39.6736 23.0079 40.2992 24.5181 40.2992 26.0929Z" stroke="#1D1D1D" stroke-width="3" stroke-linecap="round" stroke-linejoin="round"/>
<path d="M23.0732 49.5447V38.9053C23.0732 37.8809 23.4801 36.8986 24.2044 36.1743C24.9287 35.4499 25.9112 35.043 26.9356 35.043H41.8441C42.8684 35.043 43.8508 35.4499 44.5751 36.1743C45.2995 36.8986 45.7064 37.8809 45.7064 38.9053V40.6511" stroke="#1D1D1D" stroke-width="3" stroke-linecap="round" stroke-linejoin="round"/>
<path d="M34.3779 35.043V41.923" stroke="#1D1D1D" stroke-width="3" stroke-linecap="round" stroke-linejoin="round"/>
<path d="M43.8573 55.2982H5.55341C5.08678 55.2982 4.62466 55.2063 4.19355 55.0277C3.76244 54.8492 3.37072 54.5874 3.04076 54.2575C2.71081 53.9275 2.44914 53.5358 2.27056 53.1047C2.09199 52.6736 2 52.2115 2 51.7449V5.91202C2 4.96914 2.37428 4.06481 3.04051 3.39761C3.70675 2.73041 4.61053 2.35488 5.55341 2.35352H63.1998C64.1432 2.35488 65.0476 2.73025 65.7146 3.3973C66.3817 4.06435 66.7569 4.96867 66.7583 5.91202V46.0235" stroke="#1D1D1D" stroke-width="3" stroke-linecap="round" stroke-linejoin="round"/>
<path d="M10.7042 9.35136C10.7052 9.22994 10.67 9.11096 10.6033 9.00951C10.5366 8.90806 10.4413 8.82874 10.3294 8.78157C10.2175 8.7344 10.0942 8.72148 9.97495 8.74454C9.85574 8.7676 9.7461 8.82557 9.65988 8.91107C9.57366 8.99656 9.51472 9.10574 9.49065 9.22476C9.46659 9.34377 9.4785 9.46728 9.52472 9.57956C9.57095 9.69183 9.64939 9.78783 9.75028 9.8554C9.85116 9.92297 9.96995 9.95906 10.0914 9.95906C10.253 9.95907 10.4081 9.89522 10.5229 9.78141C10.6376 9.6676 10.7028 9.513 10.7042 9.35136Z" stroke="#1D1D1D" stroke-width="3" stroke-linecap="round" stroke-linejoin="round"/>
<path d="M17.6402 9.35079C17.6402 9.2306 17.6045 9.11314 17.5377 9.01321C17.4709 8.91328 17.3761 8.83541 17.265 8.78942C17.154 8.74342 17.0319 8.73139 16.914 8.75484C16.7961 8.77829 16.6878 8.83613 16.6028 8.92112C16.5178 9.0061 16.4599 9.11441 16.4365 9.23229C16.413 9.35017 16.4251 9.47234 16.4711 9.58338C16.5171 9.69442 16.5949 9.78931 16.6949 9.85608C16.7948 9.92285 16.9124 9.95849 17.0326 9.95849C17.1937 9.95849 17.3482 9.89448 17.4622 9.78052C17.5761 9.66656 17.6402 9.51195 17.6402 9.35079V9.35079Z" stroke="#1D1D1D" stroke-width="3" stroke-linecap="round" stroke-linejoin="round"/>
<path d="M23.9847 9.9585C24.3203 9.9585 24.5924 9.68641 24.5924 9.3508C24.5924 9.01519 24.3203 8.74316 23.9847 8.74316C23.6491 8.74316 23.377 9.01519 23.377 9.3508C23.377 9.68641 23.6491 9.9585 23.9847 9.9585Z" stroke="#1D1D1D" stroke-width="3" stroke-linecap="round" stroke-linejoin="round"/>
<path d="M2 16.4834H66.7583" stroke="#1D1D1D" stroke-width="3" stroke-linecap="round" stroke-linejoin="round"/>
<path d="M60.5061 10.9629H34.7109C34.3012 10.9629 33.9082 10.8001 33.6185 10.5104C33.3288 10.2207 33.166 9.82772 33.166 9.41798C33.166 9.00823 33.3288 8.61527 33.6185 8.32554C33.9082 8.03581 34.3012 7.87305 34.7109 7.87305H60.5061C60.9159 7.87305 61.3089 8.03581 61.5986 8.32554C61.8883 8.61527 62.0511 9.00823 62.0511 9.41798C62.0511 9.82772 61.8883 10.2207 61.5986 10.5104C61.3089 10.8001 60.9159 10.9629 60.5061 10.9629Z" fill="#2D8B7D"/>
<path d="M8.2207 48.2686V50.9361" stroke="#1D1D1D" stroke-width="3" stroke-linecap="round" stroke-linejoin="round"/>
<path d="M11.4609 48.2686V50.9361" stroke="#1D1D1D" stroke-width="3" stroke-linecap="round" stroke-linejoin="round"/>
<path d="M16.0039 49.6016H41.2017" stroke="#1D1D1D" stroke-width="3" stroke-linecap="round" stroke-linejoin="round"/>
<path d="M57.8393 52.491L62.1495 48.1858L43.7598 43.2627L48.6881 61.6473L52.9933 57.3421" stroke="#1D1D1D" stroke-width="3" stroke-linecap="round" stroke-linejoin="round"/>
<path d="M56.5527 56.0547L61.9342 61.4362" stroke="#1D1D1D" stroke-width="3" stroke-linecap="round" stroke-linejoin="round"/>
</svg>
