<svg width="69" height="59" viewBox="0 0 69 59" fill="none" xmlns="http://www.w3.org/2000/svg">
<path d="M2.04883 25.7568V42.4164C2.05019 43.3401 2.41813 44.2256 3.0718 44.8783C3.72548 45.531 4.61147 45.8976 5.53523 45.8976H17.1582" stroke="#1D1D1D" stroke-width="3" stroke-linecap="round" stroke-linejoin="round"/>
<path d="M16.1581 19.1526C16.748 16.653 15.2 14.1484 12.7004 13.5585C10.2008 12.9685 7.69623 14.5166 7.10628 17.0162C6.51633 19.5157 8.06441 22.0202 10.564 22.6102C13.0636 23.2002 15.5681 21.6521 16.1581 19.1526Z" stroke="#1D1D1D" stroke-width="3" stroke-linecap="round" stroke-linejoin="round"/>
<path d="M17.1575 36.1645V41.6541H11.4928C10.0869 41.6541 8.7385 41.0961 7.7439 40.1024C6.74931 39.1088 6.18984 37.761 6.18848 36.3551V28.3678C6.18848 27.6753 6.46356 27.0112 6.95321 26.5216C7.44285 26.0319 8.10698 25.7568 8.79944 25.7568H14.7577C15.3996 25.7568 16.0153 26.0118 16.4692 26.4657C16.9231 26.9197 17.1781 27.5353 17.1781 28.1773V31.6019" stroke="#1D1D1D" stroke-width="3" stroke-linecap="round" stroke-linejoin="round"/>
<path d="M11.6631 27.5957V31.8185C11.6631 32.3648 11.8801 32.8888 12.2664 33.2751C12.6528 33.6614 13.1767 33.8784 13.723 33.8784H21.597" stroke="#1D1D1D" stroke-width="3" stroke-linecap="round" stroke-linejoin="round"/>
<path d="M17.1582 41.6543H19.7692C20.2568 41.6543 20.7243 41.848 21.0691 42.1928C21.4139 42.5376 21.6076 43.0052 21.6076 43.4928V52.5564" stroke="#1D1D1D" stroke-width="3" stroke-linecap="round" stroke-linejoin="round"/>
<path d="M10.4168 45.8975V53.3955L6.87891 56.9334" stroke="#1D1D1D" stroke-width="3" stroke-linecap="round" stroke-linejoin="round"/>
<path d="M10.417 53.3955L13.7746 56.7532" stroke="#1D1D1D" stroke-width="3" stroke-linecap="round" stroke-linejoin="round"/>
<path d="M67.3425 25.7568V42.4164C67.3425 43.3396 66.9758 44.2251 66.3229 44.878C65.6701 45.5308 64.7846 45.8976 63.8613 45.8976H52.2383" stroke="#1D1D1D" stroke-width="3" stroke-linecap="round" stroke-linejoin="round"/>
<path d="M58.7697 22.7072C61.2693 22.1173 62.8174 19.6127 62.2274 17.1131C61.6375 14.6135 59.1329 13.0655 56.6333 13.6554C54.1337 14.2454 52.5857 16.75 53.1756 19.2495C53.7656 21.7491 56.2702 23.2972 58.7697 22.7072Z" stroke="#1D1D1D" stroke-width="3" stroke-linecap="round" stroke-linejoin="round"/>
<path d="M52.2383 36.1645V41.6541H57.903C59.3084 41.6541 60.6563 41.0959 61.6501 40.1021C62.6438 39.1083 63.2022 37.7605 63.2022 36.3551V28.3678C63.2022 27.6753 62.9271 27.0112 62.4374 26.5216C61.9478 26.0319 61.2836 25.7568 60.5912 25.7568H54.6536C54.336 25.7568 54.0215 25.8195 53.7281 25.9412C53.4347 26.0629 53.1682 26.2412 52.9439 26.4661C52.7195 26.6909 52.5417 26.9578 52.4207 27.2514C52.2996 27.545 52.2376 27.8597 52.2383 28.1773V31.6019" stroke="#1D1D1D" stroke-width="3" stroke-linecap="round" stroke-linejoin="round"/>
<path d="M57.7283 27.5957V31.8185C57.7283 32.3648 57.5112 32.8888 57.1249 33.2751C56.7386 33.6614 56.2147 33.8784 55.6684 33.8784H47.8047" stroke="#1D1D1D" stroke-width="3" stroke-linecap="round" stroke-linejoin="round"/>
<path d="M52.2378 41.6543H49.6217C49.1341 41.6543 48.6665 41.848 48.3217 42.1928C47.9769 42.5376 47.7832 43.0052 47.7832 43.4928V52.5564" stroke="#1D1D1D" stroke-width="3" stroke-linecap="round" stroke-linejoin="round"/>
<path d="M58.9795 45.8975V53.3955L62.5174 56.9334" stroke="#1D1D1D" stroke-width="3" stroke-linecap="round" stroke-linejoin="round"/>
<path d="M58.9787 53.3955L55.6211 56.7532" stroke="#1D1D1D" stroke-width="3" stroke-linecap="round" stroke-linejoin="round"/>
<path d="M41.9488 35.8309H28.75C28.2915 35.8295 27.8522 35.6468 27.528 35.3225C27.2038 34.9983 27.021 34.559 27.0197 34.1005C27.0169 33.8716 27.0596 33.6444 27.1454 33.4321C27.2311 33.2197 27.3582 33.0265 27.5191 32.8637C27.6801 32.7008 27.8717 32.5715 28.083 32.4833C28.2943 32.395 28.521 32.3496 28.75 32.3496H41.9746C42.202 32.3489 42.4273 32.3932 42.6375 32.4799C42.8478 32.5666 43.0388 32.6941 43.1996 32.8549C43.3604 33.0157 43.4878 33.2067 43.5745 33.417C43.6612 33.6272 43.7056 33.8525 43.7049 34.0799C43.7077 34.3111 43.6641 34.5404 43.5768 34.7545C43.4894 34.9685 43.3601 35.1629 43.1964 35.3261C43.0327 35.4893 42.838 35.618 42.6237 35.7047C42.4094 35.7914 42.1799 35.8343 41.9488 35.8309Z" fill="#2D8B7D"/>
<path d="M35.3367 37.5811V53.396L31.5361 56.9338" fill="white"/>
<path d="M35.3367 37.5811V53.396L31.5361 56.9338" stroke="#1D1D1D" stroke-width="3" stroke-linecap="round" stroke-linejoin="round"/>
<path d="M35.3369 53.3955L38.6997 56.9334" stroke="#1D1D1D" stroke-width="3" stroke-linecap="round" stroke-linejoin="round"/>
<path d="M39.5498 19.8301V29.1409" stroke="#1D1D1D" stroke-width="3" stroke-linecap="round" stroke-linejoin="round"/>
<path d="M39.1259 7.38951C39.6858 5.01726 38.2167 2.64032 35.8444 2.08042C33.4722 1.52052 31.0952 2.98968 30.5353 5.36192C29.9754 7.73417 31.4446 10.1111 33.8168 10.671C36.1891 11.2309 38.566 9.76175 39.1259 7.38951Z" stroke="#1D1D1D" stroke-width="3" stroke-linecap="round" stroke-linejoin="round"/>
<path d="M26.459 27.5951V16.4407C26.459 15.6799 26.7612 14.9503 27.2991 14.4124C27.837 13.8744 28.5666 13.5723 29.3274 13.5723H40.3942C41.155 13.5723 41.8846 13.8744 42.4225 14.4124C42.9604 14.9503 43.2627 15.6799 43.2627 16.4407V26.5188" stroke="#1D1D1D" stroke-width="3" stroke-linecap="round" stroke-linejoin="round"/>
<path d="M30.1719 29.1409V19.8301" stroke="#1D1D1D" stroke-width="3" stroke-linecap="round" stroke-linejoin="round"/>
<path d="M34.8633 13.5723V18.6859" stroke="#1D1D1D" stroke-width="3" stroke-linecap="round" stroke-linejoin="round"/>
<path d="M31.0576 39.085V50.5638" stroke="#1D1D1D" stroke-width="3" stroke-linecap="round" stroke-linejoin="round"/>
<path d="M39.2764 39.085V50.5638" stroke="#1D1D1D" stroke-width="3" stroke-linecap="round" stroke-linejoin="round"/>
</svg>
