<svg width="80" height="81" viewBox="0 0 80 81" fill="none" xmlns="http://www.w3.org/2000/svg">
<path d="M36.8927 19.4863C37.3386 21.8759 37.596 24.2968 37.6626 26.7267C37.6589 28.8477 36.922 30.9021 35.5768 32.5419C35.1112 33.1265 34.7671 33.7981 34.5648 34.5175C34.3625 35.2369 34.3061 35.9894 34.3987 36.7309L34.4791 37.4205C34.5101 37.6835 34.5974 37.9367 34.7353 38.1629C34.8731 38.389 35.0583 38.5826 35.2779 38.7306C35.4335 38.8395 35.6064 38.9212 35.7893 38.972L42.9549 41.0521" stroke="#1D1D1D" stroke-width="3" stroke-linecap="round" stroke-linejoin="round"/>
<path d="M27.5039 2.87891C32.417 2.87891 37.5714 5.61408 39.6286 10.2168C40.4652 12.275 40.9807 14.4495 41.1571 16.6642C41.5191 19.773 41.68 22.7265 43.1683 25.5307C43.6625 26.574 44.4179 27.472 45.3613 28.1375C46.3046 28.803 47.4038 29.2134 48.5525 29.329C47.4719 30.9847 45.9219 32.2803 44.1008 33.0501C42.2797 33.8199 40.2705 34.0288 38.33 33.6502" stroke="#1D1D1D" stroke-width="3" stroke-linecap="round" stroke-linejoin="round"/>
<path d="M27.5045 2.87891C22.5857 2.87891 17.437 5.61408 15.374 10.2168C14.5428 12.2767 14.0275 14.4504 13.8456 16.6642C13.4836 19.773 13.3227 22.7265 11.8344 25.5307C11.3402 26.574 10.5849 27.472 9.64151 28.1375C8.69816 28.803 7.59885 29.2134 6.4502 29.329C7.5308 30.9847 9.08079 32.2803 10.9019 33.0501C12.723 33.8199 14.7322 34.0288 16.6727 33.6502" stroke="#1D1D1D" stroke-width="3" stroke-linecap="round" stroke-linejoin="round"/>
<path d="M19.7695 38.7305L27.527 44.5228L35.2787 38.7305" stroke="#1D1D1D" stroke-width="3" stroke-linecap="round" stroke-linejoin="round"/>
<path d="M36.8992 19.3935C35.7566 19.5753 34.587 19.4819 33.4876 19.1211C32.3883 18.7603 31.391 18.1426 30.5783 17.3191C29.5899 16.2962 28.929 15.0205 28.0384 13.9115L28.0096 13.877C27.3808 13.1266 26.5242 12.6021 25.57 12.3833C24.6157 12.1644 23.616 12.2631 22.723 12.6645C21.603 13.1571 20.6211 13.9172 19.8637 14.8781C19.1062 15.839 18.5964 16.9712 18.379 18.1753C17.8158 20.9938 17.4813 23.8533 17.379 26.7257C17.3832 28.7988 18.088 30.8096 19.3788 32.4318C19.8616 33.03 20.2218 33.7175 20.4387 34.455C20.6556 35.1925 20.725 35.9656 20.643 36.73L20.5624 37.4196C20.5326 37.6829 20.4458 37.9365 20.3078 38.1628C20.1699 38.3891 19.9842 38.5825 19.7638 38.7297C19.6082 38.8386 19.4352 38.9202 19.2523 38.971L10.834 41.4132C9.62576 41.7235 8.50764 42.3141 7.57018 43.1371C5.85397 44.5564 4.67734 46.5221 4.2373 48.7053V67.0301C4.2373 69.9074 5.3803 72.6669 7.41487 74.7015C9.44945 76.7361 12.2089 77.8791 15.0862 77.8791H57.9593" stroke="#1D1D1D" stroke-width="3" stroke-linecap="round" stroke-linejoin="round"/>
<path d="M57.8271 35.3792V29.2422" stroke="#1D1D1D" stroke-width="3" stroke-linecap="round" stroke-linejoin="round"/>
<path d="M62.665 35.3798L65.5899 29.7656" stroke="#1D1D1D" stroke-width="3" stroke-linecap="round" stroke-linejoin="round"/>
<path d="M52.9891 35.381L51.3916 32.3125" stroke="#1D1D1D" stroke-width="3" stroke-linecap="round" stroke-linejoin="round"/>
<path d="M57.9591 52.7625C57.9591 52.7625 55.6606 49.3148 49.5121 49.0332L48.5869 62.0715" stroke="#1D1D1D" stroke-width="3" stroke-linecap="round" stroke-linejoin="round"/>
<path d="M67.3079 62.0715L66.3827 49.0332C60.2284 49.3205 57.9414 52.7625 57.9414 52.7625V63.8471" stroke="#1D1D1D" stroke-width="3" stroke-linecap="round" stroke-linejoin="round"/>
<path d="M49.3391 51.4395H45.5294L44.5008 63.7308C44.4883 63.8707 44.5075 64.0117 44.5569 64.1433C44.6063 64.2748 44.6847 64.3935 44.7863 64.4906C44.8878 64.5878 45.0098 64.6608 45.1434 64.7043C45.277 64.7478 45.4187 64.7608 45.558 64.7421C47.2129 64.5352 50.5515 64.4721 54.8957 66.2821C54.9337 66.3964 54.9798 66.5077 55.0336 66.6154C55.3022 67.1594 55.7177 67.6175 56.2331 67.9378C56.7484 68.2581 57.3432 68.4278 57.9499 68.4278C58.5567 68.4278 59.1513 68.2581 59.6667 67.9378C60.182 67.6175 60.5975 67.1594 60.8662 66.6154C60.9199 66.5077 60.966 66.3964 61.0041 66.2821C65.3483 64.4721 68.6868 64.5582 70.3418 64.7421C70.481 64.7608 70.6227 64.7478 70.7563 64.7043C70.8899 64.6608 71.012 64.5878 71.1135 64.4906C71.215 64.3935 71.2935 64.2748 71.3429 64.1433C71.3923 64.0117 71.4114 63.8707 71.399 63.7308L70.3705 51.4395H66.5779" stroke="#1D1D1D" stroke-width="3" stroke-linecap="round" stroke-linejoin="round"/>
<path d="M38.8018 58.7327C38.8018 54.9469 39.9244 51.2462 42.0276 48.0985C44.1308 44.9508 47.1203 42.4975 50.6178 41.0488C54.1154 39.6001 57.9639 39.221 61.6769 39.9596C65.3899 40.6981 68.8004 42.5211 71.4773 45.198C74.1542 47.8749 75.9772 51.2855 76.7157 54.9985C77.4543 58.7114 77.0752 62.56 75.6265 66.0575C74.1778 69.5551 71.7245 72.5445 68.5768 74.6477C65.4291 76.7509 61.7284 77.8735 57.9427 77.8735" stroke="#1D1D1D" stroke-width="3" stroke-linecap="round" stroke-linejoin="round"/>
<path d="M27.5264 44.5234V67.0488" stroke="#1D1D1D" stroke-width="3" stroke-linecap="round" stroke-linejoin="round"/>
<path d="M11.7999 44.7308H11.6908H11.5816C10.9098 44.9314 10.29 45.2766 9.76574 45.7422C8.74622 46.5927 8.0205 47.7427 7.69141 49.029V66.9746C7.69445 68.9366 8.4752 70.8174 9.86254 72.2047C11.2499 73.5921 13.1306 74.3728 15.0925 74.3759H17.6555C17.1636 73.8875 16.7065 73.3653 16.2878 72.8129C14.7217 70.5978 13.7215 68.0332 13.3744 65.3427C13.0335 62.6602 12.9105 59.9544 13.0067 57.252C13.0067 55.1316 13.0642 52.925 13.9951 51.0172C15.1098 48.7187 17.3912 47.1844 19.8161 46.4202C20.9637 46.0593 22.1432 45.8092 23.3385 45.6732L19.1725 42.5645L11.7999 44.7308Z" fill="#2D8B7D"/>
</svg>
