<svg width="80" height="80" viewBox="0 0 80 80" fill="none" xmlns="http://www.w3.org/2000/svg">
<path d="M24.8271 40.1063C25.898 41.5244 27.3133 42.6454 28.9389 43.3631C30.5645 44.0808 32.3465 44.3714 34.1159 44.2072C35.8853 44.043 37.5833 43.4295 39.0491 42.425C40.5149 41.4205 41.6998 40.0582 42.4914 38.4673C43.283 36.8763 43.655 35.1096 43.5723 33.3346C43.4895 31.5595 42.9547 29.835 42.0186 28.3246C41.0824 26.8143 39.7759 25.5681 38.223 24.7043C36.6701 23.8404 34.9223 23.3875 33.1454 23.3887" stroke="#1D1D1D" stroke-width="3" stroke-linecap="round" stroke-linejoin="round"/>
<path d="M33.9459 33.8162C33.9469 33.9751 33.9008 34.1307 33.8133 34.2633C33.7258 34.3959 33.601 34.4994 33.4545 34.561C33.3081 34.6225 33.1466 34.6392 32.9907 34.6088C32.8347 34.5785 32.6914 34.5026 32.5787 34.3907C32.466 34.2787 32.389 34.1357 32.3576 33.98C32.3262 33.8243 32.3418 33.6628 32.4023 33.5159C32.4629 33.3691 32.5657 33.2435 32.6978 33.1551C32.8298 33.0668 32.985 33.0195 33.1439 33.0195C33.3556 33.0195 33.5588 33.1033 33.709 33.2525C33.8593 33.4017 33.9444 33.6045 33.9459 33.8162V33.8162Z" stroke="#1D1D1D" stroke-width="3" stroke-linecap="round" stroke-linejoin="round"/>
<path d="M33.1446 14.1621V33.8221L17.6191 45.5651" stroke="#1D1D1D" stroke-width="3" stroke-linecap="round" stroke-linejoin="round"/>
<path d="M41.9075 62.9479C35.5045 64.8642 28.6481 64.6131 22.4024 62.2335C16.1568 59.8539 10.8714 55.479 7.36683 49.7879C3.86226 44.0969 2.33451 37.408 3.02079 30.7597C3.70706 24.1114 6.56889 17.8757 11.1621 13.0206C15.7553 8.16538 21.8229 4.96234 28.423 3.90875C35.023 2.85517 41.7863 4.00996 47.6628 7.19382C53.5393 10.3777 58.2004 15.4125 60.9224 21.5167C63.6444 27.6209 64.2751 34.453 62.7165 40.9523" stroke="#1D1D1D" stroke-width="3" stroke-linecap="round" stroke-linejoin="round"/>
<path d="M2.73438 33.8145H6.84744" stroke="#1D1D1D" stroke-width="3" stroke-linecap="round" stroke-linejoin="round"/>
<path d="M59.4453 33.8145H63.5582" stroke="#1D1D1D" stroke-width="3" stroke-linecap="round" stroke-linejoin="round"/>
<path d="M33.1455 3.4043V7.52272" stroke="#1D1D1D" stroke-width="3" stroke-linecap="round" stroke-linejoin="round"/>
<path d="M33.1455 60.1133V64.2318" stroke="#1D1D1D" stroke-width="3" stroke-linecap="round" stroke-linejoin="round"/>
<path d="M74.0923 60.1205C75.8444 51.0219 69.8889 42.2256 60.7903 40.4735C51.6917 38.7214 42.8953 44.6769 41.1432 53.7755C39.3911 62.8741 45.3467 71.6704 54.4453 73.4225C63.544 75.1746 72.3402 69.2191 74.0923 60.1205Z" stroke="#1D1D1D" stroke-width="3" stroke-linecap="round" stroke-linejoin="round"/>
<path d="M63.8652 58.2166V52.207" stroke="#1D1D1D" stroke-width="3" stroke-linecap="round" stroke-linejoin="round"/>
<path d="M14.4336 32.8034C14.3196 34.7963 14.5281 36.7945 15.0513 38.7209L17.918 36.6997C17.2573 33.156 17.8525 29.493 19.6012 26.3409C21.3499 23.1887 24.1427 20.7447 27.4988 19.4294V15.9883C23.8703 17.1312 20.676 19.3527 18.3419 22.3568C16.0077 25.3609 14.6444 29.005 14.4336 32.8034Z" fill="#2D8B7D"/>
</svg>
