<svg width="80" height="81" viewBox="0 0 80 81" fill="none" xmlns="http://www.w3.org/2000/svg">
<path d="M58.5342 19.4546C58.5137 19.9877 58.6011 20.5193 58.791 21.0178C58.9809 21.5163 59.2695 21.9714 59.6394 22.3557C60.0093 22.7401 60.453 23.0458 60.9438 23.2546C61.4347 23.4635 61.9627 23.5712 62.4961 23.5712C63.0295 23.5712 63.5576 23.4635 64.0484 23.2546C64.5393 23.0458 64.983 22.7401 65.3529 22.3557C65.7228 21.9714 66.0113 21.5163 66.2012 21.0178C66.3912 20.5193 66.4785 19.9877 66.4581 19.4546C66.4581 17.2661 64.8326 16.2559 62.4932 15.4897C60.415 14.8105 58.5342 13.7482 58.5342 11.5306C58.5137 10.9976 58.6011 10.4659 58.791 9.9674C58.9809 9.4689 59.2695 9.01385 59.6394 8.6295C60.0093 8.24515 60.453 7.93938 60.9438 7.73054C61.4347 7.52169 61.9627 7.41406 62.4961 7.41406C63.0295 7.41406 63.5576 7.52169 64.0484 7.73054C64.5393 7.93938 64.983 8.24515 65.3529 8.6295C65.7228 9.01385 66.0113 9.4689 66.2012 9.9674C66.3912 10.4659 66.4785 10.9976 66.4581 11.5306" stroke="#1D1D1D" stroke-width="3" stroke-linecap="round" stroke-linejoin="round"/>
<path d="M62.4922 5.35352V7.58846" stroke="#1D1D1D" stroke-width="3" stroke-linecap="round" stroke-linejoin="round"/>
<path d="M62.4922 23.416V25.651" stroke="#1D1D1D" stroke-width="3" stroke-linecap="round" stroke-linejoin="round"/>
<path d="M6.51465 78.4737V65.6387C6.51465 64.7518 6.8669 63.9014 7.49397 63.2743C8.12105 62.6472 8.97157 62.2949 9.85839 62.2949H28.9049" stroke="#1D1D1D" stroke-width="3" stroke-linecap="round" stroke-linejoin="round"/>
<path d="M28.9043 62.296V49.4609C28.9043 48.5741 29.2566 47.7237 29.8837 47.0966C30.5108 46.4695 31.3612 46.1172 32.248 46.1172H51.3004" stroke="#1D1D1D" stroke-width="3" stroke-linecap="round" stroke-linejoin="round"/>
<path d="M51.3008 46.1162V33.2754C51.3008 32.3886 51.653 31.5381 52.2801 30.911C52.9072 30.284 53.7577 29.9316 54.6445 29.9316H73.691" stroke="#1D1D1D" stroke-width="3" stroke-linecap="round" stroke-linejoin="round"/>
<path d="M21.457 11.2825C22.1294 8.43362 20.365 5.57908 17.5161 4.90669C14.6673 4.23429 11.8127 5.99867 11.1403 8.84754C10.4679 11.6964 12.2323 14.5509 15.0812 15.2233C17.93 15.8957 20.7846 14.1313 21.457 11.2825Z" stroke="#1D1D1D" stroke-width="3" stroke-linecap="round" stroke-linejoin="round"/>
<path d="M20.1221 39.168V57.5701" stroke="#1D1D1D" stroke-width="3" stroke-linecap="round" stroke-linejoin="round"/>
<path d="M12.54 57.2567V39.168" stroke="#1D1D1D" stroke-width="3" stroke-linecap="round" stroke-linejoin="round"/>
<path d="M16.3311 23.5625V25.7743C16.3311 26.812 16.7432 27.8071 17.477 28.5409C18.2107 29.2747 19.206 29.6869 20.2437 29.6869H28.8584" stroke="#1D1D1D" stroke-width="3" stroke-linecap="round" stroke-linejoin="round"/>
<path d="M12.5283 62.2966V57.2578H18.3683C19.7047 57.2578 20.9862 57.7886 21.9312 58.7336C22.8762 59.6786 23.4071 60.9602 23.4071 62.2966V62.2966" stroke="#1D1D1D" stroke-width="3" stroke-linecap="round" stroke-linejoin="round"/>
<path d="M22.4721 26.2057V24.2668C22.4721 22.6379 21.8251 21.0757 20.6733 19.9239C19.5215 18.772 17.9593 18.125 16.3304 18.125C14.7015 18.125 13.1393 18.772 11.9875 19.9239C10.8357 21.0757 10.1885 22.6379 10.1885 24.2668V29.7642C10.1797 33.042 10.9772 36.2715 12.5106 39.1685H20.0921C21.0931 37.2922 21.7868 35.2677 22.147 33.1718" stroke="#1D1D1D" stroke-width="3" stroke-linecap="round" stroke-linejoin="round"/>
<path d="M40.6141 71.8973H20.1221C20.1221 71.1275 20.4279 70.3892 20.9722 69.8449C21.5165 69.3005 22.2548 68.9947 23.0246 68.9947H40.6141C45.1306 68.9942 49.4955 67.3649 52.9077 64.4058C56.3199 61.4468 58.5505 57.3566 59.1904 52.8856C59.3032 52.1488 59.6773 51.4772 60.2442 50.9933C60.8112 50.5095 61.5333 50.2456 62.2786 50.2501C62.2725 55.9924 59.9875 61.4975 55.9254 65.5563C51.8634 69.6151 46.3564 71.8957 40.6141 71.8973Z" fill="#2D8B7D"/>
<path d="M20.1221 75.6725H40.6141C47.356 75.6725 53.8218 72.9942 58.5891 68.227C63.3564 63.4597 66.0346 56.9939 66.0346 50.2519V42.5254" stroke="#1D1D1D" stroke-width="3" stroke-linecap="round" stroke-linejoin="round"/>
<path d="M60.4902 43.6389L66.1038 38.0254L71.3284 43.25" stroke="#1D1D1D" stroke-width="3" stroke-linecap="round" stroke-linejoin="round"/>
</svg>
