<svg width="80" height="81" viewBox="0 0 80 81" fill="none" xmlns="http://www.w3.org/2000/svg">
<g clip-path="url(#clip0)">
<path d="M11.3042 26.7422C11.1844 27.0955 11.0708 27.4487 10.9761 27.8084C10.1653 30.8509 9.95104 34.0216 10.3453 37.1455C10.3957 37.5809 10.4715 38.0098 10.5472 38.4451C10.9448 40.7553 10.4608 43.1307 9.19084 45.101L5.702 50.1482C5.702 50.1482 4.66102 52.3689 7.26028 52.8421C7.74377 52.8885 8.21897 52.9988 8.67347 53.1701C8.76421 53.2095 8.84436 53.2696 8.90758 53.3457C8.97081 53.4217 9.01532 53.5116 9.03743 53.608C9.05953 53.7044 9.05874 53.8046 9.03496 53.9006C9.01119 53.9966 8.96519 54.0857 8.90065 54.1606C8.51581 54.6085 8.16241 55.353 9.26646 55.9461C9.34696 55.9847 9.41839 56.0399 9.47594 56.1082C9.53348 56.1765 9.57579 56.2562 9.60024 56.3421C9.62469 56.4279 9.63075 56.518 9.6178 56.6064C9.60484 56.6947 9.5733 56.7793 9.52523 56.8545C9.17193 57.4854 8.97005 58.3623 10.4779 58.8103C10.6359 58.8493 10.7726 58.9479 10.8596 59.0855C10.9466 59.2231 10.9772 59.3889 10.9447 59.5484C10.5914 61.3717 9.96671 66.7406 14.9003 66.6586L18.9759 66.2611C20.3636 66.1221 21.7528 66.5091 22.8686 67.3457C23.9844 68.1822 24.7453 69.4072 25.0008 70.7782C25.4155 73.4091 25.6034 76.0708 25.5624 78.7338" stroke="#1D1D1D" stroke-width="3" stroke-linecap="round" stroke-linejoin="round"/>
<path d="M56.7857 78.6322C57.0983 77.8129 57.1711 76.9215 56.9957 76.0624C56.8203 75.2033 56.4039 74.4118 55.7952 73.7806L55.1076 73.0614C51.6188 69.4465 49.9153 60.5256 50.8995 55.346C50.9813 54.9142 51.1902 54.5167 51.4993 54.2042C51.8084 53.8918 52.2036 53.6786 52.6344 53.5921C52.8433 53.6199 53.0557 53.6029 53.2575 53.5422C53.4592 53.4814 53.6458 53.3784 53.8046 53.2399C53.9634 53.1014 54.0908 52.9306 54.1784 52.739C54.266 52.5474 54.3119 52.3392 54.3127 52.1285V51.5417C54.3127 51.1536 54.1584 50.7813 53.8839 50.5069C53.6094 50.2324 53.2372 50.0781 52.849 50.0781C51.5872 50.0781 51.1141 50.198 50.9563 49.6491C50.7887 49.0489 50.8587 48.4072 51.1519 47.8574L52.8048 42.8103C53.0525 42.0579 53.1107 41.256 52.9742 40.4757C52.8378 39.6954 52.5109 38.9609 52.0225 38.3373L48.3823 33.6939C48.2476 33.5244 48.0764 33.3875 47.8814 33.2934C47.6864 33.1993 47.4727 33.1504 47.2562 33.1504C47.0397 33.1504 46.826 33.1993 46.631 33.2934C46.436 33.3875 46.2646 33.5244 46.1299 33.6939L42.4899 38.3373C42.0004 38.9604 41.6723 39.6946 41.5347 40.4749C41.3972 41.2552 41.4544 42.0574 41.7012 42.8103C43.739 48.9993 43.8021 48.8038 43.556 49.6365C43.5121 49.7671 43.4267 49.8797 43.3128 49.9571C43.1989 50.0346 43.0627 50.0727 42.9251 50.0655H41.84C41.4518 50.0655 41.0795 50.2197 40.805 50.4942C40.5305 50.7687 40.3763 51.141 40.3763 51.5292V52.1159C40.3763 52.5041 40.5305 52.8764 40.805 53.1509C41.0795 53.4253 41.4518 53.5796 41.84 53.5796C42.3276 53.6792 42.7685 53.9375 43.0938 54.3141C43.4191 54.6908 43.6104 55.1646 43.638 55.6615C44.4834 60.6076 42.8556 69.4338 39.3731 73.0488C38.9126 73.5283 36.5216 75.5723 37.6887 78.6195L56.7857 78.6322Z" stroke="#1D1D1D" stroke-width="3" stroke-linecap="round" stroke-linejoin="round"/>
<path d="M47.2393 33.1619V24.4746" stroke="#1D1D1D" stroke-width="3" stroke-linecap="round" stroke-linejoin="round"/>
<path d="M43.752 28.5195H50.7295" stroke="#1D1D1D" stroke-width="3" stroke-linecap="round" stroke-linejoin="round"/>
<path d="M35.6958 53.5027C35.9073 50.058 35.2117 46.618 33.6785 43.5261C32.1453 40.4342 29.828 37.7985 26.9579 35.8819C24.0874 33.9892 20.7879 32.9546 17.7028 31.4657C14.6178 29.9768 11.6021 27.9264 10.1321 24.8476C9.32692 23.1737 9.02967 21.3006 9.27714 19.4596C9.5246 17.6186 10.3059 15.8905 11.5245 14.4886C12.7432 13.0868 14.3459 12.0726 16.1345 11.5714C17.9231 11.0702 19.8193 11.1039 21.589 11.6684C21.589 11.6684 28.0493 13.662 29.942 17.9205" stroke="#1D1D1D" stroke-width="3" stroke-linecap="round" stroke-linejoin="round"/>
<path d="M17.6328 11.2591C17.6328 11.2591 24.6546 3.68845 37.5248 3.73261C51.4863 3.80832 62.1294 10.2371 66.8169 22.6593C68.0876 26.068 68.662 29.6968 68.506 33.3313C68.3499 36.9658 67.4667 40.532 65.9085 43.8193" stroke="#1D1D1D" stroke-width="3" stroke-linecap="round" stroke-linejoin="round"/>
<path d="M63.1132 39.2207C66.5407 43.6367 68.3052 49.1178 68.0976 54.704C67.89 60.2902 65.7235 65.6253 61.9775 69.7746" stroke="#1D1D1D" stroke-width="3" stroke-linecap="round" stroke-linejoin="round"/>
<path d="M24.375 26.5254C27.3646 27.2316 30.1329 28.6671 32.4325 30.7036C34.7322 32.7402 36.4919 35.3146 37.5544 38.1968" stroke="#1D1D1D" stroke-width="3" stroke-linecap="round" stroke-linejoin="round"/>
<path d="M63.2777 23.9985C58.1928 10.4659 46.4582 7.59535 37.5058 7.51965H37.3544C34.7422 7.51202 32.1428 7.8861 29.6387 8.63002C32.7553 9.47541 35.9476 10.0495 39.102 10.8192C43.758 11.9485 48.4644 13.633 51.8838 16.983C55.7827 20.8125 57.5618 26.3517 61.1579 30.4588C62.2008 31.6277 63.3856 32.6619 64.6846 33.5375C64.8893 30.2944 64.41 27.0444 63.2777 23.9985Z" fill="#2D8B7D"/>
</g>
<defs>
<clipPath id="clip0">
<rect width="80" height="80" fill="white" transform="translate(0 0.414062)"/>
</clipPath>
</defs>
</svg>
