<svg width="80" height="80" viewBox="0 0 80 80" fill="none" xmlns="http://www.w3.org/2000/svg">
<path d="M70.8755 50.8204H9.09601C7.43335 50.8204 5.83874 51.4805 4.66253 52.6556C3.48631 53.8308 2.82477 55.4248 2.82324 57.0875V77.2111H12.9655C13.6837 77.2111 14.3726 76.9258 14.8804 76.4179C15.3883 75.9101 15.6737 75.2213 15.6737 74.5031V74.2903C15.6737 72.4132 16.4193 70.6129 17.7467 69.2855C19.074 67.9582 20.8742 67.2125 22.7513 67.2125H57.2489C59.1261 67.2125 60.9264 67.9582 62.2537 69.2855C63.5811 70.6129 64.3267 72.4132 64.3267 74.2903V74.5031C64.3267 75.2213 64.6121 75.9101 65.12 76.4179C65.6278 76.9258 66.3166 77.2111 67.0348 77.2111H77.1772V57.0875C77.1772 56.2616 77.0139 55.4438 76.6968 54.6812C76.3797 53.9186 75.9149 53.2262 75.3293 52.6438C74.7437 52.0614 74.0487 51.6005 73.2844 51.2876C72.52 50.9746 71.7014 50.8159 70.8755 50.8204Z" stroke="#1D1D1D" stroke-width="3" stroke-linecap="round" stroke-linejoin="round"/>
<path d="M48.1826 37.252V50.821" stroke="#1D1D1D" stroke-width="3" stroke-linecap="round" stroke-linejoin="round"/>
<path d="M31.5654 37.252V50.821" stroke="#1D1D1D" stroke-width="3" stroke-linecap="round" stroke-linejoin="round"/>
<path d="M42.9414 20.9432C46.8784 19.3124 48.7481 14.7988 47.1173 10.8618C45.4865 6.92472 40.9728 5.05514 37.0358 6.68592C33.0988 8.31669 31.2292 12.8303 32.86 16.7673C34.4908 20.7044 39.0043 22.574 42.9414 20.9432Z" stroke="#1D1D1D" stroke-width="3" stroke-linecap="round" stroke-linejoin="round"/>
<path d="M25.3037 50.8192V31.328C25.3037 29.9978 25.8316 28.722 26.7717 27.7808C27.7118 26.8397 28.9871 26.3101 30.3173 26.3086H49.6705C51.0017 26.3086 52.2784 26.8375 53.2198 27.7788C54.1611 28.7201 54.6899 29.9968 54.6899 31.328V50.8192" stroke="#1D1D1D" stroke-width="3" stroke-linecap="round" stroke-linejoin="round"/>
<path d="M39.9893 26.3086V35.2493" stroke="#1D1D1D" stroke-width="3" stroke-linecap="round" stroke-linejoin="round"/>
<path d="M67.4951 32.5781V43.0596" stroke="#1D1D1D" stroke-width="3" stroke-linecap="round" stroke-linejoin="round"/>
<path d="M66.8865 15.7782C67.6429 12.5733 65.6581 9.36202 62.4532 8.60561C59.2484 7.84919 56.0371 9.83411 55.2807 13.039C54.5243 16.2438 56.5092 19.455 59.714 20.2114C62.9189 20.9678 66.1301 18.983 66.8865 15.7782Z" stroke="#1D1D1D" stroke-width="3" stroke-linecap="round" stroke-linejoin="round"/>
<path d="M54.6562 24.123H68.6451C69.6729 24.123 70.6585 24.5313 71.3853 25.258C72.112 25.9848 72.5203 26.9705 72.5203 27.9983V43.0565" stroke="#1D1D1D" stroke-width="3" stroke-linecap="round" stroke-linejoin="round"/>
<path d="M61.165 24.123V31.0283" stroke="#1D1D1D" stroke-width="3" stroke-linecap="round" stroke-linejoin="round"/>
<path d="M12.3154 32.5781V43.0596" stroke="#1D1D1D" stroke-width="3" stroke-linecap="round" stroke-linejoin="round"/>
<path d="M21.1032 19.9716C24.1454 18.7114 25.59 15.2237 24.3299 12.1814C23.0698 9.13918 19.582 7.69447 16.5398 8.95461C13.4975 10.2148 12.0528 13.7026 13.3129 16.7448C14.5731 19.7871 18.0609 21.2317 21.1032 19.9716Z" stroke="#1D1D1D" stroke-width="3" stroke-linecap="round" stroke-linejoin="round"/>
<path d="M7.47461 43.0565V27.9983C7.47613 26.97 7.88564 25.9842 8.6133 25.2577C9.34096 24.5311 10.3273 24.123 11.3556 24.123H25.8847" stroke="#1D1D1D" stroke-width="3" stroke-linecap="round" stroke-linejoin="round"/>
<path d="M18.8242 24.123V31.0283" stroke="#1D1D1D" stroke-width="3" stroke-linecap="round" stroke-linejoin="round"/>
<path d="M73.6991 57.0869C73.6975 56.3391 73.3994 55.6225 72.8702 55.0944C72.3409 54.5662 71.6236 54.2695 70.8759 54.2695H9.09644C8.34872 54.2695 7.63159 54.5662 7.10233 55.0944C6.57307 55.6225 6.27496 56.3391 6.27344 57.0869V59.3119H73.6991V57.0869Z" fill="#2D8B7D"/>
</svg>
