<svg width="68" height="68" viewBox="0 0 68 68" fill="none" xmlns="http://www.w3.org/2000/svg">
<path d="M9.5957 56.5148L14.594 60.9672L21.7962 52.1619" stroke="#1D1D1D" stroke-width="3" stroke-linecap="round" stroke-linejoin="round"/>
<path d="M28.1493 47.4214H1.8623V66H28.1493V47.4214Z" stroke="#1D1D1D" stroke-width="3" stroke-linecap="round" stroke-linejoin="round"/>
<path d="M25.2311 44.6618C25.2318 43.3186 24.9678 41.9885 24.4543 40.7474C23.9407 39.5063 23.1876 38.3785 22.2381 37.4285C21.2886 36.4785 20.1612 35.7249 18.9203 35.2107C17.6794 34.6966 16.3494 34.4319 15.0062 34.4319C12.293 34.4319 9.69103 35.5097 7.77255 37.4282C5.85408 39.3467 4.77637 41.9487 4.77637 44.6618" stroke="#1D1D1D" stroke-width="3" stroke-linecap="round" stroke-linejoin="round"/>
<path d="M31.1273 49.4917C33.8315 49.9084 36.5986 49.5285 39.0905 48.3985C41.5823 47.2685 43.6911 45.4372 45.1593 43.1284C46.6275 40.8196 47.3916 38.1332 47.3581 35.3973C47.3247 32.6614 46.4952 29.9944 44.971 27.7222C43.4468 25.45 41.2939 23.6708 38.7752 22.602C36.2564 21.5332 33.481 21.2212 30.7878 21.7038C28.0946 22.1865 25.6002 23.443 23.6094 25.32C21.6186 27.1969 20.2174 29.613 19.5771 32.2731" stroke="#1D1D1D" stroke-width="3" stroke-linecap="round" stroke-linejoin="round"/>
<path d="M36.915 21.9634L56.8784 2H62.9936C63.894 2 64.7574 2.35771 65.3941 2.99441C66.0308 3.63111 66.3885 4.49462 66.3885 5.39505V11.5102L63.3211 14.5776V19.3178H58.695V24.0382L54.0244 23.9886V28.7139H49.3983L46.7577 31.3544" stroke="#1D1D1D" stroke-width="3" stroke-linecap="round" stroke-linejoin="round"/>
<path d="M46.7285 21.9885L58.8246 9.89233" stroke="#1D1D1D" stroke-width="3" stroke-linecap="round" stroke-linejoin="round"/>
<path d="M36.7606 39.0632C37.4591 38.3707 37.9362 37.4864 38.1313 36.5224C38.3263 35.5583 38.2306 34.5581 37.8562 33.6486C37.4818 32.7391 36.8456 31.9613 36.0284 31.414C35.2112 30.8667 34.2498 30.5745 33.2662 30.5745C32.2827 30.5745 31.3214 30.8667 30.5042 31.414C29.687 31.9613 29.0508 32.7391 28.6764 33.6486C28.302 34.5581 28.2063 35.5583 28.4013 36.5224C28.5964 37.4864 29.0734 38.3707 29.7719 39.0632C30.7014 39.9846 31.9574 40.5016 33.2662 40.5016C34.5751 40.5016 35.831 39.9846 36.7606 39.0632V39.0632Z" stroke="#1D1D1D" stroke-width="3" stroke-linecap="round" stroke-linejoin="round"/>
<path d="M21.096 44.6616C21.096 44.6616 20.8479 40.7603 17.4131 39.0627" stroke="#1D1D1D" stroke-width="3" stroke-linecap="round" stroke-linejoin="round"/>
<path d="M25.171 55.4919C23.3146 57.8596 21.1704 60.5995 19.2793 63.0217H25.171V55.4919Z" fill="#2D8B7D"/>
</svg>
