<svg width="81" height="81" viewBox="0 0 81 81" fill="none" xmlns="http://www.w3.org/2000/svg">
<path d="M22.6678 44.1077C23.4443 40.8177 21.4068 37.5211 18.1168 36.7446C14.8268 35.9681 11.5301 38.0057 10.7536 41.2957C9.97712 44.5857 12.0148 47.8822 15.3048 48.6587C18.5948 49.4352 21.8913 47.3977 22.6678 44.1077Z" stroke="#1D1D1D" stroke-width="3" stroke-linecap="round" stroke-linejoin="round"/>
<path d="M16.7705 58.293V60.8293C16.772 62.0277 17.2492 63.1765 18.0972 64.0234C18.9451 64.8703 20.0946 65.3461 21.2931 65.3461H34.0615" stroke="#1D1D1D" stroke-width="3" stroke-linecap="round" stroke-linejoin="round"/>
<path d="M21.1484 76.3135C22.3752 74.0143 23.2034 71.5238 23.5979 68.9478" stroke="#1D1D1D" stroke-width="3" stroke-linecap="round" stroke-linejoin="round"/>
<path d="M23.8639 62.0398V59.0924C23.8624 57.2115 23.1146 55.4081 21.7846 54.0781C20.4546 52.7481 18.6512 52.0003 16.7703 51.9988V51.9988C14.8895 52.0003 13.0862 52.7481 11.7562 54.0781C10.4263 55.4081 9.67829 57.2115 9.67676 59.0924V65.4621C9.67735 69.2493 10.6102 72.9782 12.3927 76.3197V76.3197" stroke="#1D1D1D" stroke-width="3" stroke-linecap="round" stroke-linejoin="round"/>
<path d="M34.2012 52.3865C35.2361 51.3533 36.0572 50.1262 36.6174 48.7753C37.1776 47.4245 37.4659 45.9764 37.4659 44.514C37.4659 43.0516 37.1776 41.6036 36.6174 40.2528C36.0572 38.902 35.2361 37.6748 34.2012 36.6416" stroke="#1D1D1D" stroke-width="3" stroke-linecap="round" stroke-linejoin="round"/>
<path d="M31.2822 49.4679C31.9341 48.8181 32.4512 48.046 32.8041 47.1959C33.157 46.3458 33.3387 45.4344 33.3387 44.5139C33.3387 43.5935 33.157 42.6822 32.8041 41.8321C32.4512 40.982 31.9341 40.2099 31.2822 39.5601" stroke="#1D1D1D" stroke-width="3" stroke-linecap="round" stroke-linejoin="round"/>
<path d="M27.8721 46.9893C28.2003 46.666 28.4611 46.2807 28.639 45.8557C28.817 45.4307 28.9085 44.9745 28.9085 44.5138C28.9085 44.053 28.817 43.5969 28.639 43.1719C28.4611 42.7469 28.2003 42.3616 27.8721 42.0383" stroke="#1D1D1D" stroke-width="3" stroke-linecap="round" stroke-linejoin="round"/>
<path d="M69.2545 45.1084C70.5482 41.9853 69.0651 38.4048 65.9421 37.1112C62.819 35.8176 59.2385 37.3007 57.9449 40.4237C56.6512 43.5468 58.1343 47.1273 61.2574 48.4209C64.3805 49.7146 67.9609 48.2314 69.2545 45.1084Z" stroke="#1D1D1D" stroke-width="3" stroke-linecap="round" stroke-linejoin="round"/>
<path d="M63.5948 58.293V60.8293C63.5948 62.0272 63.1189 63.176 62.2718 64.0231C61.4248 64.8701 60.276 65.3461 59.0781 65.3461H46.3096" stroke="#1D1D1D" stroke-width="3" stroke-linecap="round" stroke-linejoin="round"/>
<path d="M59.222 76.3135C57.9995 74.0129 57.1734 71.5228 56.7783 68.9478" stroke="#1D1D1D" stroke-width="3" stroke-linecap="round" stroke-linejoin="round"/>
<path d="M56.5127 62.0398V59.0924C56.5127 57.212 57.2593 55.4086 58.5884 54.0785C59.9174 52.7483 61.7202 52.0003 63.6005 51.9988V51.9988C65.4818 51.9988 67.2861 52.7461 68.6164 54.0764C69.9467 55.4067 70.6941 57.211 70.6941 59.0924V65.4621C70.6917 69.2484 69.7613 72.9764 67.9841 76.3197V76.3197" stroke="#1D1D1D" stroke-width="3" stroke-linecap="round" stroke-linejoin="round"/>
<path d="M58.4761 27.9907L63.8209 33.2023V10.7229C63.8194 9.25413 63.2349 7.84609 62.1958 6.80808C61.1567 5.77006 59.748 5.18701 58.2793 5.18701H39.3726C37.9039 5.18701 36.4953 5.77006 35.4562 6.80808C34.417 7.84609 33.8326 9.25413 33.8311 10.7229V22.4722C33.8326 23.9415 34.4169 25.3501 35.4559 26.389C36.4948 27.428 37.9034 28.0123 39.3726 28.0138L58.4761 27.9907Z" stroke="#1D1D1D" stroke-width="3" stroke-linecap="round" stroke-linejoin="round"/>
<path d="M45.9092 19.0496C45.9092 19.8228 46.2164 20.5645 46.7632 21.1112C47.31 21.658 48.0516 21.9652 48.8249 21.9652C49.5981 21.9652 50.3396 21.658 50.8864 21.1112C51.4332 20.5645 51.7404 19.8228 51.7404 19.0496C51.7404 17.4398 50.5418 16.6986 48.8451 16.1542C47.3164 15.6562 45.9498 14.8513 45.9498 13.2589C45.9498 12.4856 46.2569 11.744 46.8037 11.1972C47.3504 10.6504 48.092 10.3433 48.8653 10.3433C49.6386 10.3433 50.3802 10.6504 50.927 11.1972C51.4738 11.744 51.781 12.4856 51.781 13.2589" stroke="#1D1D1D" stroke-width="3" stroke-linecap="round" stroke-linejoin="round"/>
<path d="M48.8232 8.68408V10.3287" stroke="#1D1D1D" stroke-width="3" stroke-linecap="round" stroke-linejoin="round"/>
<path d="M48.8232 21.968V23.6126" stroke="#1D1D1D" stroke-width="3" stroke-linecap="round" stroke-linejoin="round"/>
<path d="M39.3728 8.63745C38.8256 8.63745 38.3007 8.85447 37.9131 9.24091C37.5256 9.62734 37.3072 10.1517 37.3057 10.699V22.4482C37.3057 22.9965 37.5233 23.5223 37.911 23.91C38.2987 24.2977 38.8246 24.5155 39.3728 24.5155H42.3898C40.5829 19.3771 40.5829 13.7759 42.3898 8.63745H39.3728Z" fill="#2D8B7D"/>
</svg>
