<svg width="81" height="81" viewBox="0 0 81 81" fill="none" xmlns="http://www.w3.org/2000/svg">
<path d="M23.3967 68.5748C25.1802 68.7775 30.0849 68.8702 32.905 66.9071C33.328 66.5877 33.6151 66.1206 33.7091 65.5989C33.8031 65.0773 33.6972 64.5394 33.4123 64.0924C33.1274 63.6453 32.6846 63.3221 32.1721 63.1869C31.6595 63.0518 31.1149 63.1148 30.6467 63.3632C29.6605 63.8442 28.5854 64.1156 27.4891 64.1604C26.3928 64.2053 25.2991 64.0226 24.2769 63.6238C18.3067 59.8772 12.7303 60.5432 8.51465 63.5369" stroke="#1D1D1D" stroke-width="3" stroke-linecap="round" stroke-linejoin="round"/>
<path d="M8.49121 72.3153C8.49121 72.3153 15.3011 72.796 25.18 73.3577C31.1965 73.6993 35.2673 70.416 41.1333 64.7411C41.4695 64.4156 41.672 63.9762 41.7009 63.5091C41.7299 63.042 41.5832 62.5809 41.2897 62.2164V62.2164C41.0213 61.8777 40.6443 61.642 40.2222 61.5492C39.8002 61.4563 39.3591 61.512 38.9734 61.7068L33.7618 65.4708" stroke="#1D1D1D" stroke-width="3" stroke-linecap="round" stroke-linejoin="round"/>
<path d="M2.78711 76.5368H6.34256C6.87241 76.5368 7.38055 76.3263 7.75521 75.9517C8.12987 75.577 8.34036 75.0689 8.34036 74.539V60.8093C8.34112 60.5468 8.28999 60.2866 8.18986 60.0439C8.08974 59.8012 7.9426 59.5806 7.75694 59.395C7.57128 59.2093 7.35072 59.0622 7.108 58.9621C6.86527 58.8619 6.60513 58.8108 6.34256 58.8115H2.78711" stroke="#1D1D1D" stroke-width="3" stroke-linecap="round" stroke-linejoin="round"/>
<path d="M25.1797 48.5793C25.1797 49.424 25.5152 50.2341 26.1125 50.8314C26.7098 51.4286 27.5199 51.7642 28.3646 51.7642C29.2092 51.7642 30.0193 51.4286 30.6166 50.8314C31.2139 50.2341 31.5494 49.424 31.5494 48.5793C31.5494 46.8421 30.2523 46.0141 28.3762 45.406C26.7084 44.8617 25.2028 43.9815 25.2028 42.2327C25.2028 41.388 25.5384 40.578 26.1357 39.9807C26.7329 39.3834 27.543 39.0479 28.3877 39.0479C29.2324 39.0479 30.0425 39.3834 30.6398 39.9807C31.237 40.578 31.5726 41.388 31.5726 42.2327" stroke="#1D1D1D" stroke-width="3" stroke-linecap="round" stroke-linejoin="round"/>
<path d="M28.3535 37.2874V39.0767" stroke="#1D1D1D" stroke-width="3" stroke-linecap="round" stroke-linejoin="round"/>
<path d="M28.3535 51.7529V53.5423" stroke="#1D1D1D" stroke-width="3" stroke-linecap="round" stroke-linejoin="round"/>
<path d="M12.887 45.418C12.8916 41.3173 14.5226 37.3859 17.4222 34.4863C20.3218 31.5867 24.2532 29.9557 28.3539 29.9511C29.5235 29.9506 30.6893 30.0847 31.8283 30.3506C29.9083 29.2154 27.7655 28.509 25.5468 28.28C23.3282 28.0509 21.0862 28.3047 18.9748 29.0237C16.8634 29.7428 14.9326 30.9102 13.3149 32.4457C11.6972 33.9813 10.4309 35.8487 9.60288 37.9198C8.77487 39.9909 8.40476 42.2166 8.51798 44.4442C8.63119 46.6718 9.22503 48.8485 10.2588 50.8249C11.2925 52.8014 12.7416 54.5308 14.5067 55.8944C16.2718 57.2581 18.311 58.2237 20.4844 58.725C18.1713 57.3579 16.2542 55.4118 14.922 53.0784C13.5898 50.745 12.8884 48.1049 12.887 45.418Z" fill="#2D8B7D"/>
<path d="M36.8364 53.8989C41.5198 49.2156 41.5198 41.6223 36.8364 36.939C32.1531 32.2556 24.5598 32.2556 19.8765 36.939C15.1931 41.6223 15.1931 49.2156 19.8765 53.8989C24.5598 58.5823 32.1531 58.5823 36.8364 53.8989Z" stroke="#1D1D1D" stroke-width="3" stroke-linecap="round" stroke-linejoin="round"/>
<path d="M34.8965 31.1786V19.5046C34.8965 18.4511 35.315 17.4407 36.06 16.6957C36.805 15.9507 37.8154 15.5322 38.8689 15.5322H69.0789C70.1325 15.5322 71.1429 15.9507 71.8878 16.6957C72.6328 17.4407 73.0513 18.4511 73.0513 19.5046V36.0255C73.0513 37.079 72.6328 38.0894 71.8878 38.8344C71.1429 39.5793 70.1325 39.9979 69.0789 39.9979H43.0208" stroke="#1D1D1D" stroke-width="3" stroke-miterlimit="10" stroke-linecap="round"/>
<path d="M46.3682 15.532V10.1003C46.3682 9.11842 46.7579 8.17666 47.4516 7.48181C48.1454 6.78696 49.0865 6.39582 50.0684 6.39429H57.8743C58.8562 6.39582 59.7973 6.78696 60.4911 7.48181C61.1848 8.17666 61.5745 9.11842 61.5745 10.1003V15.532" stroke="#1D1D1D" stroke-width="3" stroke-miterlimit="10" stroke-linecap="round"/>
<path d="M73.9951 43.657L78.1586 47.8147" stroke="#1D1D1D" stroke-width="3" stroke-miterlimit="10" stroke-linecap="round"/>
<path d="M35.3076 4.96997L40.1139 9.77043" stroke="#1D1D1D" stroke-width="3" stroke-miterlimit="10" stroke-linecap="round"/>
<path d="M42.4189 22.2029H47.5205" stroke="#1D1D1D" stroke-width="3" stroke-miterlimit="10" stroke-linecap="round"/>
<path d="M61.0938 22.2029V32.4466" stroke="#1D1D1D" stroke-width="3" stroke-miterlimit="10" stroke-linecap="round"/>
</svg>
