<svg width="81" height="81" viewBox="0 0 81 81" fill="none" xmlns="http://www.w3.org/2000/svg">
<g clip-path="url(#clip0)">
<path d="M50.4615 18.7429H44.8271" stroke="#1D1D1D" stroke-width="3" stroke-linecap="round" stroke-linejoin="round"/>
<path d="M51.8221 26.4563L46.124 28.5294" stroke="#1D1D1D" stroke-width="3" stroke-linecap="round" stroke-linejoin="round"/>
<path d="M52.2571 11.0301L46.5996 8.97437" stroke="#1D1D1D" stroke-width="3" stroke-linecap="round" stroke-linejoin="round"/>
<path d="M18.5771 58.5537V73.4415" stroke="#1D1D1D" stroke-width="3" stroke-linecap="round" stroke-linejoin="round"/>
<path d="M6.9668 73.4414V72.1443C6.96833 70.5138 7.61664 68.9505 8.7696 67.7976C9.92256 66.6446 11.4859 65.9962 13.1164 65.9946H24.0319C25.6629 65.9946 27.2272 66.6426 28.3805 67.7959C29.5337 68.9492 30.1816 70.5133 30.1816 72.1443V73.4414" stroke="#1D1D1D" stroke-width="3" stroke-linecap="round" stroke-linejoin="round"/>
<path d="M21.1652 76.0306C21.1652 75.5187 21.0134 75.0182 20.7289 74.5925C20.4445 74.1669 20.0403 73.8351 19.5673 73.6392C19.0943 73.4433 18.5739 73.392 18.0718 73.4919C17.5697 73.5917 17.1084 73.8383 16.7464 74.2003C16.3844 74.5623 16.1379 75.0235 16.038 75.5256C15.9381 76.0277 15.9894 76.5482 16.1853 77.0211C16.3812 77.4941 16.7131 77.8984 17.1388 78.1828C17.5644 78.4672 18.0649 78.619 18.5768 78.619C19.2633 78.619 19.9216 78.3463 20.407 77.8609C20.8925 77.3755 21.1652 76.7171 21.1652 76.0306V76.0306Z" stroke="#1D1D1D" stroke-width="3" stroke-linecap="round" stroke-linejoin="round"/>
<path d="M32.7707 76.0306C32.7707 75.5187 32.6188 75.0182 32.3344 74.5925C32.05 74.1669 31.6457 73.8351 31.1727 73.6392C30.6998 73.4433 30.1794 73.392 29.6773 73.4919C29.1752 73.5917 28.7139 73.8383 28.3519 74.2003C27.9899 74.5623 27.7434 75.0235 27.6435 75.5256C27.5436 76.0277 27.5949 76.5482 27.7908 77.0211C27.9867 77.4941 28.3184 77.8984 28.7441 78.1828C29.1697 78.4672 29.6702 78.619 30.1821 78.619C30.8686 78.619 31.5271 78.3463 32.0125 77.8609C32.4979 77.3755 32.7707 76.7171 32.7707 76.0306V76.0306Z" stroke="#1D1D1D" stroke-width="3" stroke-linecap="round" stroke-linejoin="round"/>
<path d="M9.56154 76.0302C9.56268 75.5169 9.41145 75.0147 9.12709 74.5873C8.84273 74.16 8.43794 73.8266 7.96401 73.6293C7.49008 73.4321 6.96835 73.3799 6.46474 73.4793C5.96113 73.5788 5.49836 73.8254 5.13497 74.188C4.77158 74.5505 4.52386 75.0128 4.42329 75.5162C4.32273 76.0196 4.37386 76.5414 4.57004 77.0158C4.76622 77.4902 5.0987 77.8957 5.52545 78.181C5.95219 78.4663 6.45399 78.6186 6.96732 78.6186C7.65435 78.6186 8.31333 78.3461 8.79967 77.8609C9.28602 77.3756 9.56 76.7172 9.56154 76.0302V76.0302Z" stroke="#1D1D1D" stroke-width="3" stroke-linecap="round" stroke-linejoin="round"/>
<path d="M4.37891 24.7651V52.6936C4.37891 54.2447 4.99511 55.7323 6.09194 56.8291C7.18876 57.926 8.67627 58.5422 10.2274 58.5422H29.7247" stroke="#1D1D1D" stroke-width="3" stroke-linecap="round" stroke-linejoin="round"/>
<path d="M28.0293 13.7071C29.0196 9.51133 26.4211 5.30721 22.2253 4.31692C18.0295 3.32663 13.8254 5.92516 12.8351 10.1209C11.8448 14.3167 14.4434 18.5208 18.6392 19.5111C22.8349 20.5014 27.039 17.9029 28.0293 13.7071Z" stroke="#1D1D1D" stroke-width="3" stroke-linecap="round" stroke-linejoin="round"/>
<path d="M29.7248 42.2183V51.4312H20.1874C17.8284 51.4312 15.5661 50.4941 13.8981 48.8261C12.23 47.1581 11.293 44.8957 11.293 42.5367V29.1371C11.2945 27.977 11.7564 26.865 12.5772 26.0453C13.398 25.2255 14.5107 24.7651 15.6708 24.7651H25.6655C26.7405 24.7651 27.7715 25.1922 28.5317 25.9524C29.2919 26.7126 29.719 27.7436 29.719 28.8186V34.5687" stroke="#1D1D1D" stroke-width="3" stroke-linecap="round" stroke-linejoin="round"/>
<path d="M20.5107 27.8462V34.9282C20.5107 35.8497 20.8768 36.7334 21.5284 37.385C22.1799 38.0366 23.0637 38.4026 23.9852 38.4026H37.1937" stroke="#1D1D1D" stroke-width="3" stroke-linecap="round" stroke-linejoin="round"/>
<path d="M76.5717 78.983V44.181C76.5717 43.5667 76.3277 42.9775 75.8933 42.5431C75.4589 42.1087 74.8698 41.8647 74.2555 41.8647H39.6561C39.0418 41.8647 38.4527 42.1087 38.0183 42.5431C37.5839 42.9775 37.3398 43.5667 37.3398 44.181V78.983" stroke="#1D1D1D" stroke-width="3" stroke-linecap="round" stroke-linejoin="round"/>
<path d="M58.9385 37.4354H67.0454C67.9561 37.4354 68.8295 37.7971 69.4735 38.4411C70.1175 39.0851 70.4793 39.9585 70.4793 40.8692V41.8595H55.4814V40.8692C55.4814 40.4163 55.571 39.9679 55.745 39.5498C55.919 39.1316 56.1741 38.7521 56.4954 38.4329C56.8167 38.1137 57.1979 37.8613 57.6172 37.6901C58.0365 37.5189 58.4856 37.4323 58.9385 37.4354Z" stroke="#1D1D1D" stroke-width="3" stroke-linecap="round" stroke-linejoin="round"/>
<path d="M63.0039 37.4357V31.5581" stroke="#1D1D1D" stroke-width="3" stroke-linecap="round" stroke-linejoin="round"/>
<path d="M57.8779 5.93994H64.3114C65.322 5.93994 66.291 6.34138 67.0056 7.05595C67.7202 7.77051 68.1216 8.73964 68.1216 9.75019V27.7477C68.1216 28.7582 67.7202 29.7273 67.0056 30.4419C66.291 31.1565 65.322 31.5579 64.3114 31.5579H57.8779V5.93994V5.93994Z" stroke="#1D1D1D" stroke-width="3" stroke-linecap="round" stroke-linejoin="round"/>
<path d="M29.7246 51.4314H37.1945" stroke="#1D1D1D" stroke-width="3" stroke-linecap="round" stroke-linejoin="round"/>
<path d="M37.3271 58.5541C50.0033 53.9507 63.8945 53.9507 76.5706 58.5541V58.5541" stroke="#1D1D1D" stroke-width="3" stroke-linecap="round" stroke-linejoin="round"/>
<path d="M40.8018 45.3335V54.3959L47.7506 52.4734C54.3522 50.653 61.3371 50.7616 67.879 52.7861L73.0906 54.3959V45.3335H40.8018Z" fill="#2D8B7D"/>
</g>
<defs>
<clipPath id="clip0">
<rect width="80" height="80" fill="white" transform="translate(0.472656 0.753418)"/>
</clipPath>
</defs>
</svg>
