<svg width="81" height="81" viewBox="0 0 81 81" fill="none" xmlns="http://www.w3.org/2000/svg">
<path d="M48.7354 55.2007V68.8667" stroke="#1D1D1D" stroke-width="3" stroke-linecap="round" stroke-linejoin="round"/>
<path d="M32.001 55.2007V68.8667" stroke="#1D1D1D" stroke-width="3" stroke-linecap="round" stroke-linejoin="round"/>
<path d="M40.4781 39.3691C44.7699 39.3691 48.2492 35.8899 48.2492 31.598C48.2492 27.3062 44.7699 23.8269 40.4781 23.8269C36.1862 23.8269 32.707 27.3062 32.707 31.598C32.707 35.8899 36.1862 39.3691 40.4781 39.3691Z" stroke="#1D1D1D" stroke-width="3" stroke-linecap="round" stroke-linejoin="round"/>
<path d="M25.6953 68.8669V49.2365C25.6953 48.5734 25.8259 47.9167 26.0796 47.3041C26.3334 46.6915 26.7053 46.1349 27.1742 45.666C27.6431 45.1971 28.1998 44.8252 28.8124 44.5714C29.425 44.3176 30.0817 44.187 30.7448 44.187H50.2073C51.5465 44.187 52.8308 44.719 53.7778 45.666C54.7248 46.613 55.2567 47.8973 55.2567 49.2365V68.8669" stroke="#1D1D1D" stroke-width="3" stroke-linecap="round" stroke-linejoin="round"/>
<path d="M40.4775 44.187V53.1916" stroke="#1D1D1D" stroke-width="3" stroke-linecap="round" stroke-linejoin="round"/>
<path d="M40.4784 13.4854L11.9883 20.0752C11.9883 76.3722 40.4726 77.2697 40.4726 77.2697C40.4726 77.2697 68.957 76.3722 68.957 20.0752L40.4784 13.4854Z" stroke="#1D1D1D" stroke-width="3" stroke-miterlimit="10" stroke-linecap="round"/>
<path d="M59.5581 8.65535L40.4778 4.23706L21.4033 8.65535" stroke="#1D1D1D" stroke-width="3" stroke-miterlimit="10" stroke-linecap="round"/>
<path d="M34.7684 18.3723L15.4912 22.8311C15.6765 33.2543 16.8983 41.4829 18.6587 48.009C19.0756 41.3555 20.697 34.6905 24.2235 29.0793C26.9723 24.8292 30.5607 21.1856 34.7684 18.3723Z" fill="#2D8B7D"/>
<path d="M46.1533 18.3723L65.4247 22.8311C65.2394 33.2543 64.0234 41.4829 62.2572 48.009C61.8403 41.3555 60.2247 34.6905 56.6981 29.0793C53.9477 24.8305 50.3597 21.1873 46.1533 18.3723Z" fill="#2D8B7D"/>
</svg>
