<svg width="81" height="81" viewBox="0 0 81 81" fill="none" xmlns="http://www.w3.org/2000/svg">
<path d="M59.0429 4.04346H21.9014V25.3242H59.0429V4.04346Z" stroke="#1D1D1D" stroke-width="3" stroke-linecap="round" stroke-linejoin="round"/>
<path d="M33.6682 21.4851C31.864 19.6803 30.8506 17.2329 30.8506 14.681C30.8506 12.1291 31.864 9.68173 33.6682 7.87695" stroke="#1D1D1D" stroke-width="3" stroke-linecap="round" stroke-linejoin="round"/>
<path d="M47.2754 7.87695C49.0795 9.68173 50.093 12.1291 50.093 14.681C50.093 17.2329 49.0795 19.6803 47.2754 21.4851" stroke="#1D1D1D" stroke-width="3" stroke-linecap="round" stroke-linejoin="round"/>
<path d="M53.8252 15.2139C53.818 15.1514 53.8241 15.0882 53.8431 15.0283C53.8621 14.9684 53.8936 14.9133 53.9354 14.8664C53.9773 14.8195 54.0285 14.7819 54.0859 14.7562C54.1432 14.7305 54.2053 14.7173 54.2681 14.7173C54.3309 14.7173 54.3931 14.7305 54.4505 14.7562C54.5078 14.7819 54.5591 14.8195 54.6009 14.8664C54.6427 14.9133 54.6741 14.9684 54.6931 15.0283C54.7121 15.0882 54.7183 15.1514 54.7112 15.2139C54.7183 15.2763 54.7121 15.3395 54.6931 15.3994C54.6741 15.4593 54.6427 15.5145 54.6009 15.5614C54.5591 15.6083 54.5078 15.6459 54.4505 15.6716C54.3931 15.6973 54.3309 15.7105 54.2681 15.7105C54.2053 15.7105 54.1432 15.6973 54.0859 15.6716C54.0285 15.6459 53.9773 15.6083 53.9354 15.5614C53.8936 15.5145 53.8621 15.4593 53.8431 15.3994C53.8241 15.3395 53.818 15.2763 53.8252 15.2139V15.2139Z" stroke="#1D1D1D" stroke-width="3" stroke-linecap="round" stroke-linejoin="round"/>
<path d="M26.2325 15.2134C26.2325 15.1252 26.2587 15.0391 26.3077 14.9657C26.3567 14.8924 26.4262 14.8353 26.5077 14.8015C26.5892 14.7678 26.6789 14.7589 26.7654 14.7761C26.8519 14.7933 26.9313 14.8358 26.9936 14.8982C27.056 14.9605 27.0986 15.04 27.1158 15.1265C27.133 15.213 27.1241 15.3026 27.0903 15.3841C27.0566 15.4655 26.9995 15.5352 26.9262 15.5842C26.8529 15.6332 26.7665 15.6593 26.6784 15.6593C26.6196 15.6601 26.5613 15.6491 26.5069 15.627C26.4524 15.6049 26.403 15.572 26.3614 15.5304C26.3198 15.4889 26.287 15.4394 26.2648 15.385C26.2427 15.3305 26.2317 15.2722 26.2325 15.2134V15.2134Z" stroke="#1D1D1D" stroke-width="3" stroke-linecap="round" stroke-linejoin="round"/>
<path d="M37.8145 17.3449C37.8145 18.0498 38.0945 18.7258 38.593 19.2243C39.0915 19.7228 39.7675 20.0028 40.4724 20.0028C41.1774 20.0028 41.8534 19.7228 42.3519 19.2243C42.8503 18.7258 43.1304 18.0498 43.1304 17.3449C43.1304 15.874 42.0417 15.1966 40.4724 14.687C39.0769 14.2295 37.8145 13.494 37.8145 12.029C37.8145 11.3241 38.0945 10.648 38.593 10.1496C39.0915 9.65111 39.7675 9.37109 40.4724 9.37109C41.1774 9.37109 41.8534 9.65111 42.3519 10.1496C42.8503 10.648 43.1304 11.3241 43.1304 12.029" stroke="#1D1D1D" stroke-width="3" stroke-linecap="round" stroke-linejoin="round"/>
<path d="M40.4727 7.87695V9.37672" stroke="#1D1D1D" stroke-width="3" stroke-linecap="round" stroke-linejoin="round"/>
<path d="M40.4727 19.991V21.485" stroke="#1D1D1D" stroke-width="3" stroke-linecap="round" stroke-linejoin="round"/>
<path d="M26.6788 42.2043H17.0605" stroke="#1D1D1D" stroke-width="3" stroke-linecap="round" stroke-linejoin="round"/>
<path d="M63.8839 42.2043H54.2656" stroke="#1D1D1D" stroke-width="3" stroke-linecap="round" stroke-linejoin="round"/>
<path d="M40.4722 67.8452C38.6607 67.8459 36.8666 67.4897 35.1928 66.7968C33.5189 66.1039 31.9981 65.0879 30.7171 63.8069C29.4362 62.5259 28.4201 61.005 27.7272 59.3312C27.0343 57.6574 26.678 55.8634 26.6788 54.0518V32.5857H17.0605V54.0518C17.0605 60.261 19.5271 66.2158 23.9176 70.6064C28.3082 74.9969 34.2631 77.4635 40.4722 77.4635V77.4635C46.6814 77.4635 52.6363 74.9969 57.0269 70.6064C61.4174 66.2158 63.8839 60.261 63.8839 54.0518V32.5857H54.2657V54.0518C54.2665 55.8634 53.9102 57.6574 53.2173 59.3312C52.5243 61.005 51.5083 62.5259 50.2273 63.8069C48.9463 65.0879 47.4256 66.1039 45.7517 66.7968C44.0779 67.4897 42.2838 67.8459 40.4722 67.8452V67.8452Z" stroke="#1D1D1D" stroke-width="3" stroke-linecap="round" stroke-linejoin="round"/>
<path d="M40.7559 49.4652V30.2112" stroke="#1D1D1D" stroke-width="3" stroke-linecap="round" stroke-linejoin="round"/>
<path d="M34.1025 45.3373V34.335" stroke="#1D1D1D" stroke-width="3" stroke-linecap="round" stroke-linejoin="round"/>
<path d="M46.8418 45.3373V34.335" stroke="#1D1D1D" stroke-width="3" stroke-linecap="round" stroke-linejoin="round"/>
<path d="M57.7403 48.9152V53.6867C57.7403 63.0849 50.386 71.0587 40.9935 71.3135C38.6835 71.3808 36.3835 70.9843 34.2294 70.1473C32.0753 69.3103 30.1109 68.0498 28.4524 66.4405C26.7939 64.8311 25.475 62.9055 24.5736 60.7776C23.6723 58.6496 23.2067 56.3625 23.2046 54.0515V48.9152C23.2046 48.7402 23.1701 48.567 23.1032 48.4054C23.0363 48.2438 22.9382 48.0971 22.8145 47.9734C22.6909 47.8497 22.5441 47.7516 22.3825 47.6846C22.2209 47.6177 22.0476 47.5833 21.8727 47.5833C21.6973 47.5825 21.5236 47.6164 21.3613 47.683C21.1991 47.7496 21.0515 47.8476 20.9272 47.9713C20.8029 48.0951 20.7044 48.2422 20.6371 48.4042C20.5698 48.5661 20.5352 48.7398 20.5352 48.9152V53.6577C20.5352 64.8105 29.6671 74.1741 40.8025 73.9888C46.0279 73.8917 51.0068 71.7492 54.6697 68.0214C58.3325 64.2935 60.3872 59.2777 60.3923 54.0515V48.9152C60.3923 48.7398 60.3577 48.5661 60.2904 48.4042C60.2231 48.2422 60.1246 48.0951 60.0003 47.9713C59.876 47.8476 59.7284 47.7496 59.5661 47.683C59.4039 47.6164 59.2302 47.5825 59.0548 47.5833C58.7046 47.5878 58.3702 47.7302 58.1241 47.9795C57.8781 48.2287 57.7403 48.5649 57.7403 48.9152Z" fill="#2D8B7D"/>
</svg>
