<svg width="81" height="81" viewBox="0 0 81 81" fill="none" xmlns="http://www.w3.org/2000/svg">
<path d="M49.2059 63.0882C49.3506 61.9039 49.0844 60.7058 48.452 59.694C47.8197 58.6823 46.8594 57.9181 45.7314 57.5292V57.5292L49.4954 48.2178L53.1898 52.3407C54.1817 53.4542 54.8445 54.8215 55.1043 56.2899C55.364 57.7583 55.2104 59.27 54.6606 60.6562L51.1862 67.825C50.7727 68.6563 50.5751 69.5783 50.6117 70.506C50.6482 71.4338 50.9178 72.3374 51.3955 73.1335C51.8731 73.9296 52.5435 74.5927 53.3449 75.0615C54.1462 75.5304 55.0528 75.7899 55.9809 75.8162H70.8745C72.5017 75.8345 74.0767 75.2433 75.2898 74.1587C76.5029 73.0742 77.2663 71.575 77.4296 69.956C77.5548 68.4611 77.1482 66.9699 76.2817 65.7454C75.4152 64.5208 74.1442 63.6413 72.6928 63.262C72.7132 63.0967 72.7248 62.9305 72.7275 62.764C72.726 61.7232 72.3119 60.7255 71.5759 59.9895C70.84 59.2535 69.8422 58.8394 68.8014 58.8379C68.4613 58.8398 68.1228 58.8846 67.7939 58.9711V58.9132C67.7929 58.1274 67.5517 57.3608 67.1024 56.7162C66.6532 56.0716 66.0175 55.5798 65.2807 55.3069C64.5439 55.034 63.7411 54.993 62.9804 55.1894C62.2196 55.3859 61.5372 55.8103 61.0246 56.4058" stroke="#1D1D1D" stroke-width="3" stroke-linecap="round" stroke-linejoin="round"/>
<path d="M47.9767 15.8188C47.9767 15.8188 45.2551 16.977 40.4488 16.977C35.6425 16.977 32.9209 15.8188 32.9209 15.8188" stroke="#1D1D1D" stroke-width="3" stroke-linecap="round" stroke-linejoin="round"/>
<path d="M45.2967 30.7072C45.2967 29.7531 45.0137 28.8205 44.4837 28.0273C43.9536 27.2341 43.2004 26.6158 42.319 26.2507C41.4375 25.8856 40.4677 25.7901 39.532 25.9762C38.5963 26.1624 37.7368 26.6217 37.0622 27.2963C36.3876 27.9709 35.9282 28.8304 35.7421 29.7661C35.556 30.7018 35.6515 31.6717 36.0166 32.5531C36.3817 33.4345 36.9999 34.1879 37.7931 34.7179C38.5864 35.2479 39.519 35.5308 40.473 35.5308C41.7523 35.5308 42.9792 35.0226 43.8838 34.118C44.7884 33.2134 45.2967 31.9865 45.2967 30.7072Z" stroke="#1D1D1D" stroke-width="3" stroke-linecap="round" stroke-linejoin="round"/>
<path d="M40.4722 32.0564C40.2054 32.0564 39.9446 31.9772 39.7227 31.829C39.5008 31.6807 39.3279 31.47 39.2257 31.2235C39.1236 30.9769 39.0969 30.7056 39.149 30.4439C39.201 30.1822 39.3296 29.9418 39.5182 29.7531C39.7069 29.5644 39.9473 29.4359 40.209 29.3838C40.4707 29.3318 40.742 29.3585 40.9885 29.4606C41.2351 29.5627 41.4458 29.7357 41.594 29.9575C41.7423 30.1794 41.8215 30.4403 41.8215 30.7071C41.8215 31.065 41.6793 31.4082 41.4262 31.6612C41.1732 31.9142 40.8301 32.0564 40.4722 32.0564Z" fill="#2D8B7D"/>
<path d="M37.2184 60.6909C37.1605 64.368 38.087 69.3132 40.4728 75.822C42.8586 69.3132 43.7851 64.368 43.7272 60.6909" stroke="#1D1D1D" stroke-width="3" stroke-linecap="round" stroke-linejoin="round"/>
<path d="M31.7401 63.0882C31.5954 61.9039 31.8616 60.7058 32.4939 59.694C33.1263 58.6823 34.0866 57.9181 35.2145 57.5292L31.4506 48.2178L27.7562 52.3407C26.7643 53.4542 26.1015 54.8215 25.8417 56.2899C25.582 57.7583 25.7356 59.27 26.2854 60.6562L29.7887 67.825C30.2023 68.6563 30.3998 69.5783 30.3633 70.506C30.3267 71.4338 30.0572 72.3374 29.5795 73.1335C29.1018 73.9296 28.4313 74.5927 27.63 75.0615C26.8286 75.5304 25.9221 75.7899 24.994 75.8162H10.0714C8.44433 75.8345 6.8693 75.2433 5.65618 74.1587C4.44307 73.0742 3.67969 71.575 3.51635 69.956C3.39122 68.4611 3.79777 66.9699 4.6643 65.7454C5.53083 64.5208 6.80183 63.6413 8.25323 63.262C8.23281 63.0967 8.22118 62.9305 8.21845 62.764C8.21998 61.7232 8.63413 60.7255 9.37008 59.9895C10.106 59.2535 11.1038 58.8394 12.1445 58.8379C12.4847 58.8398 12.8232 58.8846 13.1521 58.9711V58.9132C13.1531 58.1274 13.3943 57.3608 13.8436 56.7162C14.2928 56.0716 14.9285 55.5798 15.6653 55.3069C16.4021 55.034 17.2049 54.993 17.9656 55.1894C18.7264 55.3859 19.4088 55.8103 19.9214 56.4058" stroke="#1D1D1D" stroke-width="3" stroke-linecap="round" stroke-linejoin="round"/>
<path d="M31.497 48.2234C21.2243 23.1613 40.5015 5.68506 40.5015 5.68506C40.5015 5.68506 59.7787 23.1613 49.506 48.2234" stroke="#1D1D1D" stroke-width="3" stroke-linecap="round" stroke-linejoin="round"/>
<path d="M10.0716 72.3534H24.9884C25.3067 72.3462 25.6177 72.2572 25.8915 72.0949C26.1654 71.9327 26.3928 71.7026 26.5519 71.4268C26.7439 71.1198 26.8547 70.769 26.8739 70.4074C26.8932 70.0458 26.8202 69.6852 26.6619 69.3596L26.1234 68.2651H7.23424C7.02913 68.7125 6.94134 69.2048 6.97935 69.6954C7.07132 70.4439 7.43934 71.1312 8.01124 71.6228C8.58313 72.1143 9.3178 72.3748 10.0716 72.3534Z" fill="#2D8B7D"/>
<path d="M70.7639 72.3534H55.8471C55.5287 72.3468 55.2174 72.258 54.9434 72.0957C54.6695 71.9333 54.4423 71.7029 54.2836 71.4268C54.0901 71.1204 53.9783 70.7695 53.9591 70.4076C53.9398 70.0456 54.0136 69.6848 54.1735 69.3596L54.7064 68.2651H73.6013C73.8044 68.713 73.8901 69.2053 73.8503 69.6954C73.7584 70.4429 73.3913 71.1293 72.8206 71.6208C72.25 72.1122 71.5167 72.3734 70.7639 72.3534Z" fill="#2D8B7D"/>
</svg>
