<svg width="55" height="55" viewBox="0 0 55 55" fill="none" xmlns="http://www.w3.org/2000/svg">
<path d="M26.993 26.9763H27.0369H27.0809C38.1484 26.8446 36.5234 12.0879 36.5234 12.0879C36.0842 2.25014 27.8275 2.29406 26.993 2.33798C26.2025 2.29406 17.9458 2.20622 17.4627 12.0879C17.5505 12.0879 15.9255 26.8446 26.993 26.9763Z" fill="#2D8B7D"/>
<path d="M43.2864 34.4862C38.9824 31.7632 34.1514 29.4355 34.1514 29.4355L30.3304 41.5571L28.0906 35.1889C32.0433 29.6991 27.8271 29.4355 27.0805 29.4355C27.0805 29.4355 27.0805 29.4355 27.0366 29.4355C27.0366 29.4355 27.0365 29.4355 26.9926 29.4355C26.246 29.4355 22.0298 29.6991 25.9825 35.1889L23.7427 41.5571L19.9217 29.4355C19.9217 29.4355 15.0907 31.7632 10.7867 34.4862C7.53668 36.5064 6.92182 38.7463 6.83398 41.9084V43.8848V52.6685H27.0366H27.0805H27.1244H47.327V43.8848V41.9084C47.1513 38.7463 46.5364 36.5504 43.2864 34.4862Z" fill="#2D8B7D"/>
</svg>
