<svg width="54" height="55" viewBox="0 0 54 55" fill="none" xmlns="http://www.w3.org/2000/svg">
<g clip-path="url(#clip0)">
<path d="M26.9998 19.6794C26.6693 19.6794 26.4159 19.9438 26.4159 20.2633V25.0222L22.4172 27.6109C22.1418 27.7872 22.0646 28.1507 22.2409 28.4261C22.3511 28.6023 22.5383 28.6905 22.7366 28.6905C22.8468 28.6905 22.9569 28.6574 23.0561 28.5913L26.9998 26.0356L30.9435 28.5913C31.0426 28.6574 31.1528 28.6905 31.2629 28.6905C31.4502 28.6905 31.6485 28.5913 31.7586 28.4261C31.9349 28.1507 31.8578 27.7872 31.5824 27.6109L27.5836 25.0222V20.2633C27.5836 19.9438 27.3192 19.6794 26.9998 19.6794Z" fill="#2D8B7D"/>
<path d="M26.9779 11.0099H26.989H27C29.776 10.9769 29.3684 7.27552 29.3684 7.27552C29.2582 4.80795 27.1872 4.81897 26.9779 4.82998C26.7797 4.81897 24.7087 4.79694 24.5875 7.27552C24.6095 7.27552 24.2129 10.9769 26.9779 11.0099Z" fill="#2D8B7D"/>
<path d="M31.0758 12.8935C29.9963 12.2106 28.7845 11.6267 28.7845 11.6267L27.8261 14.6671L27.2643 13.0698C28.2558 11.6928 27.1982 11.6267 27.011 11.6267C27.011 11.6267 27.011 11.6267 26.9999 11.6267C26.9999 11.6267 26.9999 11.6267 26.9889 11.6267C26.8017 11.6267 25.7441 11.6928 26.7356 13.0698L26.1737 14.6671L25.2154 11.6267C25.2154 11.6267 24.0036 12.2106 22.924 12.8935C22.1089 13.4003 21.9546 13.9621 21.9326 14.7552V15.2509V17.4541H26.9999H27.011H27.022H32.0893V15.2509V14.7552C32.0452 13.9621 31.891 13.4113 31.0758 12.8935Z" fill="#2D8B7D"/>
<path d="M16.0171 27.3686H16.0282H16.0392C18.8152 27.3355 18.4076 23.6342 18.4076 23.6342C18.2974 21.1666 16.2264 21.1776 16.0171 21.1886C15.8189 21.1776 13.7479 21.1556 13.6267 23.6342C13.6487 23.6342 13.2411 27.3355 16.0171 27.3686Z" fill="#2D8B7D"/>
<path d="M20.1041 29.2522C19.0246 28.5692 17.8128 27.9854 17.8128 27.9854L16.8544 31.0257L16.2926 29.4284C17.2841 28.0514 16.2265 27.9854 16.0393 27.9854C16.0393 27.9854 16.0393 27.9854 16.0283 27.9854C16.0283 27.9854 16.0283 27.9854 16.0172 27.9854C15.83 27.9854 14.7724 28.0514 15.7639 29.4284L15.2021 31.0257L14.2437 27.9854C14.2437 27.9854 13.0319 28.5692 11.9524 29.2522C11.1372 29.7589 10.983 30.3207 10.9609 31.1139V31.6096V33.8128H16.0283H16.0393H16.0503H21.1176V31.6096V31.1139C21.0735 30.3207 20.9193 29.7699 20.1041 29.2522Z" fill="#2D8B7D"/>
<path d="M37.9281 27.3686H37.9392H37.9502C40.7262 27.3355 40.3186 23.6342 40.3186 23.6342C40.2084 21.1666 38.1374 21.1776 37.9281 21.1886C37.7298 21.1776 35.6589 21.1556 35.5377 23.6342C35.5597 23.6342 35.1631 27.3355 37.9281 27.3686Z" fill="#2D8B7D"/>
<path d="M42.026 29.2522C40.9465 28.5692 39.7347 27.9854 39.7347 27.9854L38.7763 31.0257L38.2145 29.4284C39.2059 28.0514 38.1484 27.9854 37.9611 27.9854C37.9611 27.9854 37.9611 27.9854 37.9501 27.9854C37.9501 27.9854 37.9501 27.9854 37.9391 27.9854C37.7518 27.9854 36.6943 28.0514 37.6857 29.4284L37.1239 31.0257L36.1656 27.9854C36.1656 27.9854 34.9538 28.5692 33.8742 29.2522C33.0591 29.7589 32.9048 30.3207 32.8828 31.1139V31.6096V33.8128H37.9501H37.9611H37.9722H43.0395V31.6096V31.1139C42.9954 30.3207 42.8412 29.7699 42.026 29.2522Z" fill="#2D8B7D"/>
<path d="M42.5433 43.9805L38.5446 41.3918V36.6329C38.5446 36.3024 38.2802 36.0491 37.9607 36.0491C37.6302 36.0491 37.3769 36.3135 37.3769 36.6329V41.3918L33.3781 43.9805C33.1027 44.1568 33.0256 44.5203 33.2018 44.7957C33.312 44.972 33.4993 45.0601 33.6976 45.0601C33.8077 45.0601 33.9179 45.0271 34.017 44.961L37.9607 42.4053L41.9044 44.961C42.0036 45.0271 42.1137 45.0601 42.2239 45.0601C42.4111 45.0601 42.6094 44.961 42.7196 44.7957C42.8959 44.5313 42.8187 44.1568 42.5433 43.9805Z" fill="#2D8B7D"/>
<path d="M26.9889 43.7272H26.9999C29.7759 43.6941 29.3683 39.9928 29.3683 39.9928C29.2582 37.5252 27.1872 37.5363 26.9779 37.5473C26.7796 37.5363 24.7086 37.5142 24.5874 39.9928C24.5874 39.9928 24.1798 43.6941 26.9558 43.7272C26.9779 43.7272 26.9779 43.7272 26.9889 43.7272Z" fill="#2D8B7D"/>
<path d="M31.0651 45.6108C29.9855 44.9278 28.7738 44.344 28.7738 44.344L27.8154 47.3844L27.2536 45.7871C28.245 44.4101 27.1875 44.344 27.0002 44.344C27.0002 44.344 27.0002 44.344 26.9892 44.344C26.9892 44.344 26.9892 44.344 26.9782 44.344C26.7909 44.344 25.7334 44.4101 26.7248 45.7871L26.163 47.3844L25.2046 44.344C25.2046 44.344 23.9929 44.9278 22.9133 45.6108C22.0981 46.1176 21.9439 46.6794 21.9219 47.4725V47.9682V50.1714H26.9892H27.0002H27.0112H32.0785V47.9682V47.4725C32.0345 46.6794 31.8803 46.1286 31.0651 45.6108Z" fill="#2D8B7D"/>
<path d="M48.8891 43.7272H48.9001H48.9111C51.6871 43.6941 51.2795 39.9928 51.2795 39.9928C51.1694 37.5252 49.0984 37.5363 48.8891 37.5473C48.6908 37.5363 46.6198 37.5142 46.4986 39.9928C46.5207 39.9928 46.1241 43.6941 48.8891 43.7272Z" fill="#2D8B7D"/>
<path d="M53.9784 47.4725C53.9564 46.6794 53.8021 46.1176 52.987 45.6108C51.9074 44.9278 50.6957 44.344 50.6957 44.344L49.7373 47.3844L49.1755 45.7871C50.1669 44.4101 49.1094 44.344 48.9221 44.344C48.9221 44.344 48.9221 44.344 48.9111 44.344C48.9111 44.344 48.9111 44.344 48.9001 44.344C48.7128 44.344 47.6553 44.4101 48.6467 45.7871L48.0849 47.3844L47.1265 44.344C47.1265 44.344 45.9147 44.9278 44.8352 45.6108C44.02 46.1176 43.8658 46.6794 43.8438 47.4725V47.9682V50.1714H48.9111H48.9221H48.9331H54.0004V47.9682L53.9784 47.4725Z" fill="#2D8B7D"/>
<path d="M20.6215 43.9805L16.6227 41.3918V36.6329C16.6227 36.3024 16.3583 36.0491 16.0388 36.0491C15.7084 36.0491 15.455 36.3135 15.455 36.6329V41.3918L11.4562 43.9805C11.1808 44.1568 11.1037 44.5203 11.28 44.7957C11.3901 44.972 11.5774 45.0601 11.7757 45.0601C11.8858 45.0601 11.996 45.0271 12.0951 44.961L16.0388 42.4053L19.9825 44.961C20.0817 45.0271 20.1918 45.0601 20.302 45.0601C20.4893 45.0601 20.6876 44.961 20.7977 44.7957C20.974 44.5313 20.8969 44.1568 20.6215 43.9805Z" fill="#2D8B7D"/>
<path d="M5.0562 43.7272H5.06722H5.07823C7.85424 43.6941 7.44665 39.9928 7.44665 39.9928C7.33649 37.5252 5.2655 37.5363 5.0562 37.5473C4.85791 37.5363 2.78692 37.5142 2.66575 39.9928C2.68778 39.9928 2.28019 43.6941 5.0562 43.7272Z" fill="#2D8B7D"/>
<path d="M9.14321 45.6108C8.06365 44.9278 6.8519 44.344 6.8519 44.344L5.89351 47.3844L5.3317 45.7871C6.32313 44.4101 5.2656 44.344 5.07833 44.344C5.07833 44.344 5.07833 44.344 5.06732 44.344C5.06732 44.344 5.06732 44.344 5.0563 44.344C4.86903 44.344 3.8115 44.4101 4.80294 45.7871L4.24113 47.3844L3.28274 44.344C3.28274 44.344 2.07099 44.9278 0.991432 45.6108C0.176255 46.1176 0.0220318 46.6794 0 47.4725V47.9682V50.1714H5.06732H5.07833H10.1457V47.9682V47.4725C10.1126 46.6794 9.95838 46.1286 9.14321 45.6108Z" fill="#2D8B7D"/>
</g>
<defs>
<clipPath id="clip0">
<rect width="54" height="54" fill="white" transform="translate(0 0.5)"/>
</clipPath>
</defs>
</svg>
